%TF.GenerationSoftware,KiCad,Pcbnew,9.0.6-9.0.6~ubuntu24.04.1*%
%TF.CreationDate,2025-12-13T20:31:21+01:00*%
%TF.ProjectId,temperator,74656d70-6572-4617-946f-722e6b696361,1.1*%
%TF.SameCoordinates,PX623a7c0PY623a7c0*%
%TF.FileFunction,Copper,L2,Bot*%
%TF.FilePolarity,Positive*%
%FSLAX46Y46*%
G04 Gerber Fmt 4.6, Leading zero omitted, Abs format (unit mm)*
G04 Created by KiCad (PCBNEW 9.0.6-9.0.6~ubuntu24.04.1) date 2025-12-13 20:31:21*
%MOMM*%
%LPD*%
G01*
G04 APERTURE LIST*
G04 Aperture macros list*
%AMRoundRect*
0 Rectangle with rounded corners*
0 $1 Rounding radius*
0 $2 $3 $4 $5 $6 $7 $8 $9 X,Y pos of 4 corners*
0 Add a 4 corners polygon primitive as box body*
4,1,4,$2,$3,$4,$5,$6,$7,$8,$9,$2,$3,0*
0 Add four circle primitives for the rounded corners*
1,1,$1+$1,$2,$3*
1,1,$1+$1,$4,$5*
1,1,$1+$1,$6,$7*
1,1,$1+$1,$8,$9*
0 Add four rect primitives between the rounded corners*
20,1,$1+$1,$2,$3,$4,$5,0*
20,1,$1+$1,$4,$5,$6,$7,0*
20,1,$1+$1,$6,$7,$8,$9,0*
20,1,$1+$1,$8,$9,$2,$3,0*%
G04 Aperture macros list end*
%TA.AperFunction,ComponentPad*%
%ADD10C,1.400000*%
%TD*%
%TA.AperFunction,ComponentPad*%
%ADD11RoundRect,0.250000X-0.550000X-0.550000X0.550000X-0.550000X0.550000X0.550000X-0.550000X0.550000X0*%
%TD*%
%TA.AperFunction,ComponentPad*%
%ADD12C,1.600000*%
%TD*%
%TA.AperFunction,ComponentPad*%
%ADD13R,2.600000X2.600000*%
%TD*%
%TA.AperFunction,ComponentPad*%
%ADD14C,2.600000*%
%TD*%
%TA.AperFunction,ComponentPad*%
%ADD15C,3.600000*%
%TD*%
%TA.AperFunction,ConnectorPad*%
%ADD16C,5.600000*%
%TD*%
%TA.AperFunction,ConnectorPad*%
%ADD17C,3.800000*%
%TD*%
%TA.AperFunction,ComponentPad*%
%ADD18RoundRect,0.250000X0.550000X-0.550000X0.550000X0.550000X-0.550000X0.550000X-0.550000X-0.550000X0*%
%TD*%
%TA.AperFunction,ComponentPad*%
%ADD19RoundRect,0.250001X-0.949999X-0.949999X0.949999X-0.949999X0.949999X0.949999X-0.949999X0.949999X0*%
%TD*%
%TA.AperFunction,ComponentPad*%
%ADD20C,2.400000*%
%TD*%
%TA.AperFunction,ComponentPad*%
%ADD21RoundRect,0.250000X0.550000X0.550000X-0.550000X0.550000X-0.550000X-0.550000X0.550000X-0.550000X0*%
%TD*%
%TA.AperFunction,ComponentPad*%
%ADD22C,1.727200*%
%TD*%
%TA.AperFunction,ComponentPad*%
%ADD23R,1.727200X1.727200*%
%TD*%
%TA.AperFunction,ComponentPad*%
%ADD24R,1.700000X1.700000*%
%TD*%
%TA.AperFunction,ComponentPad*%
%ADD25C,1.700000*%
%TD*%
%TA.AperFunction,ViaPad*%
%ADD26C,0.600000*%
%TD*%
%TA.AperFunction,Conductor*%
%ADD27C,0.200000*%
%TD*%
%TA.AperFunction,Conductor*%
%ADD28C,1.000000*%
%TD*%
G04 APERTURE END LIST*
D10*
%TO.P,R124,1*%
%TO.N,Net-(J104-Pin_4)*%
X33310000Y-2500000D03*
%TO.P,R124,2*%
%TO.N,+3.3V*%
X25690000Y-2500000D03*
%TD*%
%TO.P,C205,1*%
%TO.N,Net-(C205-Pad1)*%
X-4500000Y33400000D03*
%TO.P,C205,2*%
%TO.N,Net-(U201C--)*%
X-7000000Y33400000D03*
%TD*%
%TO.P,C208,1*%
%TO.N,ADC0*%
X16300000Y43400000D03*
%TO.P,C208,2*%
%TO.N,GND*%
X18800000Y43400000D03*
%TD*%
D11*
%TO.P,D104,1,K*%
%TO.N,+3.3V*%
X-32500000Y-28000000D03*
D12*
%TO.P,D104,2,A*%
%TO.N,CH04*%
X-24880000Y-28000000D03*
%TD*%
D13*
%TO.P,J104,1,Pin_1*%
%TO.N,Net-(J104-Pin_1)*%
X44300000Y12700000D03*
D14*
%TO.P,J104,2,Pin_2*%
%TO.N,Net-(J104-Pin_2)*%
X44300000Y7700000D03*
%TO.P,J104,3,Pin_3*%
%TO.N,GND*%
X44300000Y2700000D03*
%TO.P,J104,4,Pin_4*%
%TO.N,Net-(J104-Pin_4)*%
X44300000Y-2300000D03*
%TO.P,J104,5,Pin_5*%
%TO.N,Net-(J104-Pin_5)*%
X44300000Y-7300000D03*
%TO.P,J104,6,Pin_6*%
%TO.N,GND*%
X44300000Y-12300000D03*
%TD*%
D11*
%TO.P,D202,1,K*%
%TO.N,+3.3V*%
X-19310000Y33400000D03*
D12*
%TO.P,D202,2,A*%
%TO.N,Net-(D202-A)*%
X-11690000Y33400000D03*
%TD*%
D11*
%TO.P,D109,1,K*%
%TO.N,CH01*%
X-19500707Y-12499293D03*
D12*
%TO.P,D109,2,A*%
%TO.N,GND*%
X-11880707Y-12499293D03*
%TD*%
D10*
%TO.P,R203,1*%
%TO.N,+3.3V*%
X-24880000Y28400000D03*
%TO.P,R203,2*%
%TO.N,Net-(J201-Pin_3)*%
X-32500000Y28400000D03*
%TD*%
D11*
%TO.P,D106,1,K*%
%TO.N,+3.3V*%
X14250000Y-43000000D03*
D12*
%TO.P,D106,2,A*%
%TO.N,CH06*%
X21870000Y-43000000D03*
%TD*%
D10*
%TO.P,C211,1*%
%TO.N,+3.3V*%
X38400000Y38350000D03*
%TO.P,C211,2*%
%TO.N,GND*%
X40900000Y38350000D03*
%TD*%
%TO.P,C213,1*%
%TO.N,ADC2*%
X8000000Y13000000D03*
%TO.P,C213,2*%
%TO.N,GND*%
X5500000Y13000000D03*
%TD*%
%TO.P,R103,1*%
%TO.N,+3.3V*%
X-11880000Y-38000000D03*
%TO.P,R103,2*%
%TO.N,CH03*%
X-19500000Y-38000000D03*
%TD*%
%TO.P,R119,1*%
%TO.N,Net-(J103-Pin_5)*%
X33370000Y-38000000D03*
%TO.P,R119,2*%
%TO.N,CH06*%
X25750000Y-38000000D03*
%TD*%
%TO.P,R209,1*%
%TO.N,Net-(D204-A)*%
X-24880000Y38400000D03*
%TO.P,R209,2*%
%TO.N,Net-(J201-Pin_5)*%
X-32500000Y38400000D03*
%TD*%
D13*
%TO.P,J102,1,Pin_1*%
%TO.N,GND*%
X-44300000Y-43000000D03*
D14*
%TO.P,J102,2,Pin_2*%
%TO.N,Net-(J102-Pin_2)*%
X-44300000Y-38000000D03*
%TO.P,J102,3,Pin_3*%
%TO.N,Net-(J102-Pin_3)*%
X-44300000Y-33000000D03*
%TO.P,J102,4,Pin_4*%
%TO.N,GND*%
X-44300000Y-28000000D03*
%TO.P,J102,5,Pin_5*%
%TO.N,Net-(J102-Pin_5)*%
X-44300000Y-23000000D03*
%TO.P,J102,6,Pin_6*%
%TO.N,Net-(J102-Pin_6)*%
X-44300000Y-18000000D03*
%TD*%
D13*
%TO.P,J101,1,Pin_1*%
%TO.N,GND*%
X-44300000Y-12300000D03*
D14*
%TO.P,J101,2,Pin_2*%
%TO.N,Net-(J101-Pin_2)*%
X-44300000Y-7300000D03*
%TO.P,J101,3,Pin_3*%
%TO.N,Net-(J101-Pin_3)*%
X-44300000Y-2300000D03*
%TO.P,J101,4,Pin_4*%
%TO.N,GND*%
X-44300000Y2700000D03*
%TO.P,J101,5,Pin_5*%
%TO.N,Net-(J101-Pin_5)*%
X-44300000Y7700000D03*
%TO.P,J101,6,Pin_6*%
%TO.N,Net-(J101-Pin_6)*%
X-44300000Y12700000D03*
%TD*%
D15*
%TO.P,H206,1*%
%TO.N,N/C*%
X-39000000Y53500000D03*
D16*
X-39000000Y53500000D03*
%TD*%
D14*
%TO.P,H211,1*%
%TO.N,N/C*%
X12750000Y54000000D03*
D17*
X12750000Y54000000D03*
%TD*%
D13*
%TO.P,J103,1,Pin_1*%
%TO.N,Net-(J103-Pin_1)*%
X44300000Y-18000000D03*
D14*
%TO.P,J103,2,Pin_2*%
%TO.N,Net-(J103-Pin_2)*%
X44300000Y-23000000D03*
%TO.P,J103,3,Pin_3*%
%TO.N,GND*%
X44300000Y-28000000D03*
%TO.P,J103,4,Pin_4*%
%TO.N,Net-(J103-Pin_4)*%
X44300000Y-33000000D03*
%TO.P,J103,5,Pin_5*%
%TO.N,Net-(J103-Pin_5)*%
X44300000Y-38000000D03*
%TO.P,J103,6,Pin_6*%
%TO.N,GND*%
X44300000Y-43000000D03*
%TD*%
D11*
%TO.P,D102,1,K*%
%TO.N,+3.3V*%
X-32500000Y2500000D03*
D12*
%TO.P,D102,2,A*%
%TO.N,CH02*%
X-24880000Y2500000D03*
%TD*%
D10*
%TO.P,R107,1*%
%TO.N,+3.3V*%
X14250000Y12500000D03*
%TO.P,R107,2*%
%TO.N,CH07*%
X21870000Y12500000D03*
%TD*%
D15*
%TO.P,H205,1*%
%TO.N,N/C*%
X39000000Y53500000D03*
D16*
X39000000Y53500000D03*
%TD*%
D10*
%TO.P,R105,1*%
%TO.N,+3.3V*%
X14250000Y-23000000D03*
%TO.P,R105,2*%
%TO.N,CH05*%
X21870000Y-23000000D03*
%TD*%
D11*
%TO.P,D205,1,K*%
%TO.N,Net-(D204-A)*%
X-19310000Y38400000D03*
D12*
%TO.P,D205,2,A*%
%TO.N,GND*%
X-11690000Y38400000D03*
%TD*%
D10*
%TO.P,R114,1*%
%TO.N,Net-(J102-Pin_3)*%
X-32510000Y-33000000D03*
%TO.P,R114,2*%
%TO.N,+3.3V*%
X-24890000Y-33000000D03*
%TD*%
%TO.P,R120,1*%
%TO.N,Net-(J103-Pin_4)*%
X33370000Y-33000000D03*
%TO.P,R120,2*%
%TO.N,+3.3V*%
X25750000Y-33000000D03*
%TD*%
D11*
%TO.P,D103,1,K*%
%TO.N,+3.3V*%
X-32500000Y-43000000D03*
D12*
%TO.P,D103,2,A*%
%TO.N,CH03*%
X-24880000Y-43000000D03*
%TD*%
D10*
%TO.P,R110,1*%
%TO.N,Net-(J101-Pin_3)*%
X-32500000Y-2400000D03*
%TO.P,R110,2*%
%TO.N,+3.3V*%
X-24880000Y-2400000D03*
%TD*%
D11*
%TO.P,D204,1,K*%
%TO.N,+3.3V*%
X-19200000Y43400000D03*
D12*
%TO.P,D204,2,A*%
%TO.N,Net-(D204-A)*%
X-11580000Y43400000D03*
%TD*%
D11*
%TO.P,D112,1,K*%
%TO.N,CH04*%
X-19500000Y-28000000D03*
D12*
%TO.P,D112,2,A*%
%TO.N,GND*%
X-11880000Y-28000000D03*
%TD*%
D15*
%TO.P,H208,1*%
%TO.N,N/C*%
X39000000Y-53500000D03*
D16*
X39000000Y-53500000D03*
%TD*%
D18*
%TO.P,C209,1*%
%TO.N,Net-(J201-Pin_6)*%
X-26500000Y48317620D03*
D12*
%TO.P,C209,2*%
%TO.N,GND*%
X-26500000Y50817620D03*
%TD*%
D10*
%TO.P,R211,1*%
%TO.N,ADC2*%
X23190000Y42750000D03*
%TO.P,R211,2*%
%TO.N,Net-(U201B--)*%
X30810000Y42750000D03*
%TD*%
D18*
%TO.P,C210,1*%
%TO.N,Net-(J201-Pin_3)*%
X-26500000Y32150000D03*
D12*
%TO.P,C210,2*%
%TO.N,GND*%
X-26500000Y34650000D03*
%TD*%
D11*
%TO.P,D116,1,K*%
%TO.N,CH08*%
X25750000Y-12500000D03*
D12*
%TO.P,D116,2,A*%
%TO.N,GND*%
X33370000Y-12500000D03*
%TD*%
D10*
%TO.P,R112,1*%
%TO.N,Net-(J101-Pin_6)*%
X-32500000Y12500000D03*
%TO.P,R112,2*%
%TO.N,+3.3V*%
X-24880000Y12500000D03*
%TD*%
D14*
%TO.P,H210,1*%
%TO.N,N/C*%
X-15000000Y52500000D03*
D17*
X-15000000Y52500000D03*
%TD*%
D10*
%TO.P,R113,1*%
%TO.N,Net-(J102-Pin_2)*%
X-32560000Y-38000000D03*
%TO.P,R113,2*%
%TO.N,CH03*%
X-24940000Y-38000000D03*
%TD*%
D11*
%TO.P,D115,1,K*%
%TO.N,CH07*%
X25750000Y2500000D03*
D12*
%TO.P,D115,2,A*%
%TO.N,GND*%
X33370000Y2500000D03*
%TD*%
D19*
%TO.P,D201,1,K*%
%TO.N,+3.3V*%
X-5080000Y4000000D03*
D20*
%TO.P,D201,2,A*%
%TO.N,GND*%
X5080000Y4000000D03*
%TD*%
D11*
%TO.P,D108,1,K*%
%TO.N,+3.3V*%
X14250000Y-12500000D03*
D12*
%TO.P,D108,2,A*%
%TO.N,CH08*%
X21870000Y-12500000D03*
%TD*%
D10*
%TO.P,R118,1*%
%TO.N,Net-(J103-Pin_1)*%
X33370000Y-18000000D03*
%TO.P,R118,2*%
%TO.N,+3.3V*%
X25750000Y-18000000D03*
%TD*%
%TO.P,R116,1*%
%TO.N,Net-(J102-Pin_6)*%
X-32500000Y-18000000D03*
%TO.P,R116,2*%
%TO.N,+3.3V*%
X-24880000Y-18000000D03*
%TD*%
%TO.P,R208,1*%
%TO.N,Net-(C205-Pad1)*%
X1590000Y38400000D03*
%TO.P,R208,2*%
%TO.N,Net-(U201C--)*%
X9210000Y38400000D03*
%TD*%
D11*
%TO.P,D203,1,K*%
%TO.N,Net-(D202-A)*%
X-19310000Y23450000D03*
D12*
%TO.P,D203,2,A*%
%TO.N,GND*%
X-11690000Y23450000D03*
%TD*%
D10*
%TO.P,C212,1*%
%TO.N,Net-(U201A-+)*%
X38400000Y28900000D03*
%TO.P,C212,2*%
%TO.N,GND*%
X40900000Y28900000D03*
%TD*%
%TO.P,R204,1*%
%TO.N,Net-(U201A-+)*%
X30810000Y46250000D03*
%TO.P,R204,2*%
%TO.N,GND*%
X23190000Y46250000D03*
%TD*%
D21*
%TO.P,U201,1*%
%TO.N,Net-(U201A--)*%
X30800000Y23875000D03*
D12*
%TO.P,U201,2,-*%
X30800000Y26415000D03*
%TO.P,U201,3,+*%
%TO.N,Net-(U201A-+)*%
X30800000Y28955000D03*
%TO.P,U201,4,V+*%
%TO.N,+3.3V*%
X30800000Y31495000D03*
%TO.P,U201,5,+*%
%TO.N,Net-(U201A-+)*%
X30800000Y34035000D03*
%TO.P,U201,6,-*%
%TO.N,Net-(U201B--)*%
X30800000Y36575000D03*
%TO.P,U201,7*%
X30800000Y39115000D03*
%TO.P,U201,8*%
%TO.N,Net-(C205-Pad1)*%
X23180000Y39115000D03*
%TO.P,U201,9,-*%
%TO.N,Net-(U201C--)*%
X23180000Y36575000D03*
%TO.P,U201,10,+*%
%TO.N,Net-(U201A--)*%
X23180000Y34035000D03*
%TO.P,U201,11,V-*%
%TO.N,GND*%
X23180000Y31495000D03*
%TO.P,U201,12,+*%
%TO.N,Net-(U201A--)*%
X23180000Y28955000D03*
%TO.P,U201,13,-*%
%TO.N,Net-(U201D--)*%
X23180000Y26415000D03*
%TO.P,U201,14*%
%TO.N,Net-(C203-Pad1)*%
X23180000Y23875000D03*
%TD*%
D22*
%TO.P,A201,3V3,3.3V*%
%TO.N,+3.3V*%
X7620000Y-63400000D03*
%TO.P,A201,5V,5V*%
%TO.N,unconnected-(A201-Pad5V)*%
X7620000Y-38000000D03*
%TO.P,A201,A0,A0*%
%TO.N,ADC1*%
X7620000Y-58320000D03*
%TO.P,A201,A1,A1*%
%TO.N,ADC0*%
X7620000Y-55780000D03*
%TO.P,A201,A2,A2*%
%TO.N,ADC2*%
X7620000Y-53240000D03*
%TO.P,A201,A3,A3*%
%TO.N,unconnected-(A201-PadA3)*%
X7620000Y-50700000D03*
%TO.P,A201,A4,A4/SDA*%
%TO.N,Net-(A201-A4{slash}SDA)*%
X7620000Y-48160000D03*
%TO.P,A201,A5,A5/SCL*%
%TO.N,Net-(A201-A5{slash}SCL)*%
X7620000Y-45620000D03*
%TO.P,A201,A6,A6*%
%TO.N,unconnected-(A201-PadA6)*%
X7620000Y-43080000D03*
%TO.P,A201,A7,A7*%
%TO.N,unconnected-(A201-PadA7)*%
X7620000Y-40540000D03*
%TO.P,A201,B0,B0*%
%TO.N,unconnected-(A201-PadB0)*%
X7620000Y-60860000D03*
%TO.P,A201,B1,B1*%
%TO.N,Net-(JP201-A)*%
X7620000Y-35460000D03*
%TO.P,A201,D0,D0/RX*%
%TO.N,unconnected-(A201-D0{slash}RX-PadD0)*%
X-7620000Y-32920000D03*
%TO.P,A201,D1,D1/TX*%
%TO.N,unconnected-(A201-D1{slash}TX-PadD1)*%
X-7620000Y-30380000D03*
%TO.P,A201,D2,D2*%
%TO.N,CH02*%
X-7620000Y-40540000D03*
%TO.P,A201,D3,D3*%
%TO.N,CH01*%
X-7620000Y-43080000D03*
%TO.P,A201,D4,D4*%
%TO.N,CH04*%
X-7620000Y-45620000D03*
%TO.P,A201,D5,D5*%
%TO.N,CH03*%
X-7620000Y-48160000D03*
%TO.P,A201,D6,D6*%
%TO.N,CH07*%
X-7620000Y-50700000D03*
%TO.P,A201,D7,D7*%
%TO.N,CH08*%
X-7620000Y-53240000D03*
%TO.P,A201,D8,D8*%
%TO.N,CH05*%
X-7620000Y-55780000D03*
%TO.P,A201,D9,D9*%
%TO.N,CH06*%
X-7620000Y-58320000D03*
%TO.P,A201,D10,D10*%
%TO.N,unconnected-(A201-PadD10)*%
X-7620000Y-60860000D03*
%TO.P,A201,D11,D11_MOSI*%
%TO.N,unconnected-(A201-D11_MOSI-PadD11)*%
X-7620000Y-63400000D03*
%TO.P,A201,D12,D12_MISO*%
%TO.N,unconnected-(A201-D12_MISO-PadD12)*%
X-7620000Y-65940000D03*
%TO.P,A201,D13,D13_SCK*%
%TO.N,unconnected-(A201-D13_SCK-PadD13)*%
X7620000Y-65940000D03*
D23*
%TO.P,A201,GND1,GND*%
%TO.N,GND*%
X-7620000Y-38000000D03*
%TO.P,A201,GND2,GND*%
X7620000Y-32920000D03*
D22*
%TO.P,A201,RST,~{RESET}*%
%TO.N,unconnected-(A201-~{RESET}-PadRST)*%
X-7620000Y-35460000D03*
%TO.P,A201,VIN,VIN*%
%TO.N,unconnected-(A201-PadVIN)*%
X7620000Y-30380000D03*
%TD*%
D11*
%TO.P,D114,1,K*%
%TO.N,CH06*%
X25750000Y-43000000D03*
D12*
%TO.P,D114,2,A*%
%TO.N,GND*%
X33370000Y-43000000D03*
%TD*%
D10*
%TO.P,R111,1*%
%TO.N,Net-(J101-Pin_5)*%
X-32500000Y7600000D03*
%TO.P,R111,2*%
%TO.N,CH02*%
X-24880000Y7600000D03*
%TD*%
%TO.P,R102,1*%
%TO.N,+3.3V*%
X-11880000Y12500000D03*
%TO.P,R102,2*%
%TO.N,CH02*%
X-19500000Y12500000D03*
%TD*%
D18*
%TO.P,C202,1*%
%TO.N,+3.3V*%
X500000Y-7500000D03*
D12*
%TO.P,C202,2*%
%TO.N,GND*%
X500000Y-5000000D03*
%TD*%
D10*
%TO.P,R101,1*%
%TO.N,+3.3V*%
X-11880000Y-7500000D03*
%TO.P,R101,2*%
%TO.N,CH01*%
X-19500000Y-7500000D03*
%TD*%
D11*
%TO.P,D105,1,K*%
%TO.N,+3.3V*%
X14250000Y-28000000D03*
D12*
%TO.P,D105,2,A*%
%TO.N,CH05*%
X21870000Y-28000000D03*
%TD*%
D10*
%TO.P,R210,1*%
%TO.N,Net-(C205-Pad1)*%
X1590000Y43400000D03*
%TO.P,R210,2*%
%TO.N,ADC0*%
X9210000Y43400000D03*
%TD*%
%TO.P,R109,1*%
%TO.N,Net-(J101-Pin_2)*%
X-32500000Y-7500000D03*
%TO.P,R109,2*%
%TO.N,CH01*%
X-24880000Y-7500000D03*
%TD*%
%TO.P,R122,1*%
%TO.N,Net-(J104-Pin_1)*%
X33370000Y12500000D03*
%TO.P,R122,2*%
%TO.N,+3.3V*%
X25750000Y12500000D03*
%TD*%
%TO.P,C207,1*%
%TO.N,ADC1*%
X16300000Y33400000D03*
%TO.P,C207,2*%
%TO.N,GND*%
X18800000Y33400000D03*
%TD*%
%TO.P,C203,1*%
%TO.N,Net-(C203-Pad1)*%
X4000000Y28400000D03*
%TO.P,C203,2*%
%TO.N,Net-(U201D--)*%
X1500000Y28400000D03*
%TD*%
%TO.P,R201,1*%
%TO.N,+3.3V*%
X30810000Y49500000D03*
%TO.P,R201,2*%
%TO.N,Net-(U201A-+)*%
X23190000Y49500000D03*
%TD*%
D21*
%TO.P,C204,1*%
%TO.N,Net-(U201D--)*%
X-4500000Y28400000D03*
D12*
%TO.P,C204,2*%
%TO.N,Net-(D202-A)*%
X-7000000Y28400000D03*
%TD*%
D10*
%TO.P,R104,1*%
%TO.N,+3.3V*%
X-11880000Y-23000000D03*
%TO.P,R104,2*%
%TO.N,CH04*%
X-19500000Y-23000000D03*
%TD*%
%TO.P,R115,1*%
%TO.N,Net-(J102-Pin_5)*%
X-32500000Y-23000000D03*
%TO.P,R115,2*%
%TO.N,CH04*%
X-24880000Y-23000000D03*
%TD*%
D11*
%TO.P,D107,1,K*%
%TO.N,+3.3V*%
X14250000Y7500000D03*
D12*
%TO.P,D107,2,A*%
%TO.N,CH07*%
X21870000Y7500000D03*
%TD*%
D10*
%TO.P,R205,1*%
%TO.N,Net-(C203-Pad1)*%
X9070000Y23450000D03*
%TO.P,R205,2*%
%TO.N,Net-(U201D--)*%
X1450000Y23450000D03*
%TD*%
%TO.P,C201,1*%
%TO.N,+3.3V*%
X-1000000Y13000000D03*
%TO.P,C201,2*%
%TO.N,GND*%
X1500000Y13000000D03*
%TD*%
D24*
%TO.P,JP201,1,A*%
%TO.N,Net-(JP201-A)*%
X20750000Y-53250000D03*
D25*
%TO.P,JP201,2,B*%
%TO.N,GND*%
X23290000Y-53250000D03*
%TD*%
D11*
%TO.P,D101,1,K*%
%TO.N,+3.3V*%
X-32500000Y-12400000D03*
D12*
%TO.P,D101,2,A*%
%TO.N,CH01*%
X-24880000Y-12400000D03*
%TD*%
D10*
%TO.P,R207,1*%
%TO.N,Net-(C203-Pad1)*%
X1440000Y33400000D03*
%TO.P,R207,2*%
%TO.N,ADC1*%
X9060000Y33400000D03*
%TD*%
D13*
%TO.P,J201,1,Pin_1*%
%TO.N,GND*%
X-44300000Y18400000D03*
D14*
%TO.P,J201,2,Pin_2*%
%TO.N,Net-(J201-Pin_2)*%
X-44300000Y23400000D03*
%TO.P,J201,3,Pin_3*%
%TO.N,Net-(J201-Pin_3)*%
X-44300000Y28400000D03*
%TO.P,J201,4,Pin_4*%
%TO.N,GND*%
X-44300000Y33400000D03*
%TO.P,J201,5,Pin_5*%
%TO.N,Net-(J201-Pin_5)*%
X-44300000Y38400000D03*
%TO.P,J201,6,Pin_6*%
%TO.N,Net-(J201-Pin_6)*%
X-44300000Y43400000D03*
%TD*%
D21*
%TO.P,C206,1*%
%TO.N,Net-(U201C--)*%
X-4571144Y38400000D03*
D12*
%TO.P,C206,2*%
%TO.N,Net-(D204-A)*%
X-7071144Y38400000D03*
%TD*%
D24*
%TO.P,Brd201,1,GND*%
%TO.N,GND*%
X-3800000Y54000000D03*
D25*
%TO.P,Brd201,2,VCC*%
%TO.N,+3.3V*%
X-1260000Y54000000D03*
%TO.P,Brd201,3,SCL*%
%TO.N,Net-(A201-A5{slash}SCL)*%
X1280000Y54000000D03*
%TO.P,Brd201,4,SDA*%
%TO.N,Net-(A201-A4{slash}SDA)*%
X3820000Y54000000D03*
%TD*%
D10*
%TO.P,R121,1*%
%TO.N,Net-(J104-Pin_2)*%
X33370000Y7500000D03*
%TO.P,R121,2*%
%TO.N,CH07*%
X25750000Y7500000D03*
%TD*%
D11*
%TO.P,D113,1,K*%
%TO.N,CH05*%
X25750000Y-28000000D03*
D12*
%TO.P,D113,2,A*%
%TO.N,GND*%
X33370000Y-28000000D03*
%TD*%
D14*
%TO.P,H212,1*%
%TO.N,N/C*%
X-12750000Y28500000D03*
D17*
X-12750000Y28500000D03*
%TD*%
D10*
%TO.P,R202,1*%
%TO.N,+3.3V*%
X-24830000Y43400000D03*
%TO.P,R202,2*%
%TO.N,Net-(J201-Pin_6)*%
X-32450000Y43400000D03*
%TD*%
D14*
%TO.P,H213,1*%
%TO.N,N/C*%
X15000000Y25500000D03*
D17*
X15000000Y25500000D03*
%TD*%
D15*
%TO.P,H207,1*%
%TO.N,N/C*%
X-39000000Y-53500000D03*
D16*
X-39000000Y-53500000D03*
%TD*%
D10*
%TO.P,R206,1*%
%TO.N,Net-(D202-A)*%
X-24880000Y23450000D03*
%TO.P,R206,2*%
%TO.N,Net-(J201-Pin_2)*%
X-32500000Y23450000D03*
%TD*%
%TO.P,R106,1*%
%TO.N,+3.3V*%
X14250000Y-38000000D03*
%TO.P,R106,2*%
%TO.N,CH06*%
X21870000Y-38000000D03*
%TD*%
%TO.P,R123,1*%
%TO.N,Net-(J104-Pin_5)*%
X33370000Y-7500000D03*
%TO.P,R123,2*%
%TO.N,CH08*%
X25750000Y-7500000D03*
%TD*%
%TO.P,R108,1*%
%TO.N,+3.3V*%
X14250000Y-7500000D03*
%TO.P,R108,2*%
%TO.N,CH08*%
X21870000Y-7500000D03*
%TD*%
D11*
%TO.P,D111,1,K*%
%TO.N,CH03*%
X-19500000Y-43000000D03*
D12*
%TO.P,D111,2,A*%
%TO.N,GND*%
X-11880000Y-43000000D03*
%TD*%
D11*
%TO.P,D110,1,K*%
%TO.N,CH02*%
X-19500000Y7500000D03*
D12*
%TO.P,D110,2,A*%
%TO.N,GND*%
X-11880000Y7500000D03*
%TD*%
D10*
%TO.P,R117,1*%
%TO.N,Net-(J103-Pin_2)*%
X33370000Y-23000000D03*
%TO.P,R117,2*%
%TO.N,CH05*%
X25750000Y-23000000D03*
%TD*%
D26*
%TO.N,ADC1*%
X3250000Y-15000000D03*
X0Y-21000000D03*
%TO.N,ADC0*%
X1500000Y-21000000D03*
X5000000Y-15000000D03*
%TO.N,CH07*%
X-4750000Y-35000000D03*
%TO.N,CH05*%
X-1250000Y-35000000D03*
%TO.N,Net-(A201-A5{slash}SCL)*%
X18000000Y-15250000D03*
X10312500Y-21062500D03*
%TO.N,CH08*%
X-3000000Y-35000000D03*
%TO.N,Net-(A201-A4{slash}SDA)*%
X11750000Y-21000000D03*
X18000000Y-16500000D03*
%TO.N,ADC2*%
X6750000Y-15000000D03*
X3000000Y-21000000D03*
%TD*%
D27*
%TO.N,ADC1*%
X0Y-50700000D02*
X0Y-21000000D01*
X3250000Y24250000D02*
X9060000Y30060000D01*
X9060000Y33400000D02*
X9060000Y30060000D01*
X7620000Y-58320000D02*
X0Y-50700000D01*
X3250000Y-15000000D02*
X3250000Y24250000D01*
%TO.N,ADC0*%
X6750000Y-13250000D02*
X6750000Y26000000D01*
X11850000Y31100000D02*
X11850000Y40810000D01*
X7620000Y-55780000D02*
X1500000Y-49660000D01*
X1500000Y-49660000D02*
X1500000Y-21000000D01*
X16300000Y43400000D02*
X9210000Y43400000D01*
X5000000Y-15000000D02*
X6750000Y-13250000D01*
X11850000Y40810000D02*
X9210000Y43450000D01*
X6750000Y26000000D02*
X11850000Y31100000D01*
%TO.N,CH07*%
X-4750000Y-35000000D02*
X-4750000Y-47830000D01*
X25750000Y7500000D02*
X25750000Y2500000D01*
X-4750000Y-47830000D02*
X-7620000Y-50700000D01*
X21870000Y7500000D02*
X21870000Y12500000D01*
X25750000Y7500000D02*
X21870000Y7500000D01*
%TO.N,CH03*%
X-14340000Y-48160000D02*
X-19500000Y-43000000D01*
X-7620000Y-48160000D02*
X-14340000Y-48160000D01*
X-24880000Y-43000000D02*
X-19500000Y-43000000D01*
X-24940000Y-38000000D02*
X-24940000Y-42940000D01*
X-19500000Y-43000000D02*
X-19500000Y-38000000D01*
%TO.N,CH06*%
X21870000Y-43000000D02*
X25750000Y-43000000D01*
X21870000Y-38000000D02*
X21870000Y-43000000D01*
X25750000Y-38000000D02*
X21870000Y-38000000D01*
D28*
%TO.N,+3.3V*%
X-21950000Y36040000D02*
X-19310000Y33400000D01*
X-28850000Y-2400000D02*
X-29000000Y-2250000D01*
X33550000Y46760000D02*
X33550000Y34245000D01*
X14250000Y-12500000D02*
X14250000Y-7500000D01*
X14250000Y-38000000D02*
X14250000Y-33000000D01*
X25690000Y-2500000D02*
X14250000Y-2500000D01*
X-22600000Y28350000D02*
X-24880000Y28350000D01*
X25750000Y19000000D02*
X30750000Y19000000D01*
X14250000Y-7500000D02*
X14250000Y-2500000D01*
X-5080000Y-7500000D02*
X-5080000Y4000000D01*
X-29250000Y2500000D02*
X-29000000Y2750000D01*
X-19310000Y31640000D02*
X-22600000Y28350000D01*
X14250000Y-43000000D02*
X14250000Y-59500000D01*
X14250000Y-33000000D02*
X14250000Y-28000000D01*
X-29000000Y-2250000D02*
X-29000000Y2750000D01*
X17750000Y19000000D02*
X25750000Y19000000D01*
X-32500000Y-43000000D02*
X-29750000Y-43000000D01*
X-19200000Y43400000D02*
X-19200000Y45425000D01*
X-19310000Y33400000D02*
X-19310000Y31640000D01*
X14250000Y-28000000D02*
X14250000Y-23000000D01*
X-1260000Y51990000D02*
X-1260000Y54000000D01*
X14250000Y-43000000D02*
X14250000Y-38000000D01*
X-5080000Y4000000D02*
X-5080000Y8920000D01*
X30810000Y49500000D02*
X33550000Y46760000D01*
X30750000Y19000000D02*
X33000000Y21250000D01*
X14250000Y-59500000D02*
X10250000Y-63500000D01*
X-24880000Y12500000D02*
X-29000000Y12500000D01*
X-29000000Y-27750000D02*
X-29000000Y-18250000D01*
X-19200000Y43400000D02*
X-24830000Y43400000D01*
X-32500000Y2500000D02*
X-29250000Y2500000D01*
X14250000Y15500000D02*
X17750000Y19000000D01*
X-29000000Y2750000D02*
X-29000000Y12500000D01*
X14250000Y7500000D02*
X14250000Y12500000D01*
X33000000Y29295000D02*
X30800000Y31495000D01*
X-29150000Y-12400000D02*
X-29000000Y-12250000D01*
X-15875000Y48750000D02*
X-4500000Y48750000D01*
X-4500000Y48750000D02*
X-1260000Y51990000D01*
X-29000000Y-42250000D02*
X-29000000Y-33000000D01*
X-19200000Y45425000D02*
X-15875000Y48750000D01*
X-11880000Y-7500000D02*
X-5080000Y-7500000D01*
X-32500000Y-12400000D02*
X-29150000Y-12400000D01*
X-24880000Y-2400000D02*
X-28850000Y-2400000D01*
X33000000Y21250000D02*
X33000000Y29295000D01*
X-5080000Y8920000D02*
X-1000000Y13000000D01*
X-32500000Y-28000000D02*
X-29250000Y-28000000D01*
X500000Y-15500000D02*
X500000Y-7500000D01*
X14250000Y12500000D02*
X14250000Y15500000D01*
X3000000Y-18000000D02*
X500000Y-15500000D01*
X14250000Y-2500000D02*
X14250000Y7500000D01*
X-29000000Y24230000D02*
X-29000000Y12500000D01*
X14250000Y-23000000D02*
X14250000Y-12500000D01*
X-19200000Y43400000D02*
X-21950000Y40650000D01*
X-24880000Y-18000000D02*
X-28750000Y-18000000D01*
X-29000000Y-33000000D02*
X-29000000Y-27750000D01*
X25750000Y-18000000D02*
X3000000Y-18000000D01*
X-28750000Y-18000000D02*
X-29000000Y-18250000D01*
X-24880000Y28350000D02*
X-29000000Y24230000D01*
X-21950000Y40650000D02*
X-21950000Y36040000D01*
X-29250000Y-28000000D02*
X-29000000Y-27750000D01*
X25750000Y12500000D02*
X25750000Y19000000D01*
X-29000000Y-12250000D02*
X-29000000Y-2250000D01*
X500000Y-7500000D02*
X-5080000Y-7500000D01*
X-29750000Y-43000000D02*
X-29000000Y-42250000D01*
X-24890000Y-33000000D02*
X-29000000Y-33000000D01*
X25750000Y-33000000D02*
X14250000Y-33000000D01*
X33550000Y34245000D02*
X30800000Y31495000D01*
X10250000Y-63500000D02*
X7698000Y-63500000D01*
X-29000000Y-18250000D02*
X-29000000Y-12250000D01*
D27*
%TO.N,CH02*%
X-19500000Y12500000D02*
X-19500000Y7500000D01*
X-24880000Y7600000D02*
X-19600000Y7600000D01*
X-15500000Y-6880000D02*
X-24880000Y2500000D01*
X-7620000Y-40540000D02*
X-15500000Y-32660000D01*
X-24880000Y7600000D02*
X-24880000Y2500000D01*
X-15500000Y-32660000D02*
X-15500000Y-6880000D01*
%TO.N,CH04*%
X-19500000Y-23000000D02*
X-19500000Y-28000000D01*
X-19500000Y-28000000D02*
X-18000000Y-29500000D01*
X-24880000Y-23000000D02*
X-24880000Y-28000000D01*
X-18000000Y-29500000D02*
X-18000000Y-40250000D01*
X-12630000Y-45620000D02*
X-7620000Y-45620000D01*
X-24880000Y-28000000D02*
X-19500000Y-28000000D01*
X-18000000Y-40250000D02*
X-12630000Y-45620000D01*
D28*
%TO.N,GND*%
X20650000Y31550000D02*
X23125000Y31550000D01*
X18800000Y33400000D02*
X20650000Y31550000D01*
X18800000Y33400000D02*
X18800000Y43400000D01*
D27*
%TO.N,CH05*%
X21870000Y-28000000D02*
X25750000Y-28000000D01*
X21870000Y-23000000D02*
X21870000Y-28000000D01*
X-1250000Y-49410000D02*
X-7620000Y-55780000D01*
X-1250000Y-35000000D02*
X-1250000Y-49410000D01*
X25750000Y-23000000D02*
X21870000Y-23000000D01*
%TO.N,CH01*%
X-19500707Y-12499293D02*
X-16750000Y-15250000D01*
X-16750000Y-35000000D02*
X-8670000Y-43080000D01*
X-24880000Y-12400000D02*
X-24880000Y-7500000D01*
X-16750000Y-15250000D02*
X-16750000Y-35000000D01*
X-19500000Y-7500000D02*
X-19500000Y-12498586D01*
X-8670000Y-43080000D02*
X-7620000Y-43080000D01*
X-24880000Y-12400000D02*
X-19600000Y-12400000D01*
%TO.N,Net-(A201-A5{slash}SCL)*%
X28750000Y12000000D02*
X35500000Y18750000D01*
X26000000Y56250000D02*
X20750000Y56250000D01*
X26250000Y-15250000D02*
X28750000Y-12750000D01*
X10250000Y-21125000D02*
X10250000Y-42990000D01*
X35500000Y46750000D02*
X26000000Y56250000D01*
X5280000Y50000000D02*
X1280000Y54000000D01*
X10312500Y-21062500D02*
X10250000Y-21125000D01*
X35500000Y18750000D02*
X35500000Y46750000D01*
X28750000Y-12750000D02*
X28750000Y12000000D01*
X14500000Y50000000D02*
X5280000Y50000000D01*
X18000000Y-15250000D02*
X26250000Y-15250000D01*
X10250000Y-42990000D02*
X7620000Y-45620000D01*
X20750000Y56250000D02*
X14500000Y50000000D01*
%TO.N,CH08*%
X-3000000Y-48620000D02*
X-7620000Y-53240000D01*
X25750000Y-7500000D02*
X21870000Y-7500000D01*
X21870000Y-12500000D02*
X21870000Y-7500000D01*
X-3000000Y-35000000D02*
X-3000000Y-48620000D01*
X25750000Y-12500000D02*
X21870000Y-12500000D01*
%TO.N,Net-(A201-A4{slash}SDA)*%
X36750000Y47500000D02*
X26750000Y57500000D01*
X3820000Y55820000D02*
X3820000Y54000000D01*
X18000000Y-16500000D02*
X26500000Y-16500000D01*
X11750000Y-21000000D02*
X11750000Y-44208000D01*
X29750000Y-13250000D02*
X29750000Y11500000D01*
X11750000Y-44208000D02*
X7620000Y-48338000D01*
X26750000Y57500000D02*
X5500000Y57500000D01*
X36750000Y18500000D02*
X36750000Y47500000D01*
X29750000Y11500000D02*
X36750000Y18500000D01*
X5500000Y57500000D02*
X3820000Y55820000D01*
X26500000Y-16500000D02*
X29750000Y-13250000D01*
%TO.N,Net-(D202-A)*%
X-19310000Y28490000D02*
X-14400000Y33400000D01*
X-11690000Y33400000D02*
X-7000000Y28710000D01*
X-19310000Y23450000D02*
X-19310000Y28490000D01*
X-14400000Y33400000D02*
X-11690000Y33400000D01*
X-24880000Y23450000D02*
X-19310000Y23450000D01*
%TO.N,Net-(U201C--)*%
X-4571144Y35828856D02*
X-7000000Y33400000D01*
X-4571144Y38400000D02*
X-4571144Y35828856D01*
X6560000Y41000000D02*
X9210000Y38350000D01*
X-1900000Y41000000D02*
X6560000Y41000000D01*
X-4500000Y38400000D02*
X-1900000Y41000000D01*
%TO.N,Net-(C203-Pad1)*%
X1440000Y30560000D02*
X4000000Y28000000D01*
X1440000Y33400000D02*
X1440000Y30560000D01*
%TO.N,Net-(D204-A)*%
X-11580000Y43400000D02*
X-9300000Y43400000D01*
X-15800000Y43400000D02*
X-19310000Y39890000D01*
X-7071144Y41171144D02*
X-9300000Y43400000D01*
X-7071144Y38400000D02*
X-7071144Y41171144D01*
X-19310000Y39890000D02*
X-19310000Y38400000D01*
X-11580000Y43400000D02*
X-15800000Y43400000D01*
%TO.N,Net-(C205-Pad1)*%
X850000Y38350000D02*
X1590000Y38350000D01*
X-4500000Y33000000D02*
X850000Y38350000D01*
D28*
%TO.N,Net-(J101-Pin_3)*%
X-32500000Y-2400000D02*
X-44125000Y-2400000D01*
%TO.N,Net-(J201-Pin_6)*%
X-32450000Y43400000D02*
X-44250000Y43400000D01*
X-32450000Y43400000D02*
X-32450000Y44650000D01*
X-32450000Y44650000D02*
X-28782380Y48317620D01*
X-28782380Y48317620D02*
X-26500000Y48317620D01*
%TO.N,Net-(J201-Pin_3)*%
X-32500000Y28350000D02*
X-32500000Y29600000D01*
X-29950000Y32150000D02*
X-26500000Y32150000D01*
X-44300000Y28450000D02*
X-32600000Y28450000D01*
X-32500000Y29600000D02*
X-29950000Y32150000D01*
D27*
%TO.N,Net-(J101-Pin_5)*%
X-32500000Y7600000D02*
X-44343000Y7600000D01*
%TO.N,Net-(J101-Pin_2)*%
X-44300000Y-7225000D02*
X-32775000Y-7225000D01*
%TO.N,Net-(J102-Pin_2)*%
X-32560000Y-38000000D02*
X-44372000Y-38000000D01*
%TO.N,Net-(J102-Pin_5)*%
X-32500000Y-23000000D02*
X-44372000Y-23000000D01*
%TO.N,Net-(J103-Pin_2)*%
X33370000Y-23000000D02*
X44303000Y-23000000D01*
%TO.N,Net-(J103-Pin_5)*%
X33370000Y-38000000D02*
X44303000Y-38000000D01*
%TO.N,Net-(J104-Pin_5)*%
X33370000Y-7500000D02*
X44257000Y-7500000D01*
%TO.N,Net-(J104-Pin_2)*%
X33370000Y7500000D02*
X44257000Y7500000D01*
%TO.N,Net-(J201-Pin_5)*%
X-32600000Y38450000D02*
X-44300000Y38450000D01*
%TO.N,Net-(J201-Pin_2)*%
X-32500000Y23450000D02*
X-44300000Y23450000D01*
D28*
%TO.N,Net-(J101-Pin_6)*%
X-32500000Y12500000D02*
X-44025000Y12500000D01*
%TO.N,Net-(J102-Pin_3)*%
X-32510000Y-33000000D02*
X-44372000Y-33000000D01*
%TO.N,Net-(J102-Pin_6)*%
X-32500000Y-18000000D02*
X-44372000Y-18000000D01*
%TO.N,Net-(J103-Pin_4)*%
X33370000Y-33000000D02*
X44303000Y-33000000D01*
%TO.N,Net-(J103-Pin_1)*%
X33370000Y-18000000D02*
X44303000Y-18000000D01*
%TO.N,Net-(J104-Pin_4)*%
X33310000Y-2500000D02*
X44257000Y-2500000D01*
%TO.N,Net-(J104-Pin_1)*%
X33370000Y12500000D02*
X44257000Y12500000D01*
D27*
%TO.N,ADC2*%
X14000000Y21000000D02*
X8000000Y15000000D01*
X27000000Y24250000D02*
X23750000Y21000000D01*
X23190000Y42750000D02*
X27000000Y38940000D01*
X23750000Y21000000D02*
X14000000Y21000000D01*
X27000000Y38940000D02*
X27000000Y24250000D01*
X3000000Y-48620000D02*
X7620000Y-53240000D01*
X8000000Y13000000D02*
X8000000Y-13750000D01*
X6750000Y-15000000D02*
X8000000Y-13750000D01*
X8000000Y15000000D02*
X8000000Y13000000D01*
X3000000Y-21000000D02*
X3000000Y-48620000D01*
%TD*%
%TA.AperFunction,Conductor*%
%TO.N,ADC0*%
G36*
X6487978Y-54501977D02*
G01*
X7778680Y-54929746D01*
X7785454Y-54935601D01*
X7786475Y-54943123D01*
X7622227Y-55773022D01*
X7617260Y-55780472D01*
X7613022Y-55782227D01*
X6783123Y-55946475D01*
X6774341Y-55944720D01*
X6769746Y-55938680D01*
X6341978Y-54647979D01*
X6342628Y-54639049D01*
X6344808Y-54636029D01*
X6476027Y-54504810D01*
X6484299Y-54501384D01*
X6487978Y-54501977D01*
G37*
%TD.AperFunction*%
%TD*%
%TA.AperFunction,Conductor*%
%TO.N,Net-(J201-Pin_5)*%
G36*
X-43486317Y39412708D02*
G01*
X-42016916Y38553388D01*
X-42011504Y38546254D01*
X-42011122Y38543289D01*
X-42011122Y38356385D01*
X-42014549Y38348112D01*
X-42016490Y38346546D01*
X-43450532Y37423664D01*
X-43459344Y37422069D01*
X-43465745Y37425887D01*
X-44255166Y38346546D01*
X-44294724Y38392681D01*
X-44297508Y38401192D01*
X-44295016Y38407558D01*
X-43501394Y39409871D01*
X-43493572Y39414229D01*
X-43486317Y39412708D01*
G37*
%TD.AperFunction*%
%TD*%
%TA.AperFunction,Conductor*%
%TO.N,Net-(D204-A)*%
G36*
X-6970130Y39981201D02*
G01*
X-6967920Y39978124D01*
X-6410530Y38853658D01*
X-6409926Y38844724D01*
X-6414503Y38838741D01*
X-7064634Y38403360D01*
X-7073415Y38401603D01*
X-7077654Y38403360D01*
X-7727786Y38838741D01*
X-7732754Y38846191D01*
X-7731759Y38853658D01*
X-7174368Y39978124D01*
X-7167623Y39984015D01*
X-7163885Y39984628D01*
X-6978403Y39984628D01*
X-6970130Y39981201D01*
G37*
%TD.AperFunction*%
%TD*%
%TA.AperFunction,Conductor*%
%TO.N,CH07*%
G36*
X25756510Y7496639D02*
G01*
X26323583Y7116759D01*
X26328549Y7109308D01*
X26327606Y7101949D01*
X25853194Y6120060D01*
X25846509Y6114102D01*
X25842659Y6113450D01*
X25657341Y6113450D01*
X25649068Y6116877D01*
X25646806Y6120060D01*
X25172393Y7101949D01*
X25171880Y7110889D01*
X25176414Y7116758D01*
X25743488Y7496639D01*
X25752269Y7498396D01*
X25756510Y7496639D01*
G37*
%TD.AperFunction*%
%TD*%
%TA.AperFunction,Conductor*%
%TO.N,CH06*%
G36*
X25030247Y-42280237D02*
G01*
X25742709Y-42991721D01*
X25746142Y-42999992D01*
X25742721Y-43008267D01*
X25742709Y-43008279D01*
X25030247Y-43719762D01*
X25021972Y-43723183D01*
X25015158Y-43720988D01*
X24154878Y-43103501D01*
X24150155Y-43095893D01*
X24150000Y-43093996D01*
X24150000Y-42906003D01*
X24153427Y-42897730D01*
X24154872Y-42896502D01*
X25015159Y-42279010D01*
X25023877Y-42276971D01*
X25030247Y-42280237D01*
G37*
%TD.AperFunction*%
%TD*%
%TA.AperFunction,Conductor*%
%TO.N,CH02*%
G36*
X-19493490Y12496639D02*
G01*
X-18926417Y12116759D01*
X-18921451Y12109308D01*
X-18922394Y12101949D01*
X-19396806Y11120060D01*
X-19403491Y11114102D01*
X-19407341Y11113450D01*
X-19592659Y11113450D01*
X-19600932Y11116877D01*
X-19603194Y11120060D01*
X-20077607Y12101949D01*
X-20078120Y12110889D01*
X-20073586Y12116758D01*
X-19506512Y12496639D01*
X-19497731Y12498396D01*
X-19493490Y12496639D01*
G37*
%TD.AperFunction*%
%TD*%
%TA.AperFunction,Conductor*%
%TO.N,GND*%
G36*
X19298189Y34783123D02*
G01*
X19301488Y34776577D01*
X19484906Y33547575D01*
X19482738Y33538887D01*
X19475633Y33534376D01*
X18802299Y33399461D01*
X18797701Y33399461D01*
X18124366Y33534376D01*
X18116928Y33539361D01*
X18115093Y33547575D01*
X18298512Y34776577D01*
X18303123Y34784254D01*
X18310084Y34786550D01*
X19289916Y34786550D01*
X19298189Y34783123D01*
G37*
%TD.AperFunction*%
%TD*%
%TA.AperFunction,Conductor*%
%TO.N,Net-(J101-Pin_5)*%
G36*
X-43432167Y8657676D02*
G01*
X-42016282Y7703478D01*
X-42011338Y7696014D01*
X-42011122Y7693777D01*
X-42011122Y7506887D01*
X-42014549Y7498614D01*
X-42017142Y7496658D01*
X-43506503Y6669663D01*
X-43515400Y6668643D01*
X-43521503Y6672819D01*
X-44295174Y7692323D01*
X-44297446Y7700985D01*
X-44294583Y7707187D01*
X-43447431Y8655768D01*
X-43439366Y8659655D01*
X-43432167Y8657676D01*
G37*
%TD.AperFunction*%
%TD*%
%TA.AperFunction,Conductor*%
%TO.N,Net-(J201-Pin_2)*%
G36*
X-43486317Y24412708D02*
G01*
X-42016916Y23553388D01*
X-42011504Y23546254D01*
X-42011122Y23543289D01*
X-42011122Y23356385D01*
X-42014549Y23348112D01*
X-42016490Y23346546D01*
X-43450532Y22423664D01*
X-43459344Y22422069D01*
X-43465745Y22425887D01*
X-44255166Y23346546D01*
X-44294724Y23392681D01*
X-44297508Y23401192D01*
X-44295016Y23407558D01*
X-43501394Y24409871D01*
X-43493572Y24414229D01*
X-43486317Y24412708D01*
G37*
%TD.AperFunction*%
%TD*%
%TA.AperFunction,Conductor*%
%TO.N,Net-(J104-Pin_5)*%
G36*
X33768051Y-6922393D02*
G01*
X33989794Y-7029531D01*
X34749940Y-7396806D01*
X34755898Y-7403491D01*
X34756550Y-7407341D01*
X34756550Y-7592658D01*
X34753123Y-7600931D01*
X34749940Y-7603193D01*
X33768051Y-8077606D01*
X33759111Y-8078119D01*
X33753241Y-8073583D01*
X33373361Y-7506511D01*
X33371604Y-7497731D01*
X33373362Y-7493488D01*
X33753242Y-6926415D01*
X33760692Y-6921450D01*
X33768051Y-6922393D01*
G37*
%TD.AperFunction*%
%TD*%
%TA.AperFunction,Conductor*%
%TO.N,Net-(J101-Pin_6)*%
G36*
X-43394830Y13621681D02*
G01*
X-43389278Y13619172D01*
X-42026126Y13003110D01*
X-42019999Y12996581D01*
X-42019245Y12992449D01*
X-42019245Y12009253D01*
X-42022672Y12000980D01*
X-42028248Y11997868D01*
X-43563840Y11634092D01*
X-43572680Y11635520D01*
X-43576198Y11638878D01*
X-44295608Y12692106D01*
X-44297445Y12700870D01*
X-44294341Y12706855D01*
X-43408039Y13619173D01*
X-43399817Y13622718D01*
X-43394830Y13621681D01*
G37*
%TD.AperFunction*%
%TD*%
%TA.AperFunction,Conductor*%
%TO.N,+3.3V*%
G36*
X-25028887Y-32317261D02*
G01*
X-25024376Y-32324366D01*
X-24889461Y-32997701D01*
X-24889461Y-33002299D01*
X-25024376Y-33675633D01*
X-25029361Y-33683071D01*
X-25037575Y-33684906D01*
X-26266577Y-33501488D01*
X-26274254Y-33496877D01*
X-26276550Y-33489916D01*
X-26276550Y-32510083D01*
X-26273123Y-32501810D01*
X-26266579Y-32498511D01*
X-25037574Y-32315093D01*
X-25028887Y-32317261D01*
G37*
%TD.AperFunction*%
%TD*%
%TA.AperFunction,Conductor*%
%TO.N,Net-(J201-Pin_2)*%
G36*
X-32883242Y24023584D02*
G01*
X-32503363Y23456512D01*
X-32501605Y23447731D01*
X-32503363Y23443488D01*
X-32883242Y22876417D01*
X-32890693Y22871451D01*
X-32898052Y22872394D01*
X-33879940Y23346807D01*
X-33885898Y23353492D01*
X-33886550Y23357342D01*
X-33886550Y23542659D01*
X-33883123Y23550932D01*
X-33879942Y23553194D01*
X-32898052Y24027608D01*
X-32889112Y24028120D01*
X-32883242Y24023584D01*
G37*
%TD.AperFunction*%
%TD*%
%TA.AperFunction,Conductor*%
%TO.N,CH01*%
G36*
X-24873490Y-7503361D02*
G01*
X-24306417Y-7883241D01*
X-24301451Y-7890692D01*
X-24302394Y-7898051D01*
X-24776806Y-8879940D01*
X-24783491Y-8885898D01*
X-24787341Y-8886550D01*
X-24972659Y-8886550D01*
X-24980932Y-8883123D01*
X-24983194Y-8879940D01*
X-25457607Y-7898051D01*
X-25458120Y-7889111D01*
X-25453586Y-7883242D01*
X-24886512Y-7503361D01*
X-24877731Y-7501604D01*
X-24873490Y-7503361D01*
G37*
%TD.AperFunction*%
%TD*%
%TA.AperFunction,Conductor*%
%TO.N,CH04*%
G36*
X-24873490Y-23003361D02*
G01*
X-24306417Y-23383241D01*
X-24301451Y-23390692D01*
X-24302394Y-23398051D01*
X-24776806Y-24379940D01*
X-24783491Y-24385898D01*
X-24787341Y-24386550D01*
X-24972659Y-24386550D01*
X-24980932Y-24383123D01*
X-24983194Y-24379940D01*
X-25457607Y-23398051D01*
X-25458120Y-23389111D01*
X-25453586Y-23383242D01*
X-24886512Y-23003361D01*
X-24877731Y-23001604D01*
X-24873490Y-23003361D01*
G37*
%TD.AperFunction*%
%TD*%
%TA.AperFunction,Conductor*%
%TO.N,Net-(A201-A4{slash}SDA)*%
G36*
X12030930Y-21055835D02*
G01*
X12038358Y-21060834D01*
X12040077Y-21069622D01*
X12039608Y-21071290D01*
X11852796Y-21586524D01*
X11846755Y-21593134D01*
X11841797Y-21594236D01*
X11658203Y-21594236D01*
X11649930Y-21590809D01*
X11647204Y-21586524D01*
X11599544Y-21455078D01*
X11460391Y-21071288D01*
X11460792Y-21062344D01*
X11467402Y-21056303D01*
X11469056Y-21055837D01*
X11747682Y-20999469D01*
X11752318Y-20999469D01*
X12030930Y-21055835D01*
G37*
%TD.AperFunction*%
%TD*%
%TA.AperFunction,Conductor*%
%TO.N,CH04*%
G36*
X-19493490Y-23003361D02*
G01*
X-18926417Y-23383241D01*
X-18921451Y-23390692D01*
X-18922394Y-23398051D01*
X-19396806Y-24379940D01*
X-19403491Y-24385898D01*
X-19407341Y-24386550D01*
X-19592659Y-24386550D01*
X-19600932Y-24383123D01*
X-19603194Y-24379940D01*
X-20077607Y-23398051D01*
X-20078120Y-23389111D01*
X-20073586Y-23383242D01*
X-19506512Y-23003361D01*
X-19497731Y-23001604D01*
X-19493490Y-23003361D01*
G37*
%TD.AperFunction*%
%TD*%
%TA.AperFunction,Conductor*%
%TO.N,+3.3V*%
G36*
X14925634Y12365625D02*
G01*
X14933071Y12360640D01*
X14934906Y12352426D01*
X14751488Y11123423D01*
X14746877Y11115746D01*
X14739916Y11113450D01*
X13760084Y11113450D01*
X13751811Y11116877D01*
X13748512Y11123423D01*
X13565093Y12352426D01*
X13567261Y12361114D01*
X13574364Y12365624D01*
X14247704Y12500540D01*
X14252296Y12500540D01*
X14925634Y12365625D01*
G37*
%TD.AperFunction*%
%TD*%
%TA.AperFunction,Conductor*%
%TO.N,Net-(J103-Pin_5)*%
G36*
X33768051Y-37422393D02*
G01*
X33989794Y-37529531D01*
X34749940Y-37896806D01*
X34755898Y-37903491D01*
X34756550Y-37907341D01*
X34756550Y-38092658D01*
X34753123Y-38100931D01*
X34749940Y-38103193D01*
X33768051Y-38577606D01*
X33759111Y-38578119D01*
X33753241Y-38573583D01*
X33373361Y-38006511D01*
X33371604Y-37997731D01*
X33373362Y-37993488D01*
X33753242Y-37426415D01*
X33760692Y-37421450D01*
X33768051Y-37422393D01*
G37*
%TD.AperFunction*%
%TD*%
%TA.AperFunction,Conductor*%
%TO.N,CH03*%
G36*
X-19493490Y-38003361D02*
G01*
X-18926417Y-38383241D01*
X-18921451Y-38390692D01*
X-18922394Y-38398051D01*
X-19396806Y-39379940D01*
X-19403491Y-39385898D01*
X-19407341Y-39386550D01*
X-19592659Y-39386550D01*
X-19600932Y-39383123D01*
X-19603194Y-39379940D01*
X-20077607Y-38398051D01*
X-20078120Y-38389111D01*
X-20073586Y-38383242D01*
X-19506512Y-38003361D01*
X-19497731Y-38001604D01*
X-19493490Y-38003361D01*
G37*
%TD.AperFunction*%
%TD*%
%TA.AperFunction,Conductor*%
%TO.N,CH08*%
G36*
X-6479050Y-51962628D02*
G01*
X-6476027Y-51964811D01*
X-6344812Y-52096026D01*
X-6341385Y-52104299D01*
X-6341979Y-52107980D01*
X-6769746Y-53398679D01*
X-6775602Y-53405454D01*
X-6783124Y-53406475D01*
X-7613023Y-53242227D01*
X-7620473Y-53237260D01*
X-7622228Y-53233022D01*
X-7786476Y-52403121D01*
X-7784721Y-52394341D01*
X-7778683Y-52389746D01*
X-6487980Y-51961978D01*
X-6479050Y-51962628D01*
G37*
%TD.AperFunction*%
%TD*%
%TA.AperFunction,Conductor*%
%TO.N,CH01*%
G36*
X-19397735Y-10902720D02*
G01*
X-19396499Y-10904176D01*
X-18779712Y-11764452D01*
X-18777677Y-11773172D01*
X-18780942Y-11779536D01*
X-19492428Y-12492002D01*
X-19500699Y-12495435D01*
X-19508974Y-12492014D01*
X-19508986Y-12492002D01*
X-20220466Y-11779544D01*
X-20223887Y-11771269D01*
X-20221689Y-11764451D01*
X-19603501Y-10904164D01*
X-19595891Y-10899447D01*
X-19594000Y-10899293D01*
X-19406008Y-10899293D01*
X-19397735Y-10902720D01*
G37*
%TD.AperFunction*%
%TD*%
%TA.AperFunction,Conductor*%
%TO.N,+3.3V*%
G36*
X14748189Y-6116877D02*
G01*
X14751488Y-6123423D01*
X14934906Y-7352425D01*
X14932738Y-7361113D01*
X14925633Y-7365624D01*
X14252299Y-7500539D01*
X14247701Y-7500539D01*
X13574366Y-7365624D01*
X13566928Y-7360639D01*
X13565093Y-7352425D01*
X13748512Y-6123423D01*
X13753123Y-6115746D01*
X13760084Y-6113450D01*
X14739916Y-6113450D01*
X14748189Y-6116877D01*
G37*
%TD.AperFunction*%
%TD*%
%TA.AperFunction,Conductor*%
%TO.N,+3.3V*%
G36*
X14748189Y-36616877D02*
G01*
X14751488Y-36623423D01*
X14934906Y-37852425D01*
X14932738Y-37861113D01*
X14925633Y-37865624D01*
X14252299Y-38000539D01*
X14247701Y-38000539D01*
X13574366Y-37865624D01*
X13566928Y-37860639D01*
X13565093Y-37852425D01*
X13748512Y-36623423D01*
X13753123Y-36615746D01*
X13760084Y-36613450D01*
X14739916Y-36613450D01*
X14748189Y-36616877D01*
G37*
%TD.AperFunction*%
%TD*%
%TA.AperFunction,Conductor*%
%TO.N,+3.3V*%
G36*
X-144165Y-6722158D02*
G01*
X-140753Y-6724969D01*
X494821Y-7492538D01*
X497458Y-7501096D01*
X494821Y-7507462D01*
X-140753Y-8275030D01*
X-148669Y-8279217D01*
X-153069Y-8278792D01*
X-1091604Y-8002471D01*
X-1098573Y-7996847D01*
X-1100000Y-7991247D01*
X-1100000Y-7008752D01*
X-1096573Y-7000479D01*
X-1091604Y-6997528D01*
X-153067Y-6721207D01*
X-144165Y-6722158D01*
G37*
%TD.AperFunction*%
%TD*%
%TA.AperFunction,Conductor*%
%TO.N,CH07*%
G36*
X-4469070Y-35055835D02*
G01*
X-4461642Y-35060834D01*
X-4459923Y-35069622D01*
X-4460392Y-35071290D01*
X-4647204Y-35586524D01*
X-4653245Y-35593134D01*
X-4658203Y-35594236D01*
X-4841797Y-35594236D01*
X-4850070Y-35590809D01*
X-4852796Y-35586524D01*
X-4900456Y-35455078D01*
X-5039609Y-35071288D01*
X-5039208Y-35062344D01*
X-5032598Y-35056303D01*
X-5030944Y-35055837D01*
X-4752318Y-34999469D01*
X-4747682Y-34999469D01*
X-4469070Y-35055835D01*
G37*
%TD.AperFunction*%
%TD*%
%TA.AperFunction,Conductor*%
%TO.N,Net-(J102-Pin_6)*%
G36*
X-43469593Y-17002611D02*
G01*
X-42019044Y-17497298D01*
X-42012321Y-17503211D01*
X-42011122Y-17508371D01*
X-42011122Y-18491628D01*
X-42014549Y-18499901D01*
X-42019045Y-18502702D01*
X-43469590Y-18997387D01*
X-43478527Y-18996814D01*
X-43482398Y-18993752D01*
X-43886900Y-18502702D01*
X-44294874Y-18007437D01*
X-44297488Y-17998875D01*
X-44294874Y-17992563D01*
X-43482397Y-17006246D01*
X-43474492Y-17002040D01*
X-43469593Y-17002611D01*
G37*
%TD.AperFunction*%
%TD*%
%TA.AperFunction,Conductor*%
%TO.N,CH05*%
G36*
X25366758Y-22426416D02*
G01*
X25746637Y-22993488D01*
X25748395Y-23002269D01*
X25746637Y-23006512D01*
X25366758Y-23573583D01*
X25359307Y-23578549D01*
X25351948Y-23577606D01*
X24370060Y-23103193D01*
X24364102Y-23096508D01*
X24363450Y-23092658D01*
X24363450Y-22907341D01*
X24366877Y-22899068D01*
X24370058Y-22896806D01*
X25351948Y-22422392D01*
X25360888Y-22421880D01*
X25366758Y-22426416D01*
G37*
%TD.AperFunction*%
%TD*%
%TA.AperFunction,Conductor*%
%TO.N,Net-(J103-Pin_2)*%
G36*
X33768051Y-22422393D02*
G01*
X33989794Y-22529531D01*
X34749940Y-22896806D01*
X34755898Y-22903491D01*
X34756550Y-22907341D01*
X34756550Y-23092658D01*
X34753123Y-23100931D01*
X34749940Y-23103193D01*
X33768051Y-23577606D01*
X33759111Y-23578119D01*
X33753241Y-23573583D01*
X33373361Y-23006511D01*
X33371604Y-22997731D01*
X33373362Y-22993488D01*
X33753242Y-22426415D01*
X33760692Y-22421450D01*
X33768051Y-22422393D01*
G37*
%TD.AperFunction*%
%TD*%
%TA.AperFunction,Conductor*%
%TO.N,+3.3V*%
G36*
X14257460Y-12505177D02*
G01*
X15025030Y-13140752D01*
X15029217Y-13148668D01*
X15028792Y-13153068D01*
X14752472Y-14091604D01*
X14746848Y-14098573D01*
X14741248Y-14100000D01*
X13758752Y-14100000D01*
X13750479Y-14096573D01*
X13747528Y-14091604D01*
X13471207Y-13153066D01*
X13472158Y-13144164D01*
X13474965Y-13140756D01*
X14242539Y-12505177D01*
X14251096Y-12502541D01*
X14257460Y-12505177D01*
G37*
%TD.AperFunction*%
%TD*%
%TA.AperFunction,Conductor*%
%TO.N,CH06*%
G36*
X22323657Y-42339385D02*
G01*
X23448124Y-42896776D01*
X23454015Y-42903521D01*
X23454628Y-42907259D01*
X23454628Y-43092740D01*
X23451201Y-43101013D01*
X23448124Y-43103223D01*
X22323657Y-43660614D01*
X22314723Y-43661218D01*
X22308740Y-43656641D01*
X21873358Y-43006508D01*
X21871602Y-42997729D01*
X21873357Y-42993492D01*
X22308741Y-42343356D01*
X22316190Y-42338390D01*
X22323657Y-42339385D01*
G37*
%TD.AperFunction*%
%TD*%
%TA.AperFunction,Conductor*%
%TO.N,+3.3V*%
G36*
X14257460Y7494823D02*
G01*
X15025030Y6859248D01*
X15029217Y6851332D01*
X15028792Y6846932D01*
X14752472Y5908396D01*
X14746848Y5901427D01*
X14741248Y5900000D01*
X13758752Y5900000D01*
X13750479Y5903427D01*
X13747528Y5908396D01*
X13471207Y6846934D01*
X13472158Y6855836D01*
X13474965Y6859244D01*
X14242539Y7494823D01*
X14251096Y7497459D01*
X14257460Y7494823D01*
G37*
%TD.AperFunction*%
%TD*%
%TA.AperFunction,Conductor*%
%TO.N,Net-(J102-Pin_5)*%
G36*
X-32883242Y-22426416D02*
G01*
X-32503363Y-22993488D01*
X-32501605Y-23002269D01*
X-32503363Y-23006512D01*
X-32883242Y-23573583D01*
X-32890693Y-23578549D01*
X-32898052Y-23577606D01*
X-33879940Y-23103193D01*
X-33885898Y-23096508D01*
X-33886550Y-23092658D01*
X-33886550Y-22907341D01*
X-33883123Y-22899068D01*
X-33879942Y-22896806D01*
X-32898052Y-22422392D01*
X-32889112Y-22421880D01*
X-32883242Y-22426416D01*
G37*
%TD.AperFunction*%
%TD*%
%TA.AperFunction,Conductor*%
%TO.N,+3.3V*%
G36*
X14925634Y-38134375D02*
G01*
X14933071Y-38139360D01*
X14934906Y-38147574D01*
X14751488Y-39376577D01*
X14746877Y-39384254D01*
X14739916Y-39386550D01*
X13760084Y-39386550D01*
X13751811Y-39383123D01*
X13748512Y-39376577D01*
X13565093Y-38147574D01*
X13567261Y-38138886D01*
X13574364Y-38134376D01*
X14247704Y-37999460D01*
X14252296Y-37999460D01*
X14925634Y-38134375D01*
G37*
%TD.AperFunction*%
%TD*%
%TA.AperFunction,Conductor*%
%TO.N,+3.3V*%
G36*
X14925634Y-23134375D02*
G01*
X14933071Y-23139360D01*
X14934906Y-23147574D01*
X14751488Y-24376577D01*
X14746877Y-24384254D01*
X14739916Y-24386550D01*
X13760084Y-24386550D01*
X13751811Y-24383123D01*
X13748512Y-24376577D01*
X13565093Y-23147574D01*
X13567261Y-23138886D01*
X13574364Y-23134376D01*
X14247704Y-22999460D01*
X14252296Y-22999460D01*
X14925634Y-23134375D01*
G37*
%TD.AperFunction*%
%TD*%
%TA.AperFunction,Conductor*%
%TO.N,CH07*%
G36*
X25852269Y4096573D02*
G01*
X25853501Y4095122D01*
X26470988Y3234842D01*
X26473028Y3226123D01*
X26469762Y3219753D01*
X25758279Y2507291D01*
X25750008Y2503858D01*
X25741733Y2507279D01*
X25741721Y2507291D01*
X25030237Y3219753D01*
X25026816Y3228028D01*
X25029010Y3234840D01*
X25646499Y4095122D01*
X25654107Y4099845D01*
X25656004Y4100000D01*
X25843996Y4100000D01*
X25852269Y4096573D01*
G37*
%TD.AperFunction*%
%TD*%
%TA.AperFunction,Conductor*%
%TO.N,CH08*%
G36*
X21876510Y-7503361D02*
G01*
X22443583Y-7883241D01*
X22448549Y-7890692D01*
X22447606Y-7898051D01*
X21973194Y-8879940D01*
X21966509Y-8885898D01*
X21962659Y-8886550D01*
X21777341Y-8886550D01*
X21769068Y-8883123D01*
X21766806Y-8879940D01*
X21292393Y-7898051D01*
X21291880Y-7889111D01*
X21296414Y-7883242D01*
X21863488Y-7503361D01*
X21872269Y-7501604D01*
X21876510Y-7503361D01*
G37*
%TD.AperFunction*%
%TD*%
%TA.AperFunction,Conductor*%
%TO.N,Net-(J103-Pin_2)*%
G36*
X43483724Y-22007859D02*
G01*
X44294872Y-22992561D01*
X44297487Y-23001125D01*
X44294872Y-23007439D01*
X43483724Y-23992140D01*
X43475818Y-23996347D01*
X43468572Y-23994672D01*
X42016701Y-23103424D01*
X42011443Y-23096176D01*
X42011122Y-23093453D01*
X42011122Y-22906546D01*
X42014549Y-22898273D01*
X42016701Y-22896575D01*
X43468573Y-22005326D01*
X43477416Y-22003919D01*
X43483724Y-22007859D01*
G37*
%TD.AperFunction*%
%TD*%
%TA.AperFunction,Conductor*%
%TO.N,CH01*%
G36*
X-19493490Y-7503361D02*
G01*
X-18926417Y-7883241D01*
X-18921451Y-7890692D01*
X-18922394Y-7898051D01*
X-19396806Y-8879940D01*
X-19403491Y-8885898D01*
X-19407341Y-8886550D01*
X-19592659Y-8886550D01*
X-19600932Y-8883123D01*
X-19603194Y-8879940D01*
X-20077607Y-7898051D01*
X-20078120Y-7889111D01*
X-20073586Y-7883242D01*
X-19506512Y-7503361D01*
X-19497731Y-7501604D01*
X-19493490Y-7503361D01*
G37*
%TD.AperFunction*%
%TD*%
%TA.AperFunction,Conductor*%
%TO.N,Net-(D202-A)*%
G36*
X-24481949Y24027607D02*
G01*
X-24260206Y23920469D01*
X-23500060Y23553194D01*
X-23494102Y23546509D01*
X-23493450Y23542659D01*
X-23493450Y23357342D01*
X-23496877Y23349069D01*
X-23500060Y23346807D01*
X-24481949Y22872394D01*
X-24490889Y22871881D01*
X-24496759Y22876417D01*
X-24876639Y23443489D01*
X-24878396Y23452269D01*
X-24876638Y23456512D01*
X-24496758Y24023585D01*
X-24489308Y24028550D01*
X-24481949Y24027607D01*
G37*
%TD.AperFunction*%
%TD*%
%TA.AperFunction,Conductor*%
%TO.N,Net-(J101-Pin_6)*%
G36*
X-32638887Y13182739D02*
G01*
X-32634376Y13175634D01*
X-32499461Y12502299D01*
X-32499461Y12497701D01*
X-32634376Y11824367D01*
X-32639361Y11816929D01*
X-32647575Y11815094D01*
X-33876577Y11998512D01*
X-33884254Y12003123D01*
X-33886550Y12010084D01*
X-33886550Y12989917D01*
X-33883123Y12998190D01*
X-33876579Y13001489D01*
X-32647574Y13184907D01*
X-32638887Y13182739D01*
G37*
%TD.AperFunction*%
%TD*%
%TA.AperFunction,Conductor*%
%TO.N,+3.3V*%
G36*
X14749521Y9096573D02*
G01*
X14752472Y9091604D01*
X15028792Y8153069D01*
X15027841Y8144165D01*
X15025030Y8140753D01*
X14257462Y7505179D01*
X14248904Y7502542D01*
X14242538Y7505179D01*
X13474969Y8140753D01*
X13470782Y8148669D01*
X13471206Y8153064D01*
X13747528Y9091605D01*
X13753152Y9098573D01*
X13758752Y9100000D01*
X14741248Y9100000D01*
X14749521Y9096573D01*
G37*
%TD.AperFunction*%
%TD*%
%TA.AperFunction,Conductor*%
%TO.N,CH03*%
G36*
X-18702344Y-42673303D02*
G01*
X-18696019Y-42679642D01*
X-18695834Y-42680120D01*
X-18139365Y-44214753D01*
X-18139766Y-44223698D01*
X-18142091Y-44227014D01*
X-18272986Y-44357909D01*
X-18281259Y-44361336D01*
X-18285247Y-44360635D01*
X-19819880Y-43804166D01*
X-19826490Y-43798124D01*
X-19826891Y-43789179D01*
X-19826723Y-43788743D01*
X-19502562Y-43003783D01*
X-19496241Y-42997448D01*
X-18711297Y-42673294D01*
X-18702344Y-42673303D01*
G37*
%TD.AperFunction*%
%TD*%
%TA.AperFunction,Conductor*%
%TO.N,ADC2*%
G36*
X23875359Y42882834D02*
G01*
X23879894Y42876965D01*
X23923974Y42750469D01*
X24238733Y41847205D01*
X24238220Y41838265D01*
X24235958Y41835082D01*
X24104918Y41704042D01*
X24096645Y41700615D01*
X24092795Y41701267D01*
X23063036Y42060105D01*
X23056351Y42066063D01*
X23055408Y42073422D01*
X23187773Y42743018D01*
X23192739Y42750469D01*
X23196982Y42752227D01*
X23866578Y42884592D01*
X23875359Y42882834D01*
G37*
%TD.AperFunction*%
%TD*%
%TA.AperFunction,Conductor*%
%TO.N,CH08*%
G36*
X22323657Y-11839385D02*
G01*
X23448124Y-12396776D01*
X23454015Y-12403521D01*
X23454628Y-12407259D01*
X23454628Y-12592740D01*
X23451201Y-12601013D01*
X23448124Y-12603223D01*
X22323657Y-13160614D01*
X22314723Y-13161218D01*
X22308740Y-13156641D01*
X21873358Y-12506508D01*
X21871602Y-12497729D01*
X21873357Y-12493492D01*
X22308741Y-11843356D01*
X22316190Y-11838390D01*
X22323657Y-11839385D01*
G37*
%TD.AperFunction*%
%TD*%
%TA.AperFunction,Conductor*%
%TO.N,GND*%
G36*
X23021521Y32275770D02*
G01*
X23026138Y32268586D01*
X23180540Y31497297D01*
X23180540Y31492703D01*
X23026308Y30722263D01*
X23021324Y30714824D01*
X23012539Y30713088D01*
X23012130Y30713177D01*
X21604366Y31047862D01*
X21597110Y31053110D01*
X21595372Y31059245D01*
X21595372Y32040031D01*
X21598799Y32048304D01*
X21605212Y32051582D01*
X23012809Y32277841D01*
X23021521Y32275770D01*
G37*
%TD.AperFunction*%
%TD*%
%TA.AperFunction,Conductor*%
%TO.N,Net-(J103-Pin_5)*%
G36*
X43483724Y-37007859D02*
G01*
X44294872Y-37992561D01*
X44297487Y-38001125D01*
X44294872Y-38007439D01*
X43483724Y-38992140D01*
X43475818Y-38996347D01*
X43468572Y-38994672D01*
X42016701Y-38103424D01*
X42011443Y-38096176D01*
X42011122Y-38093453D01*
X42011122Y-37906546D01*
X42014549Y-37898273D01*
X42016701Y-37896575D01*
X43468573Y-37005326D01*
X43477416Y-37003919D01*
X43483724Y-37007859D01*
G37*
%TD.AperFunction*%
%TD*%
%TA.AperFunction,Conductor*%
%TO.N,CH04*%
G36*
X-20219753Y-27280237D02*
G01*
X-19507291Y-27991721D01*
X-19503858Y-27999992D01*
X-19507279Y-28008267D01*
X-19507291Y-28008279D01*
X-20219753Y-28719762D01*
X-20228028Y-28723183D01*
X-20234842Y-28720988D01*
X-21095122Y-28103501D01*
X-21099845Y-28095893D01*
X-21100000Y-28093996D01*
X-21100000Y-27906003D01*
X-21096573Y-27897730D01*
X-21095128Y-27896502D01*
X-20234841Y-27279010D01*
X-20226123Y-27276971D01*
X-20219753Y-27280237D01*
G37*
%TD.AperFunction*%
%TD*%
%TA.AperFunction,Conductor*%
%TO.N,+3.3V*%
G36*
X31398653Y49879951D02*
G01*
X32137992Y48881219D01*
X32140160Y48872531D01*
X32136861Y48865985D01*
X31444015Y48173139D01*
X31435742Y48169712D01*
X31428781Y48172008D01*
X30430049Y48911347D01*
X30425438Y48919024D01*
X30427272Y48927236D01*
X30807995Y49498760D01*
X30811240Y49502005D01*
X31382764Y49882728D01*
X31391548Y49884462D01*
X31398653Y49879951D01*
G37*
%TD.AperFunction*%
%TD*%
%TA.AperFunction,Conductor*%
%TO.N,CH03*%
G36*
X-24933490Y-38003361D02*
G01*
X-24366417Y-38383241D01*
X-24361451Y-38390692D01*
X-24362394Y-38398051D01*
X-24836806Y-39379940D01*
X-24843491Y-39385898D01*
X-24847341Y-39386550D01*
X-25032659Y-39386550D01*
X-25040932Y-39383123D01*
X-25043194Y-39379940D01*
X-25517607Y-38398051D01*
X-25518120Y-38389111D01*
X-25513586Y-38383242D01*
X-24946512Y-38003361D01*
X-24937731Y-38001604D01*
X-24933490Y-38003361D01*
G37*
%TD.AperFunction*%
%TD*%
%TA.AperFunction,Conductor*%
%TO.N,CH03*%
G36*
X-20219753Y-42280237D02*
G01*
X-19507291Y-42991721D01*
X-19503858Y-42999992D01*
X-19507279Y-43008267D01*
X-19507291Y-43008279D01*
X-20219753Y-43719762D01*
X-20228028Y-43723183D01*
X-20234842Y-43720988D01*
X-21095122Y-43103501D01*
X-21099845Y-43095893D01*
X-21100000Y-43093996D01*
X-21100000Y-42906003D01*
X-21096573Y-42897730D01*
X-21095128Y-42896502D01*
X-20234841Y-42279010D01*
X-20226123Y-42276971D01*
X-20219753Y-42280237D01*
G37*
%TD.AperFunction*%
%TD*%
%TA.AperFunction,Conductor*%
%TO.N,ADC1*%
G36*
X280930Y-21055835D02*
G01*
X288358Y-21060834D01*
X290077Y-21069622D01*
X289608Y-21071290D01*
X102796Y-21586524D01*
X96755Y-21593134D01*
X91797Y-21594236D01*
X-91797Y-21594236D01*
X-100070Y-21590809D01*
X-102796Y-21586524D01*
X-150456Y-21455078D01*
X-289609Y-21071288D01*
X-289208Y-21062344D01*
X-282598Y-21056303D01*
X-280944Y-21055837D01*
X-2318Y-20999469D01*
X2318Y-20999469D01*
X280930Y-21055835D01*
G37*
%TD.AperFunction*%
%TD*%
%TA.AperFunction,Conductor*%
%TO.N,Net-(J104-Pin_1)*%
G36*
X34746578Y13001489D02*
G01*
X34754254Y12996878D01*
X34756550Y12989917D01*
X34756550Y12010084D01*
X34753123Y12001811D01*
X34746577Y11998512D01*
X33517574Y11815094D01*
X33508886Y11817262D01*
X33504375Y11824366D01*
X33369460Y12497705D01*
X33369460Y12502296D01*
X33504376Y13175636D01*
X33509360Y13183072D01*
X33517573Y13184907D01*
X34746578Y13001489D01*
G37*
%TD.AperFunction*%
%TD*%
%TA.AperFunction,Conductor*%
%TO.N,CH05*%
G36*
X-6479050Y-54502628D02*
G01*
X-6476027Y-54504811D01*
X-6344812Y-54636026D01*
X-6341385Y-54644299D01*
X-6341979Y-54647980D01*
X-6769746Y-55938679D01*
X-6775602Y-55945454D01*
X-6783124Y-55946475D01*
X-7613023Y-55782227D01*
X-7620473Y-55777260D01*
X-7622228Y-55773022D01*
X-7786476Y-54943121D01*
X-7784721Y-54934341D01*
X-7778683Y-54929746D01*
X-6487980Y-54501978D01*
X-6479050Y-54502628D01*
G37*
%TD.AperFunction*%
%TD*%
%TA.AperFunction,Conductor*%
%TO.N,+3.3V*%
G36*
X-19844165Y44177842D02*
G01*
X-19840753Y44175031D01*
X-19205179Y43407462D01*
X-19202542Y43398904D01*
X-19205179Y43392538D01*
X-19840753Y42624970D01*
X-19848669Y42620783D01*
X-19853069Y42621208D01*
X-20791604Y42897529D01*
X-20798573Y42903153D01*
X-20800000Y42908753D01*
X-20800000Y43891248D01*
X-20796573Y43899521D01*
X-20791604Y43902472D01*
X-19853067Y44178793D01*
X-19844165Y44177842D01*
G37*
%TD.AperFunction*%
%TD*%
%TA.AperFunction,Conductor*%
%TO.N,Net-(A201-A5{slash}SCL)*%
G36*
X18071282Y-14960389D02*
G01*
X18586525Y-15147204D01*
X18593134Y-15153244D01*
X18594236Y-15158202D01*
X18594236Y-15341797D01*
X18590809Y-15350070D01*
X18586524Y-15352796D01*
X18071290Y-15539608D01*
X18062344Y-15539207D01*
X18056303Y-15532597D01*
X18055837Y-15530939D01*
X17999469Y-15252318D01*
X17999469Y-15247680D01*
X18055835Y-14969067D01*
X18060834Y-14961641D01*
X18069622Y-14959922D01*
X18071282Y-14960389D01*
G37*
%TD.AperFunction*%
%TD*%
%TA.AperFunction,Conductor*%
%TO.N,Net-(J104-Pin_1)*%
G36*
X43006143Y13586485D02*
G01*
X44288427Y12708608D01*
X44293318Y12701107D01*
X44291472Y12692345D01*
X44289439Y12690076D01*
X43005468Y11587844D01*
X42996958Y11585056D01*
X42993345Y11585923D01*
X42007198Y11997000D01*
X42000881Y12003346D01*
X42000000Y12007799D01*
X42000000Y12993323D01*
X42003427Y13001596D01*
X42005742Y13003393D01*
X42993589Y13586904D01*
X43002453Y13588160D01*
X43006143Y13586485D01*
G37*
%TD.AperFunction*%
%TD*%
%TA.AperFunction,Conductor*%
%TO.N,ADC0*%
G36*
X9895648Y43532891D02*
G01*
X9900068Y43527341D01*
X10283447Y42522355D01*
X10283194Y42513404D01*
X10280788Y42509912D01*
X10149757Y42378881D01*
X10141484Y42375454D01*
X10137948Y42376001D01*
X9083407Y42710290D01*
X9076557Y42716057D01*
X9075465Y42723711D01*
X9207773Y43393019D01*
X9212739Y43400469D01*
X9216982Y43402227D01*
X9886867Y43534649D01*
X9895648Y43532891D01*
G37*
%TD.AperFunction*%
%TD*%
%TA.AperFunction,Conductor*%
%TO.N,+3.3V*%
G36*
X-4578990Y6196572D02*
G01*
X-4576778Y6193490D01*
X-4083395Y5196912D01*
X-4082795Y5187977D01*
X-4084919Y5184198D01*
X-5071040Y4009674D01*
X-5078985Y4005541D01*
X-5087524Y4008236D01*
X-5088962Y4009674D01*
X-6075082Y5184197D01*
X-6077777Y5192736D01*
X-6076607Y5196908D01*
X-5583222Y6193490D01*
X-5576481Y6199384D01*
X-5572737Y6199999D01*
X-4587263Y6199999D01*
X-4578990Y6196572D01*
G37*
%TD.AperFunction*%
%TD*%
%TA.AperFunction,Conductor*%
%TO.N,CH08*%
G36*
X21971014Y-10918799D02*
G01*
X21973224Y-10921876D01*
X22530614Y-12046342D01*
X22531218Y-12055276D01*
X22526641Y-12061259D01*
X21876510Y-12496640D01*
X21867729Y-12498397D01*
X21863490Y-12496640D01*
X21213358Y-12061259D01*
X21208390Y-12053809D01*
X21209385Y-12046342D01*
X21766776Y-10921876D01*
X21773521Y-10915985D01*
X21777259Y-10915372D01*
X21962741Y-10915372D01*
X21971014Y-10918799D01*
G37*
%TD.AperFunction*%
%TD*%
%TA.AperFunction,Conductor*%
%TO.N,Net-(J103-Pin_1)*%
G36*
X43005809Y-17004465D02*
G01*
X44288931Y-17990724D01*
X44293402Y-17998482D01*
X44291077Y-18007130D01*
X44288931Y-18009276D01*
X43005809Y-18995534D01*
X42997161Y-18997859D01*
X42993447Y-18996723D01*
X42006468Y-18503234D01*
X42000600Y-18496469D01*
X42000000Y-18492769D01*
X42000000Y-17507231D01*
X42003427Y-17498958D01*
X42006468Y-17496766D01*
X42993448Y-17003275D01*
X43002379Y-17002641D01*
X43005809Y-17004465D01*
G37*
%TD.AperFunction*%
%TD*%
%TA.AperFunction,Conductor*%
%TO.N,+3.3V*%
G36*
X26248189Y13883123D02*
G01*
X26251488Y13876577D01*
X26434906Y12647575D01*
X26432738Y12638887D01*
X26425633Y12634376D01*
X25752299Y12499461D01*
X25747701Y12499461D01*
X25074366Y12634376D01*
X25066928Y12639361D01*
X25065093Y12647575D01*
X25248512Y13876577D01*
X25253123Y13884254D01*
X25260084Y13886550D01*
X26239916Y13886550D01*
X26248189Y13883123D01*
G37*
%TD.AperFunction*%
%TD*%
%TA.AperFunction,Conductor*%
%TO.N,CH07*%
G36*
X25366758Y8073584D02*
G01*
X25746637Y7506512D01*
X25748395Y7497731D01*
X25746637Y7493488D01*
X25366758Y6926417D01*
X25359307Y6921451D01*
X25351948Y6922394D01*
X24370060Y7396807D01*
X24364102Y7403492D01*
X24363450Y7407342D01*
X24363450Y7592659D01*
X24366877Y7600932D01*
X24370058Y7603194D01*
X25351948Y8077608D01*
X25360888Y8078120D01*
X25366758Y8073584D01*
G37*
%TD.AperFunction*%
%TD*%
%TA.AperFunction,Conductor*%
%TO.N,CH02*%
G36*
X-24096668Y2652322D02*
G01*
X-24092091Y2646339D01*
X-23691108Y1457088D01*
X-23691712Y1448154D01*
X-23693922Y1445077D01*
X-23825077Y1313922D01*
X-23833350Y1310495D01*
X-23837088Y1311108D01*
X-25026339Y1712091D01*
X-25033084Y1717982D01*
X-25034079Y1725448D01*
X-24882228Y2493022D01*
X-24877260Y2500471D01*
X-24873024Y2502228D01*
X-24105448Y2654079D01*
X-24096668Y2652322D01*
G37*
%TD.AperFunction*%
%TD*%
%TA.AperFunction,Conductor*%
%TO.N,+3.3V*%
G36*
X-19991124Y43727706D02*
G01*
X-19203786Y43402563D01*
X-19197447Y43396238D01*
X-19197438Y43396215D01*
X-18872296Y42608880D01*
X-18872305Y42599925D01*
X-18876624Y42594676D01*
X-20130930Y41759300D01*
X-20139716Y41757566D01*
X-20145689Y41760765D01*
X-20839236Y42454312D01*
X-20842663Y42462585D01*
X-20840702Y42469069D01*
X-20005324Y43723379D01*
X-19997887Y43728363D01*
X-19991124Y43727706D01*
G37*
%TD.AperFunction*%
%TD*%
%TA.AperFunction,Conductor*%
%TO.N,CH08*%
G36*
X25366758Y-6926416D02*
G01*
X25746637Y-7493488D01*
X25748395Y-7502269D01*
X25746637Y-7506512D01*
X25366758Y-8073583D01*
X25359307Y-8078549D01*
X25351948Y-8077606D01*
X24370060Y-7603193D01*
X24364102Y-7596508D01*
X24363450Y-7592658D01*
X24363450Y-7407341D01*
X24366877Y-7399068D01*
X24370058Y-7396806D01*
X25351948Y-6922392D01*
X25360888Y-6921880D01*
X25366758Y-6926416D01*
G37*
%TD.AperFunction*%
%TD*%
%TA.AperFunction,Conductor*%
%TO.N,Net-(A201-A4{slash}SDA)*%
G36*
X3921048Y55680240D02*
G01*
X3923236Y55677207D01*
X4522129Y54481459D01*
X4522770Y54472527D01*
X4518178Y54466497D01*
X3826510Y54003360D01*
X3817729Y54001605D01*
X3813490Y54003360D01*
X3121821Y54466497D01*
X3116854Y54473948D01*
X3117869Y54481457D01*
X3716764Y55677208D01*
X3723533Y55683069D01*
X3727225Y55683667D01*
X3912775Y55683667D01*
X3921048Y55680240D01*
G37*
%TD.AperFunction*%
%TD*%
%TA.AperFunction,Conductor*%
%TO.N,CH04*%
G36*
X-18702344Y-27673303D02*
G01*
X-18696019Y-27679642D01*
X-18695834Y-27680120D01*
X-18139365Y-29214753D01*
X-18139766Y-29223698D01*
X-18142091Y-29227014D01*
X-18272986Y-29357909D01*
X-18281259Y-29361336D01*
X-18285247Y-29360635D01*
X-19819880Y-28804166D01*
X-19826490Y-28798124D01*
X-19826891Y-28789179D01*
X-19826723Y-28788743D01*
X-19502562Y-28003783D01*
X-19496241Y-27997448D01*
X-18711297Y-27673294D01*
X-18702344Y-27673303D01*
G37*
%TD.AperFunction*%
%TD*%
%TA.AperFunction,Conductor*%
%TO.N,+3.3V*%
G36*
X-1572765Y13382728D02*
G01*
X-1001244Y13002007D01*
X-997994Y12998757D01*
X-617274Y12427238D01*
X-615539Y12418452D01*
X-620050Y12411347D01*
X-1618782Y11672008D01*
X-1627470Y11669840D01*
X-1634016Y11673139D01*
X-2326862Y12365985D01*
X-2330289Y12374258D01*
X-2327993Y12381219D01*
X-1870843Y12998757D01*
X-1588653Y13379953D01*
X-1580977Y13384562D01*
X-1572765Y13382728D01*
G37*
%TD.AperFunction*%
%TD*%
%TA.AperFunction,Conductor*%
%TO.N,ADC1*%
G36*
X3350070Y-14409191D02*
G01*
X3352796Y-14413476D01*
X3539608Y-14928709D01*
X3539207Y-14937655D01*
X3532597Y-14943696D01*
X3530929Y-14944165D01*
X3252320Y-15000530D01*
X3247680Y-15000530D01*
X2969070Y-14944165D01*
X2961641Y-14939165D01*
X2959922Y-14930377D01*
X2960387Y-14928720D01*
X3147204Y-14413476D01*
X3153245Y-14406866D01*
X3158203Y-14405764D01*
X3341797Y-14405764D01*
X3350070Y-14409191D01*
G37*
%TD.AperFunction*%
%TD*%
%TA.AperFunction,Conductor*%
%TO.N,CH05*%
G36*
X25030247Y-27280237D02*
G01*
X25742709Y-27991721D01*
X25746142Y-27999992D01*
X25742721Y-28008267D01*
X25742709Y-28008279D01*
X25030247Y-28719762D01*
X25021972Y-28723183D01*
X25015158Y-28720988D01*
X24154878Y-28103501D01*
X24150155Y-28095893D01*
X24150000Y-28093996D01*
X24150000Y-27906003D01*
X24153427Y-27897730D01*
X24154872Y-27896502D01*
X25015159Y-27279010D01*
X25023877Y-27276971D01*
X25030247Y-27280237D01*
G37*
%TD.AperFunction*%
%TD*%
%TA.AperFunction,Conductor*%
%TO.N,+3.3V*%
G36*
X-25018887Y-17317261D02*
G01*
X-25014376Y-17324366D01*
X-24879461Y-17997701D01*
X-24879461Y-18002299D01*
X-25014376Y-18675633D01*
X-25019361Y-18683071D01*
X-25027575Y-18684906D01*
X-26256577Y-18501488D01*
X-26264254Y-18496877D01*
X-26266550Y-18489916D01*
X-26266550Y-17510083D01*
X-26263123Y-17501810D01*
X-26256579Y-17498511D01*
X-25027574Y-17315093D01*
X-25018887Y-17317261D01*
G37*
%TD.AperFunction*%
%TD*%
%TA.AperFunction,Conductor*%
%TO.N,Net-(U201C--)*%
G36*
X-3318818Y39717605D02*
G01*
X-3315792Y39715420D01*
X-3184871Y39584499D01*
X-3181444Y39576226D01*
X-3182238Y39571990D01*
X-3766758Y38066852D01*
X-3772947Y38060381D01*
X-3781900Y38060182D01*
X-3782279Y38060337D01*
X-4567384Y38397376D01*
X-4573635Y38403788D01*
X-4573644Y38403812D01*
X-4885019Y39188483D01*
X-4884885Y39197436D01*
X-4878459Y39203673D01*
X-4877853Y39203895D01*
X-3327748Y39718252D01*
X-3318818Y39717605D01*
G37*
%TD.AperFunction*%
%TD*%
%TA.AperFunction,Conductor*%
%TO.N,+3.3V*%
G36*
X-31846937Y-11621206D02*
G01*
X-30908396Y-11897528D01*
X-30901427Y-11903152D01*
X-30900000Y-11908752D01*
X-30900000Y-12891247D01*
X-30903427Y-12899520D01*
X-30908396Y-12902471D01*
X-31846932Y-13178792D01*
X-31855836Y-13177841D01*
X-31859248Y-13175030D01*
X-32494823Y-12407460D01*
X-32497459Y-12398904D01*
X-32494823Y-12392539D01*
X-31859246Y-11624967D01*
X-31851332Y-11620782D01*
X-31846937Y-11621206D01*
G37*
%TD.AperFunction*%
%TD*%
%TA.AperFunction,Conductor*%
%TO.N,Net-(J102-Pin_2)*%
G36*
X-32943242Y-37426416D02*
G01*
X-32563363Y-37993488D01*
X-32561605Y-38002269D01*
X-32563363Y-38006512D01*
X-32943242Y-38573583D01*
X-32950693Y-38578549D01*
X-32958052Y-38577606D01*
X-33939940Y-38103193D01*
X-33945898Y-38096508D01*
X-33946550Y-38092658D01*
X-33946550Y-37907341D01*
X-33943123Y-37899068D01*
X-33939942Y-37896806D01*
X-32958052Y-37422392D01*
X-32949112Y-37421880D01*
X-32943242Y-37426416D01*
G37*
%TD.AperFunction*%
%TD*%
%TA.AperFunction,Conductor*%
%TO.N,Net-(J102-Pin_3)*%
G36*
X-32648887Y-32317261D02*
G01*
X-32644376Y-32324366D01*
X-32509461Y-32997701D01*
X-32509461Y-33002299D01*
X-32644376Y-33675633D01*
X-32649361Y-33683071D01*
X-32657575Y-33684906D01*
X-33886577Y-33501488D01*
X-33894254Y-33496877D01*
X-33896550Y-33489916D01*
X-33896550Y-32510083D01*
X-33893123Y-32501810D01*
X-33886579Y-32498511D01*
X-32657574Y-32315093D01*
X-32648887Y-32317261D01*
G37*
%TD.AperFunction*%
%TD*%
%TA.AperFunction,Conductor*%
%TO.N,Net-(J102-Pin_3)*%
G36*
X-43469593Y-32002611D02*
G01*
X-42019044Y-32497298D01*
X-42012321Y-32503211D01*
X-42011122Y-32508371D01*
X-42011122Y-33491628D01*
X-42014549Y-33499901D01*
X-42019045Y-33502702D01*
X-43469590Y-33997387D01*
X-43478527Y-33996814D01*
X-43482398Y-33993752D01*
X-43886900Y-33502702D01*
X-44294874Y-33007437D01*
X-44297488Y-32998875D01*
X-44294874Y-32992563D01*
X-43482397Y-32006246D01*
X-43474492Y-32002040D01*
X-43469593Y-32002611D01*
G37*
%TD.AperFunction*%
%TD*%
%TA.AperFunction,Conductor*%
%TO.N,CH04*%
G36*
X-8094046Y-44910522D02*
G01*
X-7623359Y-45613490D01*
X-7621604Y-45622272D01*
X-7623359Y-45626510D01*
X-8094046Y-46329477D01*
X-8101496Y-46334444D01*
X-8109018Y-46333423D01*
X-9324156Y-45723238D01*
X-9330012Y-45716463D01*
X-9330606Y-45712782D01*
X-9330606Y-45527217D01*
X-9327179Y-45518944D01*
X-9324156Y-45516761D01*
X-8109016Y-44906575D01*
X-8100087Y-44905926D01*
X-8094046Y-44910522D01*
G37*
%TD.AperFunction*%
%TD*%
%TA.AperFunction,Conductor*%
%TO.N,CH05*%
G36*
X21971014Y-26418799D02*
G01*
X21973224Y-26421876D01*
X22530614Y-27546342D01*
X22531218Y-27555276D01*
X22526641Y-27561259D01*
X21876510Y-27996640D01*
X21867729Y-27998397D01*
X21863490Y-27996640D01*
X21213358Y-27561259D01*
X21208390Y-27553809D01*
X21209385Y-27546342D01*
X21766776Y-26421876D01*
X21773521Y-26415985D01*
X21777259Y-26415372D01*
X21962741Y-26415372D01*
X21971014Y-26418799D01*
G37*
%TD.AperFunction*%
%TD*%
%TA.AperFunction,Conductor*%
%TO.N,Net-(J201-Pin_6)*%
G36*
X-32588887Y44082739D02*
G01*
X-32584376Y44075634D01*
X-32449461Y43402299D01*
X-32449461Y43397701D01*
X-32584376Y42724367D01*
X-32589361Y42716929D01*
X-32597575Y42715094D01*
X-33826577Y42898512D01*
X-33834254Y42903123D01*
X-33836550Y42910084D01*
X-33836550Y43889917D01*
X-33833123Y43898190D01*
X-33826579Y43901489D01*
X-32597574Y44084907D01*
X-32588887Y44082739D01*
G37*
%TD.AperFunction*%
%TD*%
%TA.AperFunction,Conductor*%
%TO.N,Net-(C203-Pad1)*%
G36*
X1446510Y33396639D02*
G01*
X2013583Y33016759D01*
X2018549Y33009308D01*
X2017606Y33001949D01*
X1543194Y32020060D01*
X1536509Y32014102D01*
X1532659Y32013450D01*
X1347341Y32013450D01*
X1339068Y32016877D01*
X1336806Y32020060D01*
X862393Y33001949D01*
X861880Y33010889D01*
X866414Y33016758D01*
X1433488Y33396639D01*
X1442269Y33398396D01*
X1446510Y33396639D01*
G37*
%TD.AperFunction*%
%TD*%
%TA.AperFunction,Conductor*%
%TO.N,Net-(D202-A)*%
G36*
X-10906668Y33552322D02*
G01*
X-10902091Y33546339D01*
X-10501108Y32357088D01*
X-10501712Y32348154D01*
X-10503922Y32345077D01*
X-10635077Y32213922D01*
X-10643350Y32210495D01*
X-10647088Y32211108D01*
X-11836339Y32612091D01*
X-11843084Y32617982D01*
X-11844079Y32625448D01*
X-11692228Y33393022D01*
X-11687260Y33400471D01*
X-11683024Y33402228D01*
X-10915448Y33554079D01*
X-10906668Y33552322D01*
G37*
%TD.AperFunction*%
%TD*%
%TA.AperFunction,Conductor*%
%TO.N,Net-(J103-Pin_1)*%
G36*
X34746578Y-17498511D02*
G01*
X34754254Y-17503122D01*
X34756550Y-17510083D01*
X34756550Y-18489916D01*
X34753123Y-18498189D01*
X34746577Y-18501488D01*
X33517574Y-18684906D01*
X33508886Y-18682738D01*
X33504375Y-18675634D01*
X33369460Y-18002295D01*
X33369460Y-17997704D01*
X33504376Y-17324364D01*
X33509360Y-17316928D01*
X33517573Y-17315093D01*
X34746578Y-17498511D01*
G37*
%TD.AperFunction*%
%TD*%
%TA.AperFunction,Conductor*%
%TO.N,+3.3V*%
G36*
X507460Y-7505177D02*
G01*
X1275030Y-8140752D01*
X1279217Y-8148668D01*
X1278792Y-8153068D01*
X1002472Y-9091604D01*
X996848Y-9098573D01*
X991248Y-9100000D01*
X8752Y-9100000D01*
X479Y-9096573D01*
X-2472Y-9091604D01*
X-278793Y-8153066D01*
X-277842Y-8144164D01*
X-275035Y-8140756D01*
X492539Y-7505177D01*
X501096Y-7502541D01*
X507460Y-7505177D01*
G37*
%TD.AperFunction*%
%TD*%
%TA.AperFunction,Conductor*%
%TO.N,+3.3V*%
G36*
X-20240931Y35040702D02*
G01*
X-19175219Y34330930D01*
X-18986624Y34205325D01*
X-18981638Y34197887D01*
X-18982296Y34191121D01*
X-19307438Y33403786D01*
X-19313763Y33397447D01*
X-19313786Y33397438D01*
X-20101121Y33072297D01*
X-20110076Y33072306D01*
X-20115325Y33076625D01*
X-20328995Y33397447D01*
X-20950702Y34330931D01*
X-20952435Y34339716D01*
X-20949238Y34345687D01*
X-20255688Y35039237D01*
X-20247416Y35042663D01*
X-20240931Y35040702D01*
G37*
%TD.AperFunction*%
%TD*%
%TA.AperFunction,Conductor*%
%TO.N,CH07*%
G36*
X21971014Y9081201D02*
G01*
X21973224Y9078124D01*
X22530614Y7953658D01*
X22531218Y7944724D01*
X22526641Y7938741D01*
X21876510Y7503360D01*
X21867729Y7501603D01*
X21863490Y7503360D01*
X21213358Y7938741D01*
X21208390Y7946191D01*
X21209385Y7953658D01*
X21766776Y9078124D01*
X21773521Y9084015D01*
X21777259Y9084628D01*
X21962741Y9084628D01*
X21971014Y9081201D01*
G37*
%TD.AperFunction*%
%TD*%
%TA.AperFunction,Conductor*%
%TO.N,CH07*%
G36*
X-6479050Y-49422628D02*
G01*
X-6476027Y-49424811D01*
X-6344812Y-49556026D01*
X-6341385Y-49564299D01*
X-6341979Y-49567980D01*
X-6769746Y-50858679D01*
X-6775602Y-50865454D01*
X-6783124Y-50866475D01*
X-7613023Y-50702227D01*
X-7620473Y-50697260D01*
X-7622228Y-50693022D01*
X-7786476Y-49863121D01*
X-7784721Y-49854341D01*
X-7778683Y-49849746D01*
X-6487980Y-49421978D01*
X-6479050Y-49422628D01*
G37*
%TD.AperFunction*%
%TD*%
%TA.AperFunction,Conductor*%
%TO.N,ADC2*%
G36*
X3280930Y-21055835D02*
G01*
X3288358Y-21060834D01*
X3290077Y-21069622D01*
X3289608Y-21071290D01*
X3102796Y-21586524D01*
X3096755Y-21593134D01*
X3091797Y-21594236D01*
X2908203Y-21594236D01*
X2899930Y-21590809D01*
X2897204Y-21586524D01*
X2849544Y-21455078D01*
X2710391Y-21071288D01*
X2710792Y-21062344D01*
X2717402Y-21056303D01*
X2719056Y-21055837D01*
X2997682Y-20999469D01*
X3002318Y-20999469D01*
X3280930Y-21055835D01*
G37*
%TD.AperFunction*%
%TD*%
%TA.AperFunction,Conductor*%
%TO.N,Net-(C203-Pad1)*%
G36*
X2938622Y29207748D02*
G01*
X4123770Y29087845D01*
X4131655Y29083602D01*
X4134232Y29075026D01*
X4134069Y29073935D01*
X4001650Y28404065D01*
X3996684Y28396614D01*
X3996659Y28396597D01*
X3428231Y28017937D01*
X3419445Y28016202D01*
X3412007Y28021187D01*
X3411681Y28021705D01*
X2796331Y29059069D01*
X2795058Y29067933D01*
X2798119Y29073309D01*
X2929190Y29204380D01*
X2937462Y29207806D01*
X2938622Y29207748D01*
G37*
%TD.AperFunction*%
%TD*%
%TA.AperFunction,Conductor*%
%TO.N,+3.3V*%
G36*
X-10503422Y-6998511D02*
G01*
X-10495746Y-7003122D01*
X-10493450Y-7010083D01*
X-10493450Y-7989916D01*
X-10496877Y-7998189D01*
X-10503423Y-8001488D01*
X-11732426Y-8184906D01*
X-11741114Y-8182738D01*
X-11745625Y-8175634D01*
X-11880540Y-7502295D01*
X-11880540Y-7497704D01*
X-11745624Y-6824364D01*
X-11740640Y-6816928D01*
X-11732427Y-6815093D01*
X-10503422Y-6998511D01*
G37*
%TD.AperFunction*%
%TD*%
%TA.AperFunction,Conductor*%
%TO.N,Net-(C205-Pad1)*%
G36*
X1016730Y38783064D02*
G01*
X1584186Y38405051D01*
X1589171Y38397613D01*
X1589172Y38393022D01*
X1455535Y37723958D01*
X1450554Y37716517D01*
X1442785Y37714620D01*
X467618Y37821662D01*
X460622Y37825019D01*
X329654Y37955987D01*
X326227Y37964260D01*
X328926Y37971735D01*
X1001245Y38780807D01*
X1009168Y38784977D01*
X1016730Y38783064D01*
G37*
%TD.AperFunction*%
%TD*%
%TA.AperFunction,Conductor*%
%TO.N,GND*%
G36*
X19475634Y43265625D02*
G01*
X19483071Y43260640D01*
X19484906Y43252426D01*
X19301488Y42023423D01*
X19296877Y42015746D01*
X19289916Y42013450D01*
X18310084Y42013450D01*
X18301811Y42016877D01*
X18298512Y42023423D01*
X18115093Y43252426D01*
X18117261Y43261114D01*
X18124364Y43265624D01*
X18797704Y43400540D01*
X18802296Y43400540D01*
X19475634Y43265625D01*
G37*
%TD.AperFunction*%
%TD*%
%TA.AperFunction,Conductor*%
%TO.N,Net-(U201C--)*%
G36*
X-6088265Y34448221D02*
G01*
X-6085082Y34445959D01*
X-5954042Y34314919D01*
X-5950615Y34306646D01*
X-5951267Y34302796D01*
X-6310105Y33273037D01*
X-6316063Y33266352D01*
X-6323422Y33265409D01*
X-6993018Y33397774D01*
X-7000469Y33402740D01*
X-7002227Y33406983D01*
X-7134592Y34076579D01*
X-7132834Y34085360D01*
X-7126967Y34089895D01*
X-6097203Y34448734D01*
X-6088265Y34448221D01*
G37*
%TD.AperFunction*%
%TD*%
%TA.AperFunction,Conductor*%
%TO.N,CH02*%
G36*
X-24778986Y4081201D02*
G01*
X-24776776Y4078124D01*
X-24219386Y2953658D01*
X-24218782Y2944724D01*
X-24223359Y2938741D01*
X-24873490Y2503360D01*
X-24882271Y2501603D01*
X-24886510Y2503360D01*
X-25536642Y2938741D01*
X-25541610Y2946191D01*
X-25540615Y2953658D01*
X-24983224Y4078124D01*
X-24976479Y4084015D01*
X-24972741Y4084628D01*
X-24787259Y4084628D01*
X-24778986Y4081201D01*
G37*
%TD.AperFunction*%
%TD*%
%TA.AperFunction,Conductor*%
%TO.N,Net-(A201-A5{slash}SCL)*%
G36*
X8760950Y-44342628D02*
G01*
X8763973Y-44344811D01*
X8895188Y-44476026D01*
X8898615Y-44484299D01*
X8898021Y-44487980D01*
X8470254Y-45778679D01*
X8464398Y-45785454D01*
X8456876Y-45786475D01*
X7626977Y-45622227D01*
X7619527Y-45617260D01*
X7617772Y-45613022D01*
X7453524Y-44783121D01*
X7455279Y-44774341D01*
X7461317Y-44769746D01*
X8752020Y-44341978D01*
X8760950Y-44342628D01*
G37*
%TD.AperFunction*%
%TD*%
%TA.AperFunction,Conductor*%
%TO.N,CH01*%
G36*
X-24426343Y-11739385D02*
G01*
X-23301876Y-12296776D01*
X-23295985Y-12303521D01*
X-23295372Y-12307259D01*
X-23295372Y-12492740D01*
X-23298799Y-12501013D01*
X-23301876Y-12503223D01*
X-24426343Y-13060614D01*
X-24435277Y-13061218D01*
X-24441260Y-13056641D01*
X-24876642Y-12406508D01*
X-24878398Y-12397729D01*
X-24876643Y-12393492D01*
X-24441259Y-11743356D01*
X-24433810Y-11738390D01*
X-24426343Y-11739385D01*
G37*
%TD.AperFunction*%
%TD*%
%TA.AperFunction,Conductor*%
%TO.N,Net-(J104-Pin_2)*%
G36*
X33768051Y8077607D02*
G01*
X33989794Y7970469D01*
X34749940Y7603194D01*
X34755898Y7596509D01*
X34756550Y7592659D01*
X34756550Y7407342D01*
X34753123Y7399069D01*
X34749940Y7396807D01*
X33768051Y6922394D01*
X33759111Y6921881D01*
X33753241Y6926417D01*
X33373361Y7493489D01*
X33371604Y7502269D01*
X33373362Y7506512D01*
X33753242Y8073585D01*
X33760692Y8078550D01*
X33768051Y8077607D01*
G37*
%TD.AperFunction*%
%TD*%
%TA.AperFunction,Conductor*%
%TO.N,CH05*%
G36*
X-969070Y-35055835D02*
G01*
X-961642Y-35060834D01*
X-959923Y-35069622D01*
X-960392Y-35071290D01*
X-1147204Y-35586524D01*
X-1153245Y-35593134D01*
X-1158203Y-35594236D01*
X-1341797Y-35594236D01*
X-1350070Y-35590809D01*
X-1352796Y-35586524D01*
X-1400456Y-35455078D01*
X-1539609Y-35071288D01*
X-1539208Y-35062344D01*
X-1532598Y-35056303D01*
X-1530944Y-35055837D01*
X-1252318Y-34999469D01*
X-1247682Y-34999469D01*
X-969070Y-35055835D01*
G37*
%TD.AperFunction*%
%TD*%
%TA.AperFunction,Conductor*%
%TO.N,ADC0*%
G36*
X5355277Y-14514902D02*
G01*
X5485097Y-14644722D01*
X5488524Y-14652995D01*
X5487422Y-14657953D01*
X5255193Y-15154373D01*
X5248583Y-15160414D01*
X5239637Y-15160013D01*
X5238127Y-15159164D01*
X5001265Y-15002015D01*
X4997984Y-14998734D01*
X4840835Y-14761872D01*
X4839116Y-14753084D01*
X4844116Y-14745655D01*
X4845621Y-14744808D01*
X5342048Y-14512576D01*
X5350992Y-14512176D01*
X5355277Y-14514902D01*
G37*
%TD.AperFunction*%
%TD*%
%TA.AperFunction,Conductor*%
%TO.N,Net-(D204-A)*%
G36*
X-12018741Y44056642D02*
G01*
X-11583360Y43406510D01*
X-11581603Y43397729D01*
X-11583360Y43393490D01*
X-12018741Y42743359D01*
X-12026191Y42738391D01*
X-12033658Y42739386D01*
X-13158124Y43296777D01*
X-13164015Y43303522D01*
X-13164628Y43307260D01*
X-13164628Y43492741D01*
X-13161201Y43501014D01*
X-13158124Y43503224D01*
X-12033658Y44060616D01*
X-12024724Y44061219D01*
X-12018741Y44056642D01*
G37*
%TD.AperFunction*%
%TD*%
%TA.AperFunction,Conductor*%
%TO.N,Net-(J104-Pin_4)*%
G36*
X43408037Y-1380827D02*
G01*
X44009554Y-2000000D01*
X44294338Y-2293142D01*
X44297645Y-2301464D01*
X44295607Y-2307894D01*
X43576196Y-3361122D01*
X43568700Y-3366021D01*
X43563838Y-3365908D01*
X42028248Y-3002132D01*
X42020988Y-2996890D01*
X42019245Y-2990747D01*
X42019245Y-2007551D01*
X42022672Y-1999278D01*
X42026123Y-1996891D01*
X43394828Y-1378318D01*
X43403778Y-1378035D01*
X43408037Y-1380827D01*
G37*
%TD.AperFunction*%
%TD*%
%TA.AperFunction,Conductor*%
%TO.N,CH01*%
G36*
X-18703051Y-12172596D02*
G01*
X-18696726Y-12178935D01*
X-18696541Y-12179413D01*
X-18140072Y-13714046D01*
X-18140473Y-13722991D01*
X-18142798Y-13726307D01*
X-18273693Y-13857202D01*
X-18281966Y-13860629D01*
X-18285954Y-13859928D01*
X-19820587Y-13303459D01*
X-19827197Y-13297417D01*
X-19827598Y-13288472D01*
X-19827430Y-13288036D01*
X-19503269Y-12503076D01*
X-19496948Y-12496741D01*
X-18712004Y-12172587D01*
X-18703051Y-12172596D01*
G37*
%TD.AperFunction*%
%TD*%
%TA.AperFunction,Conductor*%
%TO.N,+3.3V*%
G36*
X-25018887Y-1717261D02*
G01*
X-25014376Y-1724366D01*
X-24879461Y-2397701D01*
X-24879461Y-2402299D01*
X-25014376Y-3075633D01*
X-25019361Y-3083071D01*
X-25027575Y-3084906D01*
X-26256577Y-2901488D01*
X-26264254Y-2896877D01*
X-26266550Y-2889916D01*
X-26266550Y-1910083D01*
X-26263123Y-1901810D01*
X-26256579Y-1898511D01*
X-25027574Y-1715093D01*
X-25018887Y-1717261D01*
G37*
%TD.AperFunction*%
%TD*%
%TA.AperFunction,Conductor*%
%TO.N,+3.3V*%
G36*
X-31846937Y-42221206D02*
G01*
X-30908396Y-42497528D01*
X-30901427Y-42503152D01*
X-30900000Y-42508752D01*
X-30900000Y-43491247D01*
X-30903427Y-43499520D01*
X-30908396Y-43502471D01*
X-31846932Y-43778792D01*
X-31855836Y-43777841D01*
X-31859248Y-43775030D01*
X-32494823Y-43007460D01*
X-32497459Y-42998904D01*
X-32494823Y-42992539D01*
X-31859246Y-42224967D01*
X-31851332Y-42220782D01*
X-31846937Y-42221206D01*
G37*
%TD.AperFunction*%
%TD*%
%TA.AperFunction,Conductor*%
%TO.N,CH06*%
G36*
X25366758Y-37426416D02*
G01*
X25746637Y-37993488D01*
X25748395Y-38002269D01*
X25746637Y-38006512D01*
X25366758Y-38573583D01*
X25359307Y-38578549D01*
X25351948Y-38577606D01*
X24370060Y-38103193D01*
X24364102Y-38096508D01*
X24363450Y-38092658D01*
X24363450Y-37907341D01*
X24366877Y-37899068D01*
X24370058Y-37896806D01*
X25351948Y-37422392D01*
X25360888Y-37421880D01*
X25366758Y-37426416D01*
G37*
%TD.AperFunction*%
%TD*%
%TA.AperFunction,Conductor*%
%TO.N,+3.3V*%
G36*
X14257460Y-43005177D02*
G01*
X15025030Y-43640752D01*
X15029217Y-43648668D01*
X15028792Y-43653068D01*
X14752472Y-44591604D01*
X14746848Y-44598573D01*
X14741248Y-44600000D01*
X13758752Y-44600000D01*
X13750479Y-44596573D01*
X13747528Y-44591604D01*
X13471207Y-43653066D01*
X13472158Y-43644164D01*
X13474965Y-43640756D01*
X14242539Y-43005177D01*
X14251096Y-43002541D01*
X14257460Y-43005177D01*
G37*
%TD.AperFunction*%
%TD*%
%TA.AperFunction,Conductor*%
%TO.N,+3.3V*%
G36*
X14749521Y-26403427D02*
G01*
X14752472Y-26408396D01*
X15028792Y-27346931D01*
X15027841Y-27355835D01*
X15025030Y-27359247D01*
X14257462Y-27994821D01*
X14248904Y-27997458D01*
X14242538Y-27994821D01*
X13474969Y-27359247D01*
X13470782Y-27351331D01*
X13471206Y-27346936D01*
X13747528Y-26408395D01*
X13753152Y-26401427D01*
X13758752Y-26400000D01*
X14741248Y-26400000D01*
X14749521Y-26403427D01*
G37*
%TD.AperFunction*%
%TD*%
%TA.AperFunction,Conductor*%
%TO.N,+3.3V*%
G36*
X14257460Y-28005177D02*
G01*
X15025030Y-28640752D01*
X15029217Y-28648668D01*
X15028792Y-28653068D01*
X14752472Y-29591604D01*
X14746848Y-29598573D01*
X14741248Y-29600000D01*
X13758752Y-29600000D01*
X13750479Y-29596573D01*
X13747528Y-29591604D01*
X13471207Y-28653066D01*
X13472158Y-28644164D01*
X13474965Y-28640756D01*
X14242539Y-28005177D01*
X14251096Y-28002541D01*
X14257460Y-28005177D01*
G37*
%TD.AperFunction*%
%TD*%
%TA.AperFunction,Conductor*%
%TO.N,+3.3V*%
G36*
X25611113Y-32317261D02*
G01*
X25615624Y-32324366D01*
X25750539Y-32997701D01*
X25750539Y-33002299D01*
X25615624Y-33675633D01*
X25610639Y-33683071D01*
X25602425Y-33684906D01*
X24373423Y-33501488D01*
X24365746Y-33496877D01*
X24363450Y-33489916D01*
X24363450Y-32510083D01*
X24366877Y-32501810D01*
X24373421Y-32498511D01*
X25602426Y-32315093D01*
X25611113Y-32317261D01*
G37*
%TD.AperFunction*%
%TD*%
%TA.AperFunction,Conductor*%
%TO.N,Net-(U201C--)*%
G36*
X8282051Y39424000D02*
G01*
X9336592Y39089711D01*
X9343442Y39083944D01*
X9344534Y39076289D01*
X9212226Y38406983D01*
X9207260Y38399532D01*
X9203017Y38397774D01*
X8533132Y38265352D01*
X8524351Y38267110D01*
X8519932Y38272659D01*
X8136552Y39277648D01*
X8136805Y39286597D01*
X8139208Y39290086D01*
X8270243Y39421121D01*
X8278515Y39424547D01*
X8282051Y39424000D01*
G37*
%TD.AperFunction*%
%TD*%
%TA.AperFunction,Conductor*%
%TO.N,+3.3V*%
G36*
X-25452505Y28782555D02*
G01*
X-24881244Y28402007D01*
X-24877994Y28398757D01*
X-24497105Y27826984D01*
X-24495370Y27818198D01*
X-24499622Y27811290D01*
X-25473725Y27047407D01*
X-25482350Y27044999D01*
X-25489218Y27048341D01*
X-26182058Y27741181D01*
X-26185485Y27749454D01*
X-26183377Y27756154D01*
X-26133904Y27826984D01*
X-25468582Y28779519D01*
X-25461036Y28784337D01*
X-25452505Y28782555D01*
G37*
%TD.AperFunction*%
%TD*%
%TA.AperFunction,Conductor*%
%TO.N,+3.3V*%
G36*
X-438025Y53836513D02*
G01*
X-430585Y53831529D01*
X-428848Y53822744D01*
X-428894Y53822528D01*
X-757980Y52325521D01*
X-763103Y52318177D01*
X-769407Y52316333D01*
X-1750593Y52316333D01*
X-1758866Y52319760D01*
X-1762020Y52325521D01*
X-2091107Y53822528D01*
X-2089536Y53831344D01*
X-2082192Y53836467D01*
X-2082014Y53836505D01*
X-1262294Y54000541D01*
X-1257706Y54000541D01*
X-438025Y53836513D01*
G37*
%TD.AperFunction*%
%TD*%
%TA.AperFunction,Conductor*%
%TO.N,CH05*%
G36*
X21876510Y-23003361D02*
G01*
X22443583Y-23383241D01*
X22448549Y-23390692D01*
X22447606Y-23398051D01*
X21973194Y-24379940D01*
X21966509Y-24385898D01*
X21962659Y-24386550D01*
X21777341Y-24386550D01*
X21769068Y-24383123D01*
X21766806Y-24379940D01*
X21292393Y-23398051D01*
X21291880Y-23389111D01*
X21296414Y-23383242D01*
X21863488Y-23003361D01*
X21872269Y-23001604D01*
X21876510Y-23003361D01*
G37*
%TD.AperFunction*%
%TD*%
%TA.AperFunction,Conductor*%
%TO.N,Net-(A201-A4{slash}SDA)*%
G36*
X18071282Y-16210389D02*
G01*
X18586525Y-16397204D01*
X18593134Y-16403244D01*
X18594236Y-16408202D01*
X18594236Y-16591797D01*
X18590809Y-16600070D01*
X18586524Y-16602796D01*
X18071290Y-16789608D01*
X18062344Y-16789207D01*
X18056303Y-16782597D01*
X18055837Y-16780939D01*
X17999469Y-16502318D01*
X17999469Y-16497680D01*
X18055835Y-16219067D01*
X18060834Y-16211641D01*
X18069622Y-16209922D01*
X18071282Y-16210389D01*
G37*
%TD.AperFunction*%
%TD*%
%TA.AperFunction,Conductor*%
%TO.N,ADC1*%
G36*
X9066510Y33396639D02*
G01*
X9633583Y33016759D01*
X9638549Y33009308D01*
X9637606Y33001949D01*
X9163194Y32020060D01*
X9156509Y32014102D01*
X9152659Y32013450D01*
X8967341Y32013450D01*
X8959068Y32016877D01*
X8956806Y32020060D01*
X8482393Y33001949D01*
X8481880Y33010889D01*
X8486414Y33016758D01*
X9053488Y33396639D01*
X9062269Y33398396D01*
X9066510Y33396639D01*
G37*
%TD.AperFunction*%
%TD*%
%TA.AperFunction,Conductor*%
%TO.N,+3.3V*%
G36*
X14749521Y-41403427D02*
G01*
X14752472Y-41408396D01*
X15028792Y-42346931D01*
X15027841Y-42355835D01*
X15025030Y-42359247D01*
X14257462Y-42994821D01*
X14248904Y-42997458D01*
X14242538Y-42994821D01*
X13474969Y-42359247D01*
X13470782Y-42351331D01*
X13471206Y-42346936D01*
X13747528Y-41408395D01*
X13753152Y-41401427D01*
X13758752Y-41400000D01*
X14741248Y-41400000D01*
X14749521Y-41403427D01*
G37*
%TD.AperFunction*%
%TD*%
%TA.AperFunction,Conductor*%
%TO.N,Net-(D202-A)*%
G36*
X-20029753Y24169763D02*
G01*
X-19317291Y23458279D01*
X-19313858Y23450008D01*
X-19317279Y23441733D01*
X-19317291Y23441721D01*
X-20029753Y22730238D01*
X-20038028Y22726817D01*
X-20044842Y22729012D01*
X-20905122Y23346499D01*
X-20909845Y23354107D01*
X-20910000Y23356004D01*
X-20910000Y23543997D01*
X-20906573Y23552270D01*
X-20905128Y23553498D01*
X-20044841Y24170990D01*
X-20036123Y24173029D01*
X-20029753Y24169763D01*
G37*
%TD.AperFunction*%
%TD*%
%TA.AperFunction,Conductor*%
%TO.N,Net-(D202-A)*%
G36*
X-19207731Y25046573D02*
G01*
X-19206499Y25045122D01*
X-18589012Y24184842D01*
X-18586972Y24176123D01*
X-18590238Y24169753D01*
X-19301721Y23457291D01*
X-19309992Y23453858D01*
X-19318267Y23457279D01*
X-19318279Y23457291D01*
X-20029763Y24169753D01*
X-20033184Y24178028D01*
X-20030990Y24184840D01*
X-19413501Y25045122D01*
X-19405893Y25049845D01*
X-19403996Y25050000D01*
X-19216004Y25050000D01*
X-19207731Y25046573D01*
G37*
%TD.AperFunction*%
%TD*%
%TA.AperFunction,Conductor*%
%TO.N,ADC0*%
G36*
X15916758Y43973584D02*
G01*
X16296637Y43406512D01*
X16298395Y43397731D01*
X16296637Y43393488D01*
X15916758Y42826417D01*
X15909307Y42821451D01*
X15901948Y42822394D01*
X14920060Y43296807D01*
X14914102Y43303492D01*
X14913450Y43307342D01*
X14913450Y43492659D01*
X14916877Y43500932D01*
X14920058Y43503194D01*
X15901948Y43977608D01*
X15910888Y43978120D01*
X15916758Y43973584D01*
G37*
%TD.AperFunction*%
%TD*%
%TA.AperFunction,Conductor*%
%TO.N,+3.3V*%
G36*
X-23502973Y28851803D02*
G01*
X-23495483Y28846898D01*
X-23493450Y28840307D01*
X-23493450Y27860492D01*
X-23496877Y27852219D01*
X-23503879Y27848861D01*
X-24732797Y27714613D01*
X-24741394Y27717121D01*
X-24745540Y27723945D01*
X-24770569Y27848861D01*
X-24880540Y28397705D01*
X-24880540Y28402296D01*
X-24745711Y29075204D01*
X-24740727Y29082639D01*
X-24732065Y29084398D01*
X-23502973Y28851803D01*
G37*
%TD.AperFunction*%
%TD*%
%TA.AperFunction,Conductor*%
%TO.N,+3.3V*%
G36*
X7800703Y-62556537D02*
G01*
X9322164Y-62997553D01*
X9329155Y-63003146D01*
X9330606Y-63008789D01*
X9330606Y-63990024D01*
X9327179Y-63998297D01*
X9320756Y-64001577D01*
X7799594Y-64245225D01*
X7790883Y-64243149D01*
X7786271Y-64235968D01*
X7739371Y-64001577D01*
X7619459Y-63402293D01*
X7619459Y-63397704D01*
X7785981Y-62565478D01*
X7790965Y-62558040D01*
X7799750Y-62556303D01*
X7800703Y-62556537D01*
G37*
%TD.AperFunction*%
%TD*%
%TA.AperFunction,Conductor*%
%TO.N,Net-(J101-Pin_3)*%
G36*
X-32638887Y-1717261D02*
G01*
X-32634376Y-1724366D01*
X-32499461Y-2397701D01*
X-32499461Y-2402299D01*
X-32634376Y-3075633D01*
X-32639361Y-3083071D01*
X-32647575Y-3084906D01*
X-33876577Y-2901488D01*
X-33884254Y-2896877D01*
X-33886550Y-2889916D01*
X-33886550Y-1910083D01*
X-33883123Y-1901810D01*
X-33876579Y-1898511D01*
X-32647574Y-1715093D01*
X-32638887Y-1717261D01*
G37*
%TD.AperFunction*%
%TD*%
%TA.AperFunction,Conductor*%
%TO.N,ADC0*%
G36*
X9608051Y43977607D02*
G01*
X9829794Y43870469D01*
X10589940Y43503194D01*
X10595898Y43496509D01*
X10596550Y43492659D01*
X10596550Y43307342D01*
X10593123Y43299069D01*
X10589940Y43296807D01*
X9608051Y42822394D01*
X9599111Y42821881D01*
X9593241Y42826417D01*
X9213361Y43393489D01*
X9211604Y43402269D01*
X9213362Y43406512D01*
X9593242Y43973585D01*
X9600692Y43978550D01*
X9608051Y43977607D01*
G37*
%TD.AperFunction*%
%TD*%
%TA.AperFunction,Conductor*%
%TO.N,+3.3V*%
G36*
X14925634Y-7634375D02*
G01*
X14933071Y-7639360D01*
X14934906Y-7647574D01*
X14751488Y-8876577D01*
X14746877Y-8884254D01*
X14739916Y-8886550D01*
X13760084Y-8886550D01*
X13751811Y-8883123D01*
X13748512Y-8876577D01*
X13565093Y-7647574D01*
X13567261Y-7638886D01*
X13574364Y-7634376D01*
X14247704Y-7499460D01*
X14252296Y-7499460D01*
X14925634Y-7634375D01*
G37*
%TD.AperFunction*%
%TD*%
%TA.AperFunction,Conductor*%
%TO.N,+3.3V*%
G36*
X25611113Y-17317261D02*
G01*
X25615624Y-17324366D01*
X25750539Y-17997701D01*
X25750539Y-18002299D01*
X25615624Y-18675633D01*
X25610639Y-18683071D01*
X25602425Y-18684906D01*
X24373423Y-18501488D01*
X24365746Y-18496877D01*
X24363450Y-18489916D01*
X24363450Y-17510083D01*
X24366877Y-17501810D01*
X24373421Y-17498511D01*
X25602426Y-17315093D01*
X25611113Y-17317261D01*
G37*
%TD.AperFunction*%
%TD*%
%TA.AperFunction,Conductor*%
%TO.N,Net-(J102-Pin_5)*%
G36*
X-43468573Y-22005327D02*
G01*
X-42016701Y-22896575D01*
X-42011443Y-22903823D01*
X-42011122Y-22906546D01*
X-42011122Y-23093453D01*
X-42014549Y-23101726D01*
X-42016701Y-23103424D01*
X-43468573Y-23994672D01*
X-43477417Y-23996080D01*
X-43483725Y-23992140D01*
X-44215805Y-23103424D01*
X-44294874Y-23007437D01*
X-44297488Y-22998875D01*
X-44294874Y-22992563D01*
X-43483725Y-22007858D01*
X-43475819Y-22003652D01*
X-43468573Y-22005327D01*
G37*
%TD.AperFunction*%
%TD*%
%TA.AperFunction,Conductor*%
%TO.N,Net-(A201-A5{slash}SCL)*%
G36*
X10316498Y-21064188D02*
G01*
X10316557Y-21064227D01*
X10553418Y-21223442D01*
X10558372Y-21230901D01*
X10557366Y-21238364D01*
X10353228Y-21648602D01*
X10346474Y-21654482D01*
X10342753Y-21655090D01*
X10159165Y-21655090D01*
X10150892Y-21651663D01*
X10147805Y-21646192D01*
X10045366Y-21230901D01*
X10021186Y-21132874D01*
X10022532Y-21124023D01*
X10029744Y-21118714D01*
X10030181Y-21118615D01*
X10307710Y-21062469D01*
X10316498Y-21064188D01*
G37*
%TD.AperFunction*%
%TD*%
%TA.AperFunction,Conductor*%
%TO.N,CH05*%
G36*
X22323657Y-27339385D02*
G01*
X23448124Y-27896776D01*
X23454015Y-27903521D01*
X23454628Y-27907259D01*
X23454628Y-28092740D01*
X23451201Y-28101013D01*
X23448124Y-28103223D01*
X22323657Y-28660614D01*
X22314723Y-28661218D01*
X22308740Y-28656641D01*
X21873358Y-28006508D01*
X21871602Y-27997729D01*
X21873357Y-27993492D01*
X22308741Y-27343356D01*
X22316190Y-27338390D01*
X22323657Y-27339385D01*
G37*
%TD.AperFunction*%
%TD*%
%TA.AperFunction,Conductor*%
%TO.N,CH08*%
G36*
X22268051Y-6922393D02*
G01*
X22489794Y-7029531D01*
X23249940Y-7396806D01*
X23255898Y-7403491D01*
X23256550Y-7407341D01*
X23256550Y-7592658D01*
X23253123Y-7600931D01*
X23249940Y-7603193D01*
X22268051Y-8077606D01*
X22259111Y-8078119D01*
X22253241Y-8073583D01*
X21873361Y-7506511D01*
X21871604Y-7497731D01*
X21873362Y-7493488D01*
X22253242Y-6926415D01*
X22260692Y-6921450D01*
X22268051Y-6922393D01*
G37*
%TD.AperFunction*%
%TD*%
%TA.AperFunction,Conductor*%
%TO.N,CH03*%
G36*
X-24838655Y-41418799D02*
G01*
X-24836669Y-41421447D01*
X-24219972Y-42546155D01*
X-24218999Y-42555057D01*
X-24223721Y-42561501D01*
X-24873490Y-42996640D01*
X-24882271Y-42998397D01*
X-24886510Y-42996640D01*
X-25537006Y-42561015D01*
X-25541974Y-42553565D01*
X-25541193Y-42546554D01*
X-25043084Y-41422332D01*
X-25036600Y-41416157D01*
X-25032387Y-41415372D01*
X-24846928Y-41415372D01*
X-24838655Y-41418799D01*
G37*
%TD.AperFunction*%
%TD*%
%TA.AperFunction,Conductor*%
%TO.N,CH03*%
G36*
X-19397731Y-41403427D02*
G01*
X-19396499Y-41404878D01*
X-18779012Y-42265158D01*
X-18776972Y-42273877D01*
X-18780238Y-42280247D01*
X-19491721Y-42992709D01*
X-19499992Y-42996142D01*
X-19508267Y-42992721D01*
X-19508279Y-42992709D01*
X-20219763Y-42280247D01*
X-20223184Y-42271972D01*
X-20220990Y-42265160D01*
X-19603501Y-41404878D01*
X-19595893Y-41400155D01*
X-19593996Y-41400000D01*
X-19406004Y-41400000D01*
X-19397731Y-41403427D01*
G37*
%TD.AperFunction*%
%TD*%
%TA.AperFunction,Conductor*%
%TO.N,+3.3V*%
G36*
X-23453422Y43901489D02*
G01*
X-23445746Y43896878D01*
X-23443450Y43889917D01*
X-23443450Y42910084D01*
X-23446877Y42901811D01*
X-23453423Y42898512D01*
X-24682426Y42715094D01*
X-24691114Y42717262D01*
X-24695625Y42724366D01*
X-24830540Y43397705D01*
X-24830540Y43402296D01*
X-24695624Y44075636D01*
X-24690640Y44083072D01*
X-24682427Y44084907D01*
X-23453422Y43901489D01*
G37*
%TD.AperFunction*%
%TD*%
%TA.AperFunction,Conductor*%
%TO.N,CH02*%
G36*
X-24481949Y8177607D02*
G01*
X-24260206Y8070469D01*
X-23500060Y7703194D01*
X-23494102Y7696509D01*
X-23493450Y7692659D01*
X-23493450Y7507342D01*
X-23496877Y7499069D01*
X-23500060Y7496807D01*
X-24481949Y7022394D01*
X-24490889Y7021881D01*
X-24496759Y7026417D01*
X-24876639Y7593489D01*
X-24878396Y7602269D01*
X-24876638Y7606512D01*
X-24496758Y8173585D01*
X-24489308Y8178550D01*
X-24481949Y8177607D01*
G37*
%TD.AperFunction*%
%TD*%
%TA.AperFunction,Conductor*%
%TO.N,Net-(J201-Pin_3)*%
G36*
X-43487402Y29415414D02*
G01*
X-42019303Y28952580D01*
X-42012444Y28946824D01*
X-42011122Y28941421D01*
X-42011122Y27958168D01*
X-42014549Y27949895D01*
X-42018788Y27947185D01*
X-43451481Y27420947D01*
X-43460428Y27421312D01*
X-43464397Y27424314D01*
X-44294724Y28392681D01*
X-44297508Y28401192D01*
X-44295016Y28407558D01*
X-43500090Y29411518D01*
X-43492268Y29415876D01*
X-43487402Y29415414D01*
G37*
%TD.AperFunction*%
%TD*%
%TA.AperFunction,Conductor*%
%TO.N,CH01*%
G36*
X-7791474Y-42237243D02*
G01*
X-7786198Y-42244479D01*
X-7786096Y-42244940D01*
X-7620827Y-43073025D01*
X-7622569Y-43081809D01*
X-7625812Y-43085051D01*
X-8330047Y-43554450D01*
X-8338832Y-43556187D01*
X-8344840Y-43552957D01*
X-9199617Y-42691864D01*
X-9203013Y-42683578D01*
X-9199587Y-42675349D01*
X-9068732Y-42544494D01*
X-9063215Y-42541398D01*
X-7800320Y-42235858D01*
X-7791474Y-42237243D01*
G37*
%TD.AperFunction*%
%TD*%
%TA.AperFunction,Conductor*%
%TO.N,Net-(J201-Pin_3)*%
G36*
X-32638607Y29082880D02*
G01*
X-32634461Y29076056D01*
X-32499461Y28402299D01*
X-32499461Y28397701D01*
X-32634289Y27724800D01*
X-32639274Y27717362D01*
X-32647937Y27715603D01*
X-33877026Y27948198D01*
X-33884517Y27953103D01*
X-33886550Y27959694D01*
X-33886550Y28939509D01*
X-33883123Y28947782D01*
X-33876123Y28951140D01*
X-32647203Y29085388D01*
X-32638607Y29082880D01*
G37*
%TD.AperFunction*%
%TD*%
%TA.AperFunction,Conductor*%
%TO.N,+3.3V*%
G36*
X-31846937Y-27221206D02*
G01*
X-30908396Y-27497528D01*
X-30901427Y-27503152D01*
X-30900000Y-27508752D01*
X-30900000Y-28491247D01*
X-30903427Y-28499520D01*
X-30908396Y-28502471D01*
X-31846932Y-28778792D01*
X-31855836Y-28777841D01*
X-31859248Y-28775030D01*
X-32494823Y-28007460D01*
X-32497459Y-27998904D01*
X-32494823Y-27992539D01*
X-31859246Y-27224967D01*
X-31851332Y-27220782D01*
X-31846937Y-27221206D01*
G37*
%TD.AperFunction*%
%TD*%
%TA.AperFunction,Conductor*%
%TO.N,+3.3V*%
G36*
X-31846937Y3278794D02*
G01*
X-30908396Y3002472D01*
X-30901427Y2996848D01*
X-30900000Y2991248D01*
X-30900000Y2008753D01*
X-30903427Y2000480D01*
X-30908396Y1997529D01*
X-31846932Y1721208D01*
X-31855836Y1722159D01*
X-31859248Y1724970D01*
X-32494823Y2492540D01*
X-32497459Y2501096D01*
X-32494823Y2507461D01*
X-31859246Y3275033D01*
X-31851332Y3279218D01*
X-31846937Y3278794D01*
G37*
%TD.AperFunction*%
%TD*%
%TA.AperFunction,Conductor*%
%TO.N,ADC2*%
G36*
X6487978Y-51961977D02*
G01*
X7778680Y-52389746D01*
X7785454Y-52395601D01*
X7786475Y-52403123D01*
X7622227Y-53233022D01*
X7617260Y-53240472D01*
X7613022Y-53242227D01*
X6783123Y-53406475D01*
X6774341Y-53404720D01*
X6769746Y-53398680D01*
X6341978Y-52107979D01*
X6342628Y-52099049D01*
X6344808Y-52096029D01*
X6476027Y-51964810D01*
X6484299Y-51961384D01*
X6487978Y-51961977D01*
G37*
%TD.AperFunction*%
%TD*%
%TA.AperFunction,Conductor*%
%TO.N,CH04*%
G36*
X-24426343Y-27339385D02*
G01*
X-23301876Y-27896776D01*
X-23295985Y-27903521D01*
X-23295372Y-27907259D01*
X-23295372Y-28092740D01*
X-23298799Y-28101013D01*
X-23301876Y-28103223D01*
X-24426343Y-28660614D01*
X-24435277Y-28661218D01*
X-24441260Y-28656641D01*
X-24876642Y-28006508D01*
X-24878398Y-27997729D01*
X-24876643Y-27993492D01*
X-24441259Y-27343356D01*
X-24433810Y-27338390D01*
X-24426343Y-27339385D01*
G37*
%TD.AperFunction*%
%TD*%
%TA.AperFunction,Conductor*%
%TO.N,CH08*%
G36*
X25030247Y-11780237D02*
G01*
X25742709Y-12491721D01*
X25746142Y-12499992D01*
X25742721Y-12508267D01*
X25742709Y-12508279D01*
X25030247Y-13219762D01*
X25021972Y-13223183D01*
X25015158Y-13220988D01*
X24154878Y-12603501D01*
X24150155Y-12595893D01*
X24150000Y-12593996D01*
X24150000Y-12406003D01*
X24153427Y-12397730D01*
X24154872Y-12396502D01*
X25015159Y-11779010D01*
X25023877Y-11776971D01*
X25030247Y-11780237D01*
G37*
%TD.AperFunction*%
%TD*%
%TA.AperFunction,Conductor*%
%TO.N,Net-(J103-Pin_4)*%
G36*
X43478526Y-32003185D02*
G01*
X43482397Y-32006247D01*
X44294872Y-32992561D01*
X44297487Y-33001125D01*
X44294872Y-33007439D01*
X43482397Y-33993752D01*
X43474491Y-33997959D01*
X43469589Y-33997387D01*
X42019045Y-33502702D01*
X42012321Y-33496788D01*
X42011122Y-33491628D01*
X42011122Y-32508371D01*
X42014549Y-32500098D01*
X42019041Y-32497299D01*
X43469591Y-32002612D01*
X43478526Y-32003185D01*
G37*
%TD.AperFunction*%
%TD*%
%TA.AperFunction,Conductor*%
%TO.N,CH06*%
G36*
X22268051Y-37422393D02*
G01*
X22489794Y-37529531D01*
X23249940Y-37896806D01*
X23255898Y-37903491D01*
X23256550Y-37907341D01*
X23256550Y-38092658D01*
X23253123Y-38100931D01*
X23249940Y-38103193D01*
X22268051Y-38577606D01*
X22259111Y-38578119D01*
X22253241Y-38573583D01*
X21873361Y-38006511D01*
X21871604Y-37997731D01*
X21873362Y-37993488D01*
X22253242Y-37426415D01*
X22260692Y-37421450D01*
X22268051Y-37422393D01*
G37*
%TD.AperFunction*%
%TD*%
%TA.AperFunction,Conductor*%
%TO.N,CH04*%
G36*
X-19397731Y-26403427D02*
G01*
X-19396499Y-26404878D01*
X-18779012Y-27265158D01*
X-18776972Y-27273877D01*
X-18780238Y-27280247D01*
X-19491721Y-27992709D01*
X-19499992Y-27996142D01*
X-19508267Y-27992721D01*
X-19508279Y-27992709D01*
X-20219763Y-27280247D01*
X-20223184Y-27271972D01*
X-20220990Y-27265160D01*
X-19603501Y-26404878D01*
X-19595893Y-26400155D01*
X-19593996Y-26400000D01*
X-19406004Y-26400000D01*
X-19397731Y-26403427D01*
G37*
%TD.AperFunction*%
%TD*%
%TA.AperFunction,Conductor*%
%TO.N,CH04*%
G36*
X-24778986Y-26418799D02*
G01*
X-24776776Y-26421876D01*
X-24219386Y-27546342D01*
X-24218782Y-27555276D01*
X-24223359Y-27561259D01*
X-24873490Y-27996640D01*
X-24882271Y-27998397D01*
X-24886510Y-27996640D01*
X-25536642Y-27561259D01*
X-25541610Y-27553809D01*
X-25540615Y-27546342D01*
X-24983224Y-26421876D01*
X-24976479Y-26415985D01*
X-24972741Y-26415372D01*
X-24787259Y-26415372D01*
X-24778986Y-26418799D01*
G37*
%TD.AperFunction*%
%TD*%
%TA.AperFunction,Conductor*%
%TO.N,Net-(J201-Pin_3)*%
G36*
X-27144165Y32927842D02*
G01*
X-27140753Y32925031D01*
X-26505179Y32157462D01*
X-26502542Y32148904D01*
X-26505179Y32142538D01*
X-27140753Y31374970D01*
X-27148669Y31370783D01*
X-27153069Y31371208D01*
X-28091604Y31647529D01*
X-28098573Y31653153D01*
X-28100000Y31658753D01*
X-28100000Y32641248D01*
X-28096573Y32649521D01*
X-28091604Y32652472D01*
X-27153067Y32928793D01*
X-27144165Y32927842D01*
G37*
%TD.AperFunction*%
%TD*%
%TA.AperFunction,Conductor*%
%TO.N,Net-(D204-A)*%
G36*
X-11126343Y44060615D02*
G01*
X-10001876Y43503224D01*
X-9995985Y43496479D01*
X-9995372Y43492741D01*
X-9995372Y43307260D01*
X-9998799Y43298987D01*
X-10001876Y43296777D01*
X-11126343Y42739386D01*
X-11135277Y42738782D01*
X-11141260Y42743359D01*
X-11576642Y43393492D01*
X-11578398Y43402271D01*
X-11576643Y43406508D01*
X-11141259Y44056644D01*
X-11133810Y44061610D01*
X-11126343Y44060615D01*
G37*
%TD.AperFunction*%
%TD*%
%TA.AperFunction,Conductor*%
%TO.N,Net-(J201-Pin_3)*%
G36*
X-32707794Y30071616D02*
G01*
X-32016875Y29380697D01*
X-32013768Y29375142D01*
X-31816272Y28548376D01*
X-31817683Y28539533D01*
X-31824934Y28534278D01*
X-31825360Y28534185D01*
X-32498414Y28399752D01*
X-32503002Y28399753D01*
X-33059142Y28511063D01*
X-33173946Y28534041D01*
X-33181385Y28539023D01*
X-33183121Y28547808D01*
X-33182859Y28548861D01*
X-32727272Y30066709D01*
X-32721613Y30073645D01*
X-32712703Y30074549D01*
X-32707794Y30071616D01*
G37*
%TD.AperFunction*%
%TD*%
%TA.AperFunction,Conductor*%
%TO.N,+3.3V*%
G36*
X-25018887Y13182739D02*
G01*
X-25014376Y13175634D01*
X-24879461Y12502299D01*
X-24879461Y12497701D01*
X-25014376Y11824367D01*
X-25019361Y11816929D01*
X-25027575Y11815094D01*
X-26256577Y11998512D01*
X-26264254Y12003123D01*
X-26266550Y12010084D01*
X-26266550Y12989917D01*
X-26263123Y12998190D01*
X-26256579Y13001489D01*
X-25027574Y13184907D01*
X-25018887Y13182739D01*
G37*
%TD.AperFunction*%
%TD*%
%TA.AperFunction,Conductor*%
%TO.N,Net-(A201-A4{slash}SDA)*%
G36*
X8850315Y-46971634D02*
G01*
X8852536Y-46973374D01*
X8983705Y-47104543D01*
X8987132Y-47112816D01*
X8986197Y-47117399D01*
X8343579Y-48626817D01*
X8337185Y-48633087D01*
X8328231Y-48632999D01*
X8326325Y-48631970D01*
X7623337Y-48163402D01*
X7618354Y-48155963D01*
X7453688Y-47323950D01*
X7455443Y-47315170D01*
X7462363Y-47310320D01*
X8841464Y-46970287D01*
X8850315Y-46971634D01*
G37*
%TD.AperFunction*%
%TD*%
%TA.AperFunction,Conductor*%
%TO.N,Net-(A201-A5{slash}SCL)*%
G36*
X2112330Y54162070D02*
G01*
X2116922Y54156040D01*
X2538962Y52887034D01*
X2538321Y52878102D01*
X2536133Y52875069D01*
X2404931Y52743867D01*
X2396658Y52740440D01*
X2392966Y52741038D01*
X1123960Y53163078D01*
X1117191Y53168940D01*
X1116175Y53176451D01*
X1277772Y53993022D01*
X1282739Y54000473D01*
X1286977Y54002228D01*
X2103549Y54163825D01*
X2112330Y54162070D01*
G37*
%TD.AperFunction*%
%TD*%
%TA.AperFunction,Conductor*%
%TO.N,Net-(J201-Pin_6)*%
G36*
X-43469593Y44397389D02*
G01*
X-42019044Y43902702D01*
X-42012321Y43896789D01*
X-42011122Y43891629D01*
X-42011122Y42908372D01*
X-42014549Y42900099D01*
X-42019045Y42897298D01*
X-43469590Y42402613D01*
X-43478527Y42403186D01*
X-43482398Y42406248D01*
X-43886900Y42897298D01*
X-44294874Y43392563D01*
X-44297488Y43401125D01*
X-44294874Y43407437D01*
X-43482397Y44393754D01*
X-43474492Y44397960D01*
X-43469593Y44397389D01*
G37*
%TD.AperFunction*%
%TD*%
%TA.AperFunction,Conductor*%
%TO.N,ADC2*%
G36*
X8100932Y14383123D02*
G01*
X8103194Y14379940D01*
X8577606Y13398052D01*
X8578119Y13389112D01*
X8573583Y13383242D01*
X8006512Y13003363D01*
X7997731Y13001605D01*
X7993488Y13003363D01*
X7426416Y13383242D01*
X7421450Y13390693D01*
X7422393Y13398052D01*
X7896806Y14379940D01*
X7903491Y14385898D01*
X7907341Y14386550D01*
X8092659Y14386550D01*
X8100932Y14383123D01*
G37*
%TD.AperFunction*%
%TD*%
%TA.AperFunction,Conductor*%
%TO.N,+3.3V*%
G36*
X25551113Y-1817261D02*
G01*
X25555624Y-1824366D01*
X25690539Y-2497701D01*
X25690539Y-2502299D01*
X25555624Y-3175633D01*
X25550639Y-3183071D01*
X25542425Y-3184906D01*
X24313423Y-3001488D01*
X24305746Y-2996877D01*
X24303450Y-2989916D01*
X24303450Y-2010083D01*
X24306877Y-2001810D01*
X24313421Y-1998511D01*
X25542426Y-1815093D01*
X25551113Y-1817261D01*
G37*
%TD.AperFunction*%
%TD*%
%TA.AperFunction,Conductor*%
%TO.N,Net-(C205-Pad1)*%
G36*
X-3430065Y34205170D02*
G01*
X-3429190Y34204379D01*
X-3298122Y34073311D01*
X-3294695Y34065038D01*
X-3296332Y34059069D01*
X-3911682Y33021705D01*
X-3918850Y33016338D01*
X-3927714Y33017611D01*
X-3928232Y33017937D01*
X-4496660Y33396597D01*
X-4501645Y33404034D01*
X-4634070Y34073937D01*
X-4632312Y34082716D01*
X-4624861Y34087682D01*
X-4623785Y34087843D01*
X-3438639Y34207747D01*
X-3430065Y34205170D01*
G37*
%TD.AperFunction*%
%TD*%
%TA.AperFunction,Conductor*%
%TO.N,Net-(U201C--)*%
G36*
X-4562877Y38392722D02*
G01*
X-4562865Y38392710D01*
X-3851382Y37680248D01*
X-3847961Y37671973D01*
X-3850156Y37665159D01*
X-4467643Y36804878D01*
X-4475251Y36800155D01*
X-4477148Y36800000D01*
X-4665140Y36800000D01*
X-4673413Y36803427D01*
X-4674645Y36804878D01*
X-5292133Y37665159D01*
X-5294173Y37673878D01*
X-5290909Y37680246D01*
X-4579423Y38392711D01*
X-4571152Y38396143D01*
X-4562877Y38392722D01*
G37*
%TD.AperFunction*%
%TD*%
%TA.AperFunction,Conductor*%
%TO.N,CH03*%
G36*
X-8094046Y-47450522D02*
G01*
X-7623359Y-48153490D01*
X-7621604Y-48162272D01*
X-7623359Y-48166510D01*
X-8094046Y-48869477D01*
X-8101496Y-48874444D01*
X-8109018Y-48873423D01*
X-9324156Y-48263238D01*
X-9330012Y-48256463D01*
X-9330606Y-48252782D01*
X-9330606Y-48067217D01*
X-9327179Y-48058944D01*
X-9324156Y-48056761D01*
X-8109016Y-47446575D01*
X-8100087Y-47445926D01*
X-8094046Y-47450522D01*
G37*
%TD.AperFunction*%
%TD*%
%TA.AperFunction,Conductor*%
%TO.N,CH02*%
G36*
X-20139218Y8273177D02*
G01*
X-19505798Y7508210D01*
X-19503161Y7499652D01*
X-19506543Y7492469D01*
X-20219227Y6780764D01*
X-20227502Y6777343D01*
X-20234979Y6780050D01*
X-21095785Y7496492D01*
X-21099951Y7504419D01*
X-21100000Y7505485D01*
X-21100000Y7693425D01*
X-21096573Y7701698D01*
X-21094384Y7703419D01*
X-20154313Y8275710D01*
X-20145465Y8277084D01*
X-20139218Y8273177D01*
G37*
%TD.AperFunction*%
%TD*%
%TA.AperFunction,Conductor*%
%TO.N,+3.3V*%
G36*
X14748189Y-21616877D02*
G01*
X14751488Y-21623423D01*
X14934906Y-22852425D01*
X14932738Y-22861113D01*
X14925633Y-22865624D01*
X14252299Y-23000539D01*
X14247701Y-23000539D01*
X13574366Y-22865624D01*
X13566928Y-22860639D01*
X13565093Y-22852425D01*
X13748512Y-21623423D01*
X13753123Y-21615746D01*
X13760084Y-21613450D01*
X14739916Y-21613450D01*
X14748189Y-21616877D01*
G37*
%TD.AperFunction*%
%TD*%
%TA.AperFunction,Conductor*%
%TO.N,Net-(J104-Pin_4)*%
G36*
X34686578Y-1998511D02*
G01*
X34694254Y-2003122D01*
X34696550Y-2010083D01*
X34696550Y-2989916D01*
X34693123Y-2998189D01*
X34686577Y-3001488D01*
X33457574Y-3184906D01*
X33448886Y-3182738D01*
X33444375Y-3175634D01*
X33309460Y-2502295D01*
X33309460Y-2497704D01*
X33444376Y-1824364D01*
X33449360Y-1816928D01*
X33457573Y-1815093D01*
X34686578Y-1998511D01*
G37*
%TD.AperFunction*%
%TD*%
%TA.AperFunction,Conductor*%
%TO.N,GND*%
G36*
X19388653Y33779951D02*
G01*
X20127992Y32781219D01*
X20130160Y32772531D01*
X20126861Y32765985D01*
X19434015Y32073139D01*
X19425742Y32069712D01*
X19418781Y32072008D01*
X18420049Y32811347D01*
X18415438Y32819024D01*
X18417272Y32827236D01*
X18797995Y33398760D01*
X18801240Y33402005D01*
X19372764Y33782728D01*
X19381548Y33784462D01*
X19388653Y33779951D01*
G37*
%TD.AperFunction*%
%TD*%
%TA.AperFunction,Conductor*%
%TO.N,Net-(J201-Pin_6)*%
G36*
X-27144165Y49095462D02*
G01*
X-27140753Y49092651D01*
X-26505179Y48325082D01*
X-26502542Y48316524D01*
X-26505179Y48310158D01*
X-27140753Y47542590D01*
X-27148669Y47538403D01*
X-27153069Y47538828D01*
X-28091604Y47815149D01*
X-28098573Y47820773D01*
X-28100000Y47826373D01*
X-28100000Y48808868D01*
X-28096573Y48817141D01*
X-28091604Y48820092D01*
X-27153067Y49096413D01*
X-27144165Y49095462D01*
G37*
%TD.AperFunction*%
%TD*%
%TA.AperFunction,Conductor*%
%TO.N,ADC1*%
G36*
X6487978Y-57041977D02*
G01*
X7778680Y-57469746D01*
X7785454Y-57475601D01*
X7786475Y-57483123D01*
X7622227Y-58313022D01*
X7617260Y-58320472D01*
X7613022Y-58322227D01*
X6783123Y-58486475D01*
X6774341Y-58484720D01*
X6769746Y-58478680D01*
X6341978Y-57187979D01*
X6342628Y-57179049D01*
X6344808Y-57176029D01*
X6476027Y-57044810D01*
X6484299Y-57041384D01*
X6487978Y-57041977D01*
G37*
%TD.AperFunction*%
%TD*%
%TA.AperFunction,Conductor*%
%TO.N,CH02*%
G36*
X-19397731Y9096573D02*
G01*
X-19396499Y9095122D01*
X-18779012Y8234842D01*
X-18776972Y8226123D01*
X-18780238Y8219753D01*
X-19491721Y7507291D01*
X-19499992Y7503858D01*
X-19508267Y7507279D01*
X-19508279Y7507291D01*
X-20219763Y8219753D01*
X-20223184Y8228028D01*
X-20220990Y8234840D01*
X-19603501Y9095122D01*
X-19595893Y9099845D01*
X-19593996Y9100000D01*
X-19406004Y9100000D01*
X-19397731Y9096573D01*
G37*
%TD.AperFunction*%
%TD*%
%TA.AperFunction,Conductor*%
%TO.N,+3.3V*%
G36*
X31471666Y31929735D02*
G01*
X32268723Y30736035D01*
X32270467Y30727252D01*
X32267266Y30721265D01*
X31573735Y30027734D01*
X31565462Y30024307D01*
X31558965Y30026277D01*
X30365265Y30823334D01*
X30360288Y30830778D01*
X30362025Y30839551D01*
X30797994Y31493759D01*
X30801242Y31497006D01*
X31455449Y31932975D01*
X31464233Y31934710D01*
X31471666Y31929735D01*
G37*
%TD.AperFunction*%
%TD*%
%TA.AperFunction,Conductor*%
%TO.N,ADC0*%
G36*
X1780930Y-21055835D02*
G01*
X1788358Y-21060834D01*
X1790077Y-21069622D01*
X1789608Y-21071290D01*
X1602796Y-21586524D01*
X1596755Y-21593134D01*
X1591797Y-21594236D01*
X1408203Y-21594236D01*
X1399930Y-21590809D01*
X1397204Y-21586524D01*
X1349544Y-21455078D01*
X1210391Y-21071288D01*
X1210792Y-21062344D01*
X1217402Y-21056303D01*
X1219056Y-21055837D01*
X1497682Y-20999469D01*
X1502318Y-20999469D01*
X1780930Y-21055835D01*
G37*
%TD.AperFunction*%
%TD*%
%TA.AperFunction,Conductor*%
%TO.N,Net-(J104-Pin_2)*%
G36*
X43409447Y8617721D02*
G01*
X44294338Y7706858D01*
X44297645Y7698536D01*
X44295607Y7692106D01*
X43577396Y6640634D01*
X43569900Y6635735D01*
X43562549Y6636745D01*
X42025758Y7396779D01*
X42019862Y7403519D01*
X42019245Y7407267D01*
X42019245Y7594108D01*
X42022672Y7602381D01*
X42023978Y7603508D01*
X42163423Y7706858D01*
X43394089Y8618969D01*
X43402775Y8621141D01*
X43409447Y8617721D01*
G37*
%TD.AperFunction*%
%TD*%
%TA.AperFunction,Conductor*%
%TO.N,Net-(J101-Pin_3)*%
G36*
X-43433049Y-1339607D02*
G01*
X-42018531Y-1897080D01*
X-42012092Y-1903300D01*
X-42011122Y-1907964D01*
X-42011122Y-2891205D01*
X-42014549Y-2899478D01*
X-42019570Y-2902444D01*
X-43507655Y-3333029D01*
X-43516555Y-3332037D01*
X-43520227Y-3328863D01*
X-44295174Y-2307677D01*
X-44297446Y-2299015D01*
X-44294583Y-2292813D01*
X-43446062Y-1342698D01*
X-43437997Y-1338812D01*
X-43433049Y-1339607D01*
G37*
%TD.AperFunction*%
%TD*%
%TA.AperFunction,Conductor*%
%TO.N,Net-(J101-Pin_2)*%
G36*
X-43495081Y-6278384D02*
G01*
X-42017023Y-7121633D01*
X-42011536Y-7128708D01*
X-42011122Y-7131794D01*
X-42011122Y-7318696D01*
X-42014549Y-7326969D01*
X-42016386Y-7328467D01*
X-43441391Y-8267047D01*
X-43450185Y-8268736D01*
X-43456631Y-8264981D01*
X-44294649Y-7307258D01*
X-44297517Y-7298777D01*
X-44295087Y-7292383D01*
X-43510118Y-6281370D01*
X-43502339Y-6276939D01*
X-43495081Y-6278384D01*
G37*
%TD.AperFunction*%
%TD*%
%TA.AperFunction,Conductor*%
%TO.N,+3.3V*%
G36*
X14749521Y-10903427D02*
G01*
X14752472Y-10908396D01*
X15028792Y-11846931D01*
X15027841Y-11855835D01*
X15025030Y-11859247D01*
X14257462Y-12494821D01*
X14248904Y-12497458D01*
X14242538Y-12494821D01*
X13474969Y-11859247D01*
X13470782Y-11851331D01*
X13471206Y-11846936D01*
X13747528Y-10908395D01*
X13753152Y-10901427D01*
X13758752Y-10900000D01*
X14741248Y-10900000D01*
X14749521Y-10903427D01*
G37*
%TD.AperFunction*%
%TD*%
%TA.AperFunction,Conductor*%
%TO.N,Net-(J101-Pin_5)*%
G36*
X-32883242Y8173584D02*
G01*
X-32503363Y7606512D01*
X-32501605Y7597731D01*
X-32503363Y7593488D01*
X-32883242Y7026417D01*
X-32890693Y7021451D01*
X-32898052Y7022394D01*
X-33879940Y7496807D01*
X-33885898Y7503492D01*
X-33886550Y7507342D01*
X-33886550Y7692659D01*
X-33883123Y7700932D01*
X-33879942Y7703194D01*
X-32898052Y8177608D01*
X-32889112Y8178120D01*
X-32883242Y8173584D01*
G37*
%TD.AperFunction*%
%TD*%
%TA.AperFunction,Conductor*%
%TO.N,+3.3V*%
G36*
X31573735Y32962267D02*
G01*
X32267266Y32268736D01*
X32270693Y32260463D01*
X32268723Y32253966D01*
X31471666Y31060266D01*
X31464222Y31055289D01*
X31455448Y31057027D01*
X30801242Y31492995D01*
X30797994Y31496243D01*
X30362026Y32150449D01*
X30360290Y32159234D01*
X30365265Y32166667D01*
X30518127Y32268736D01*
X31558965Y32963725D01*
X31567748Y32965468D01*
X31573735Y32962267D01*
G37*
%TD.AperFunction*%
%TD*%
%TA.AperFunction,Conductor*%
%TO.N,Net-(J201-Pin_5)*%
G36*
X-32883475Y38973931D02*
G01*
X-32503363Y38406512D01*
X-32501605Y38397731D01*
X-32503363Y38393488D01*
X-32883011Y37826762D01*
X-32890462Y37821796D01*
X-32898236Y37822950D01*
X-33880355Y38346697D01*
X-33886043Y38353614D01*
X-33886550Y38357021D01*
X-33886550Y38542317D01*
X-33883123Y38550590D01*
X-33879502Y38553053D01*
X-32897843Y38978157D01*
X-32888891Y38978299D01*
X-32883475Y38973931D01*
G37*
%TD.AperFunction*%
%TD*%
%TA.AperFunction,Conductor*%
%TO.N,CH07*%
G36*
X21876510Y12496639D02*
G01*
X22443583Y12116759D01*
X22448549Y12109308D01*
X22447606Y12101949D01*
X21973194Y11120060D01*
X21966509Y11114102D01*
X21962659Y11113450D01*
X21777341Y11113450D01*
X21769068Y11116877D01*
X21766806Y11120060D01*
X21292393Y12101949D01*
X21291880Y12110889D01*
X21296414Y12116758D01*
X21863488Y12496639D01*
X21872269Y12498396D01*
X21876510Y12496639D01*
G37*
%TD.AperFunction*%
%TD*%
%TA.AperFunction,Conductor*%
%TO.N,CH05*%
G36*
X22268051Y-22422393D02*
G01*
X22489794Y-22529531D01*
X23249940Y-22896806D01*
X23255898Y-22903491D01*
X23256550Y-22907341D01*
X23256550Y-23092658D01*
X23253123Y-23100931D01*
X23249940Y-23103193D01*
X22268051Y-23577606D01*
X22259111Y-23578119D01*
X22253241Y-23573583D01*
X21873361Y-23006511D01*
X21871604Y-22997731D01*
X21873362Y-22993488D01*
X22253242Y-22426415D01*
X22260692Y-22421450D01*
X22268051Y-22422393D01*
G37*
%TD.AperFunction*%
%TD*%
%TA.AperFunction,Conductor*%
%TO.N,Net-(J102-Pin_2)*%
G36*
X-43468573Y-37005327D02*
G01*
X-42016701Y-37896575D01*
X-42011443Y-37903823D01*
X-42011122Y-37906546D01*
X-42011122Y-38093453D01*
X-42014549Y-38101726D01*
X-42016701Y-38103424D01*
X-43468573Y-38994672D01*
X-43477417Y-38996080D01*
X-43483725Y-38992140D01*
X-44215805Y-38103424D01*
X-44294874Y-38007437D01*
X-44297488Y-37998875D01*
X-44294874Y-37992563D01*
X-43483725Y-37007858D01*
X-43475819Y-37003652D01*
X-43468573Y-37005327D01*
G37*
%TD.AperFunction*%
%TD*%
%TA.AperFunction,Conductor*%
%TO.N,Net-(J104-Pin_5)*%
G36*
X43409447Y-6382279D02*
G01*
X44294338Y-7293142D01*
X44297645Y-7301464D01*
X44295607Y-7307894D01*
X43577396Y-8359366D01*
X43569900Y-8364265D01*
X43562549Y-8363255D01*
X42025758Y-7603221D01*
X42019862Y-7596481D01*
X42019245Y-7592733D01*
X42019245Y-7405892D01*
X42022672Y-7397619D01*
X42023978Y-7396492D01*
X42163423Y-7293142D01*
X43394089Y-6381031D01*
X43402775Y-6378859D01*
X43409447Y-6382279D01*
G37*
%TD.AperFunction*%
%TD*%
%TA.AperFunction,Conductor*%
%TO.N,CH01*%
G36*
X-20139922Y-11726120D02*
G01*
X-19659289Y-12306570D01*
X-19506505Y-12491083D01*
X-19503868Y-12499641D01*
X-19507250Y-12506824D01*
X-20219938Y-13218534D01*
X-20228213Y-13221955D01*
X-20235685Y-13219251D01*
X-21096487Y-12503508D01*
X-21100658Y-12495584D01*
X-21100707Y-12494512D01*
X-21100707Y-12306570D01*
X-21097280Y-12298297D01*
X-21095096Y-12296580D01*
X-20155023Y-11723591D01*
X-20146175Y-11722212D01*
X-20139922Y-11726120D01*
G37*
%TD.AperFunction*%
%TD*%
%TA.AperFunction,Conductor*%
%TO.N,+3.3V*%
G36*
X14748189Y13883123D02*
G01*
X14751488Y13876577D01*
X14934906Y12647575D01*
X14932738Y12638887D01*
X14925633Y12634376D01*
X14252299Y12499461D01*
X14247701Y12499461D01*
X13574366Y12634376D01*
X13566928Y12639361D01*
X13565093Y12647575D01*
X13748512Y13876577D01*
X13753123Y13884254D01*
X13760084Y13886550D01*
X14739916Y13886550D01*
X14748189Y13883123D01*
G37*
%TD.AperFunction*%
%TD*%
%TA.AperFunction,Conductor*%
%TO.N,Net-(J103-Pin_4)*%
G36*
X34746578Y-32498511D02*
G01*
X34754254Y-32503122D01*
X34756550Y-32510083D01*
X34756550Y-33489916D01*
X34753123Y-33498189D01*
X34746577Y-33501488D01*
X33517574Y-33684906D01*
X33508886Y-33682738D01*
X33504375Y-33675634D01*
X33369460Y-33002295D01*
X33369460Y-32997704D01*
X33504376Y-32324364D01*
X33509360Y-32316928D01*
X33517573Y-32315093D01*
X34746578Y-32498511D01*
G37*
%TD.AperFunction*%
%TD*%
%TA.AperFunction,Conductor*%
%TO.N,CH06*%
G36*
X21971014Y-41418799D02*
G01*
X21973224Y-41421876D01*
X22530614Y-42546342D01*
X22531218Y-42555276D01*
X22526641Y-42561259D01*
X21876510Y-42996640D01*
X21867729Y-42998397D01*
X21863490Y-42996640D01*
X21213358Y-42561259D01*
X21208390Y-42553809D01*
X21209385Y-42546342D01*
X21766776Y-41421876D01*
X21773521Y-41415985D01*
X21777259Y-41415372D01*
X21962741Y-41415372D01*
X21971014Y-41418799D01*
G37*
%TD.AperFunction*%
%TD*%
%TA.AperFunction,Conductor*%
%TO.N,ADC2*%
G36*
X7105277Y-14514902D02*
G01*
X7235097Y-14644722D01*
X7238524Y-14652995D01*
X7237422Y-14657953D01*
X7005193Y-15154373D01*
X6998583Y-15160414D01*
X6989637Y-15160013D01*
X6988127Y-15159164D01*
X6751265Y-15002015D01*
X6747984Y-14998734D01*
X6590835Y-14761872D01*
X6589116Y-14753084D01*
X6594116Y-14745655D01*
X6595621Y-14744808D01*
X7092048Y-14512576D01*
X7100992Y-14512176D01*
X7105277Y-14514902D01*
G37*
%TD.AperFunction*%
%TD*%
%TA.AperFunction,Conductor*%
%TO.N,CH07*%
G36*
X22323657Y8160615D02*
G01*
X23448124Y7603224D01*
X23454015Y7596479D01*
X23454628Y7592741D01*
X23454628Y7407260D01*
X23451201Y7398987D01*
X23448124Y7396777D01*
X22323657Y6839386D01*
X22314723Y6838782D01*
X22308740Y6843359D01*
X21873358Y7493492D01*
X21871602Y7502271D01*
X21873357Y7506508D01*
X22308741Y8156644D01*
X22316190Y8161610D01*
X22323657Y8160615D01*
G37*
%TD.AperFunction*%
%TD*%
%TA.AperFunction,Conductor*%
%TO.N,+3.3V*%
G36*
X-5072477Y3991765D02*
G01*
X-5071039Y3990327D01*
X-4084919Y2815805D01*
X-4082224Y2807266D01*
X-4083395Y2803091D01*
X-4576778Y1806510D01*
X-4583519Y1800616D01*
X-4587263Y1800001D01*
X-5572737Y1800001D01*
X-5581010Y1803428D01*
X-5583222Y1806510D01*
X-6076606Y2803090D01*
X-6077206Y2812025D01*
X-6075082Y2815804D01*
X-5088961Y3990327D01*
X-5081016Y3994460D01*
X-5072477Y3991765D01*
G37*
%TD.AperFunction*%
%TD*%
%TA.AperFunction,Conductor*%
%TO.N,CH08*%
G36*
X-2719070Y-35055835D02*
G01*
X-2711642Y-35060834D01*
X-2709923Y-35069622D01*
X-2710392Y-35071290D01*
X-2897204Y-35586524D01*
X-2903245Y-35593134D01*
X-2908203Y-35594236D01*
X-3091797Y-35594236D01*
X-3100070Y-35590809D01*
X-3102796Y-35586524D01*
X-3150456Y-35455078D01*
X-3289609Y-35071288D01*
X-3289208Y-35062344D01*
X-3282598Y-35056303D01*
X-3280944Y-35055837D01*
X-3002318Y-34999469D01*
X-2997682Y-34999469D01*
X-2719070Y-35055835D01*
G37*
%TD.AperFunction*%
%TD*%
%TA.AperFunction,Conductor*%
%TO.N,CH01*%
G36*
X-24778986Y-10818799D02*
G01*
X-24776776Y-10821876D01*
X-24219386Y-11946342D01*
X-24218782Y-11955276D01*
X-24223359Y-11961259D01*
X-24873490Y-12396640D01*
X-24882271Y-12398397D01*
X-24886510Y-12396640D01*
X-25536642Y-11961259D01*
X-25541610Y-11953809D01*
X-25540615Y-11946342D01*
X-24983224Y-10821876D01*
X-24976479Y-10815985D01*
X-24972741Y-10815372D01*
X-24787259Y-10815372D01*
X-24778986Y-10818799D01*
G37*
%TD.AperFunction*%
%TD*%
%TA.AperFunction,Conductor*%
%TO.N,+3.3V*%
G36*
X-18700479Y44996573D02*
G01*
X-18697528Y44991604D01*
X-18421208Y44053069D01*
X-18422159Y44044165D01*
X-18424970Y44040753D01*
X-19192538Y43405179D01*
X-19201096Y43402542D01*
X-19207462Y43405179D01*
X-19975031Y44040753D01*
X-19979218Y44048669D01*
X-19978794Y44053064D01*
X-19702472Y44991605D01*
X-19696848Y44998573D01*
X-19691248Y45000000D01*
X-18708752Y45000000D01*
X-18700479Y44996573D01*
G37*
%TD.AperFunction*%
%TD*%
%TA.AperFunction,Conductor*%
%TO.N,Net-(D202-A)*%
G36*
X-12128741Y34056642D02*
G01*
X-11693360Y33406510D01*
X-11691603Y33397729D01*
X-11693360Y33393490D01*
X-12128741Y32743359D01*
X-12136191Y32738391D01*
X-12143658Y32739386D01*
X-13268124Y33296777D01*
X-13274015Y33303522D01*
X-13274628Y33307260D01*
X-13274628Y33492741D01*
X-13271201Y33501014D01*
X-13268124Y33503224D01*
X-12143658Y34060616D01*
X-12134724Y34061219D01*
X-12128741Y34056642D01*
G37*
%TD.AperFunction*%
%TD*%
%TA.AperFunction,Conductor*%
%TO.N,ADC2*%
G36*
X8006510Y12996639D02*
G01*
X8573583Y12616759D01*
X8578549Y12609308D01*
X8577606Y12601949D01*
X8103194Y11620060D01*
X8096509Y11614102D01*
X8092659Y11613450D01*
X7907341Y11613450D01*
X7899068Y11616877D01*
X7896806Y11620060D01*
X7422393Y12601949D01*
X7421880Y12610889D01*
X7426414Y12616758D01*
X7993488Y12996639D01*
X8002269Y12998396D01*
X8006510Y12996639D01*
G37*
%TD.AperFunction*%
%TD*%
%TA.AperFunction,Conductor*%
%TO.N,Net-(J102-Pin_6)*%
G36*
X-32638887Y-17317261D02*
G01*
X-32634376Y-17324366D01*
X-32499461Y-17997701D01*
X-32499461Y-18002299D01*
X-32634376Y-18675633D01*
X-32639361Y-18683071D01*
X-32647575Y-18684906D01*
X-33876577Y-18501488D01*
X-33884254Y-18496877D01*
X-33886550Y-18489916D01*
X-33886550Y-17510083D01*
X-33883123Y-17501810D01*
X-33876579Y-17498511D01*
X-32647574Y-17315093D01*
X-32638887Y-17317261D01*
G37*
%TD.AperFunction*%
%TD*%
%TA.AperFunction,Conductor*%
%TO.N,CH03*%
G36*
X-24426343Y-42339385D02*
G01*
X-23301876Y-42896776D01*
X-23295985Y-42903521D01*
X-23295372Y-42907259D01*
X-23295372Y-43092740D01*
X-23298799Y-43101013D01*
X-23301876Y-43103223D01*
X-24426343Y-43660614D01*
X-24435277Y-43661218D01*
X-24441260Y-43656641D01*
X-24876642Y-43006508D01*
X-24878398Y-42997729D01*
X-24876643Y-42993492D01*
X-24441259Y-42343356D01*
X-24433810Y-42338390D01*
X-24426343Y-42339385D01*
G37*
%TD.AperFunction*%
%TD*%
%TA.AperFunction,Conductor*%
%TO.N,Net-(D202-A)*%
G36*
X-7868752Y29723935D02*
G01*
X-6567373Y29071110D01*
X-6561515Y29064337D01*
X-6562161Y29055406D01*
X-6562883Y29054164D01*
X-6996597Y28403340D01*
X-7004036Y28398356D01*
X-7004062Y28398350D01*
X-7772879Y28246253D01*
X-7781660Y28248010D01*
X-7786628Y28255460D01*
X-7786666Y28255661D01*
X-8016683Y29580320D01*
X-8014722Y29589056D01*
X-8013434Y29590587D01*
X-7882270Y29721751D01*
X-7873998Y29725177D01*
X-7868752Y29723935D01*
G37*
%TD.AperFunction*%
%TD*%
%TA.AperFunction,Conductor*%
%TO.N,Net-(D204-A)*%
G36*
X-19294651Y40030118D02*
G01*
X-19293714Y40029277D01*
X-19162096Y39897659D01*
X-19161012Y39896410D01*
X-18589318Y39134896D01*
X-18587092Y39126223D01*
X-18590402Y39119599D01*
X-19302426Y38407575D01*
X-19310699Y38404148D01*
X-19318972Y38407575D01*
X-19318980Y38407583D01*
X-20029365Y39119351D01*
X-20032784Y39127627D01*
X-20030199Y39134950D01*
X-19311101Y40028341D01*
X-19303244Y40032636D01*
X-19294651Y40030118D01*
G37*
%TD.AperFunction*%
%TD*%
%TA.AperFunction,Conductor*%
%TO.N,CH06*%
G36*
X21876510Y-38003361D02*
G01*
X22443583Y-38383241D01*
X22448549Y-38390692D01*
X22447606Y-38398051D01*
X21973194Y-39379940D01*
X21966509Y-39385898D01*
X21962659Y-39386550D01*
X21777341Y-39386550D01*
X21769068Y-39383123D01*
X21766806Y-39379940D01*
X21292393Y-38398051D01*
X21291880Y-38389111D01*
X21296414Y-38383242D01*
X21863488Y-38003361D01*
X21872269Y-38001604D01*
X21876510Y-38003361D01*
G37*
%TD.AperFunction*%
%TD*%
%TA.AperFunction,Conductor*%
%TO.N,CH02*%
G36*
X-24873490Y7596639D02*
G01*
X-24306417Y7216759D01*
X-24301451Y7209308D01*
X-24302394Y7201949D01*
X-24776806Y6220060D01*
X-24783491Y6214102D01*
X-24787341Y6213450D01*
X-24972659Y6213450D01*
X-24980932Y6216877D01*
X-24983194Y6220060D01*
X-25457607Y7201949D01*
X-25458120Y7210889D01*
X-25453586Y7216758D01*
X-24886512Y7596639D01*
X-24877731Y7598396D01*
X-24873490Y7596639D01*
G37*
%TD.AperFunction*%
%TD*%
%TA.AperFunction,Conductor*%
%TO.N,Net-(J101-Pin_2)*%
G36*
X-32639686Y-6817807D02*
G01*
X-32634280Y-6824946D01*
X-32634128Y-6825604D01*
X-32499956Y-7495230D01*
X-32501691Y-7504016D01*
X-32501708Y-7504041D01*
X-32881791Y-8071417D01*
X-32889242Y-8076383D01*
X-32898023Y-8074625D01*
X-32898848Y-8074019D01*
X-33824845Y-7328512D01*
X-33829140Y-7320654D01*
X-33829208Y-7319398D01*
X-33829208Y-7134036D01*
X-33825781Y-7125763D01*
X-33820465Y-7122716D01*
X-32680571Y-6824946D01*
X-32648557Y-6816583D01*
X-32639686Y-6817807D01*
G37*
%TD.AperFunction*%
%TD*%
%TA.AperFunction,Conductor*%
%TO.N,+3.3V*%
G36*
X-19302540Y33394823D02*
G01*
X-18534970Y32759248D01*
X-18530783Y32751332D01*
X-18531208Y32746932D01*
X-18807528Y31808396D01*
X-18813152Y31801427D01*
X-18818752Y31800000D01*
X-19801248Y31800000D01*
X-19809521Y31803427D01*
X-19812472Y31808396D01*
X-20088793Y32746934D01*
X-20087842Y32755836D01*
X-20085035Y32759244D01*
X-19317461Y33394823D01*
X-19308904Y33397459D01*
X-19302540Y33394823D01*
G37*
%TD.AperFunction*%
%TD*%
%TA.AperFunction,Conductor*%
%TO.N,Net-(J201-Pin_6)*%
G36*
X-32692772Y45085883D02*
G01*
X-32002076Y44395187D01*
X-31999071Y44390028D01*
X-31766798Y43548687D01*
X-31767900Y43539800D01*
X-31774962Y43534295D01*
X-31775784Y43534100D01*
X-32448414Y43399752D01*
X-32453002Y43399753D01*
X-33124238Y43534099D01*
X-33131678Y43539082D01*
X-33133414Y43547867D01*
X-33133224Y43548670D01*
X-33133219Y43548687D01*
X-32712327Y45080711D01*
X-32706831Y45087779D01*
X-32697946Y45088892D01*
X-32692772Y45085883D01*
G37*
%TD.AperFunction*%
%TD*%
%TA.AperFunction,Conductor*%
%TO.N,CH02*%
G36*
X-8752022Y-39261977D02*
G01*
X-7461320Y-39689746D01*
X-7454546Y-39695601D01*
X-7453525Y-39703123D01*
X-7617773Y-40533022D01*
X-7622740Y-40540472D01*
X-7626978Y-40542227D01*
X-8456877Y-40706475D01*
X-8465659Y-40704720D01*
X-8470254Y-40698680D01*
X-8898022Y-39407979D01*
X-8897372Y-39399049D01*
X-8895192Y-39396029D01*
X-8763973Y-39264810D01*
X-8755701Y-39261384D01*
X-8752022Y-39261977D01*
G37*
%TD.AperFunction*%
%TD*%
M02*
