%TF.GenerationSoftware,KiCad,Pcbnew,9.0.6-9.0.6~ubuntu24.04.1*%
%TF.CreationDate,2025-12-13T20:31:21+01:00*%
%TF.ProjectId,temperator,74656d70-6572-4617-946f-722e6b696361,1.1*%
%TF.SameCoordinates,PX623a7c0PY623a7c0*%
%TF.FileFunction,Copper,L1,Top*%
%TF.FilePolarity,Positive*%
%FSLAX46Y46*%
G04 Gerber Fmt 4.6, Leading zero omitted, Abs format (unit mm)*
G04 Created by KiCad (PCBNEW 9.0.6-9.0.6~ubuntu24.04.1) date 2025-12-13 20:31:21*
%MOMM*%
%LPD*%
G01*
G04 APERTURE LIST*
G04 Aperture macros list*
%AMRoundRect*
0 Rectangle with rounded corners*
0 $1 Rounding radius*
0 $2 $3 $4 $5 $6 $7 $8 $9 X,Y pos of 4 corners*
0 Add a 4 corners polygon primitive as box body*
4,1,4,$2,$3,$4,$5,$6,$7,$8,$9,$2,$3,0*
0 Add four circle primitives for the rounded corners*
1,1,$1+$1,$2,$3*
1,1,$1+$1,$4,$5*
1,1,$1+$1,$6,$7*
1,1,$1+$1,$8,$9*
0 Add four rect primitives between the rounded corners*
20,1,$1+$1,$2,$3,$4,$5,0*
20,1,$1+$1,$4,$5,$6,$7,0*
20,1,$1+$1,$6,$7,$8,$9,0*
20,1,$1+$1,$8,$9,$2,$3,0*%
G04 Aperture macros list end*
%TA.AperFunction,ComponentPad*%
%ADD10C,1.400000*%
%TD*%
%TA.AperFunction,ComponentPad*%
%ADD11RoundRect,0.250000X-0.550000X-0.550000X0.550000X-0.550000X0.550000X0.550000X-0.550000X0.550000X0*%
%TD*%
%TA.AperFunction,ComponentPad*%
%ADD12C,1.600000*%
%TD*%
%TA.AperFunction,ComponentPad*%
%ADD13R,2.600000X2.600000*%
%TD*%
%TA.AperFunction,ComponentPad*%
%ADD14C,2.600000*%
%TD*%
%TA.AperFunction,ComponentPad*%
%ADD15C,3.600000*%
%TD*%
%TA.AperFunction,ConnectorPad*%
%ADD16C,5.600000*%
%TD*%
%TA.AperFunction,ConnectorPad*%
%ADD17C,3.800000*%
%TD*%
%TA.AperFunction,ComponentPad*%
%ADD18RoundRect,0.250000X0.550000X-0.550000X0.550000X0.550000X-0.550000X0.550000X-0.550000X-0.550000X0*%
%TD*%
%TA.AperFunction,ComponentPad*%
%ADD19RoundRect,0.250001X-0.949999X-0.949999X0.949999X-0.949999X0.949999X0.949999X-0.949999X0.949999X0*%
%TD*%
%TA.AperFunction,ComponentPad*%
%ADD20C,2.400000*%
%TD*%
%TA.AperFunction,ComponentPad*%
%ADD21RoundRect,0.250000X0.550000X0.550000X-0.550000X0.550000X-0.550000X-0.550000X0.550000X-0.550000X0*%
%TD*%
%TA.AperFunction,ComponentPad*%
%ADD22C,1.727200*%
%TD*%
%TA.AperFunction,ComponentPad*%
%ADD23R,1.727200X1.727200*%
%TD*%
%TA.AperFunction,ComponentPad*%
%ADD24R,1.700000X1.700000*%
%TD*%
%TA.AperFunction,ComponentPad*%
%ADD25C,1.700000*%
%TD*%
%TA.AperFunction,ViaPad*%
%ADD26C,0.600000*%
%TD*%
%TA.AperFunction,Conductor*%
%ADD27C,0.200000*%
%TD*%
%TA.AperFunction,Conductor*%
%ADD28C,1.000000*%
%TD*%
G04 APERTURE END LIST*
D10*
%TO.P,R124,1*%
%TO.N,Net-(J104-Pin_4)*%
X33310000Y-2500000D03*
%TO.P,R124,2*%
%TO.N,+3.3V*%
X25690000Y-2500000D03*
%TD*%
%TO.P,C205,1*%
%TO.N,Net-(C205-Pad1)*%
X-4500000Y33400000D03*
%TO.P,C205,2*%
%TO.N,Net-(U201C--)*%
X-7000000Y33400000D03*
%TD*%
%TO.P,C208,1*%
%TO.N,ADC0*%
X16300000Y43400000D03*
%TO.P,C208,2*%
%TO.N,GND*%
X18800000Y43400000D03*
%TD*%
D11*
%TO.P,D104,1,K*%
%TO.N,+3.3V*%
X-32500000Y-28000000D03*
D12*
%TO.P,D104,2,A*%
%TO.N,CH04*%
X-24880000Y-28000000D03*
%TD*%
D13*
%TO.P,J104,1,Pin_1*%
%TO.N,Net-(J104-Pin_1)*%
X44300000Y12700000D03*
D14*
%TO.P,J104,2,Pin_2*%
%TO.N,Net-(J104-Pin_2)*%
X44300000Y7700000D03*
%TO.P,J104,3,Pin_3*%
%TO.N,GND*%
X44300000Y2700000D03*
%TO.P,J104,4,Pin_4*%
%TO.N,Net-(J104-Pin_4)*%
X44300000Y-2300000D03*
%TO.P,J104,5,Pin_5*%
%TO.N,Net-(J104-Pin_5)*%
X44300000Y-7300000D03*
%TO.P,J104,6,Pin_6*%
%TO.N,GND*%
X44300000Y-12300000D03*
%TD*%
D11*
%TO.P,D202,1,K*%
%TO.N,+3.3V*%
X-19310000Y33400000D03*
D12*
%TO.P,D202,2,A*%
%TO.N,Net-(D202-A)*%
X-11690000Y33400000D03*
%TD*%
D11*
%TO.P,D109,1,K*%
%TO.N,CH01*%
X-19500707Y-12499293D03*
D12*
%TO.P,D109,2,A*%
%TO.N,GND*%
X-11880707Y-12499293D03*
%TD*%
D10*
%TO.P,R203,1*%
%TO.N,+3.3V*%
X-24880000Y28400000D03*
%TO.P,R203,2*%
%TO.N,Net-(J201-Pin_3)*%
X-32500000Y28400000D03*
%TD*%
D11*
%TO.P,D106,1,K*%
%TO.N,+3.3V*%
X14250000Y-43000000D03*
D12*
%TO.P,D106,2,A*%
%TO.N,CH06*%
X21870000Y-43000000D03*
%TD*%
D10*
%TO.P,C211,1*%
%TO.N,+3.3V*%
X38400000Y38350000D03*
%TO.P,C211,2*%
%TO.N,GND*%
X40900000Y38350000D03*
%TD*%
%TO.P,C213,1*%
%TO.N,ADC2*%
X8000000Y13000000D03*
%TO.P,C213,2*%
%TO.N,GND*%
X5500000Y13000000D03*
%TD*%
%TO.P,R103,1*%
%TO.N,+3.3V*%
X-11880000Y-38000000D03*
%TO.P,R103,2*%
%TO.N,CH03*%
X-19500000Y-38000000D03*
%TD*%
%TO.P,R119,1*%
%TO.N,Net-(J103-Pin_5)*%
X33370000Y-38000000D03*
%TO.P,R119,2*%
%TO.N,CH06*%
X25750000Y-38000000D03*
%TD*%
%TO.P,R209,1*%
%TO.N,Net-(D204-A)*%
X-24880000Y38400000D03*
%TO.P,R209,2*%
%TO.N,Net-(J201-Pin_5)*%
X-32500000Y38400000D03*
%TD*%
D13*
%TO.P,J102,1,Pin_1*%
%TO.N,GND*%
X-44300000Y-43000000D03*
D14*
%TO.P,J102,2,Pin_2*%
%TO.N,Net-(J102-Pin_2)*%
X-44300000Y-38000000D03*
%TO.P,J102,3,Pin_3*%
%TO.N,Net-(J102-Pin_3)*%
X-44300000Y-33000000D03*
%TO.P,J102,4,Pin_4*%
%TO.N,GND*%
X-44300000Y-28000000D03*
%TO.P,J102,5,Pin_5*%
%TO.N,Net-(J102-Pin_5)*%
X-44300000Y-23000000D03*
%TO.P,J102,6,Pin_6*%
%TO.N,Net-(J102-Pin_6)*%
X-44300000Y-18000000D03*
%TD*%
D13*
%TO.P,J101,1,Pin_1*%
%TO.N,GND*%
X-44300000Y-12300000D03*
D14*
%TO.P,J101,2,Pin_2*%
%TO.N,Net-(J101-Pin_2)*%
X-44300000Y-7300000D03*
%TO.P,J101,3,Pin_3*%
%TO.N,Net-(J101-Pin_3)*%
X-44300000Y-2300000D03*
%TO.P,J101,4,Pin_4*%
%TO.N,GND*%
X-44300000Y2700000D03*
%TO.P,J101,5,Pin_5*%
%TO.N,Net-(J101-Pin_5)*%
X-44300000Y7700000D03*
%TO.P,J101,6,Pin_6*%
%TO.N,Net-(J101-Pin_6)*%
X-44300000Y12700000D03*
%TD*%
D15*
%TO.P,H206,1*%
%TO.N,N/C*%
X-39000000Y53500000D03*
D16*
X-39000000Y53500000D03*
%TD*%
D14*
%TO.P,H211,1*%
%TO.N,N/C*%
X12750000Y54000000D03*
D17*
X12750000Y54000000D03*
%TD*%
D13*
%TO.P,J103,1,Pin_1*%
%TO.N,Net-(J103-Pin_1)*%
X44300000Y-18000000D03*
D14*
%TO.P,J103,2,Pin_2*%
%TO.N,Net-(J103-Pin_2)*%
X44300000Y-23000000D03*
%TO.P,J103,3,Pin_3*%
%TO.N,GND*%
X44300000Y-28000000D03*
%TO.P,J103,4,Pin_4*%
%TO.N,Net-(J103-Pin_4)*%
X44300000Y-33000000D03*
%TO.P,J103,5,Pin_5*%
%TO.N,Net-(J103-Pin_5)*%
X44300000Y-38000000D03*
%TO.P,J103,6,Pin_6*%
%TO.N,GND*%
X44300000Y-43000000D03*
%TD*%
D11*
%TO.P,D102,1,K*%
%TO.N,+3.3V*%
X-32500000Y2500000D03*
D12*
%TO.P,D102,2,A*%
%TO.N,CH02*%
X-24880000Y2500000D03*
%TD*%
D10*
%TO.P,R107,1*%
%TO.N,+3.3V*%
X14250000Y12500000D03*
%TO.P,R107,2*%
%TO.N,CH07*%
X21870000Y12500000D03*
%TD*%
D15*
%TO.P,H205,1*%
%TO.N,N/C*%
X39000000Y53500000D03*
D16*
X39000000Y53500000D03*
%TD*%
D10*
%TO.P,R105,1*%
%TO.N,+3.3V*%
X14250000Y-23000000D03*
%TO.P,R105,2*%
%TO.N,CH05*%
X21870000Y-23000000D03*
%TD*%
D11*
%TO.P,D205,1,K*%
%TO.N,Net-(D204-A)*%
X-19310000Y38400000D03*
D12*
%TO.P,D205,2,A*%
%TO.N,GND*%
X-11690000Y38400000D03*
%TD*%
D10*
%TO.P,R114,1*%
%TO.N,Net-(J102-Pin_3)*%
X-32510000Y-33000000D03*
%TO.P,R114,2*%
%TO.N,+3.3V*%
X-24890000Y-33000000D03*
%TD*%
%TO.P,R120,1*%
%TO.N,Net-(J103-Pin_4)*%
X33370000Y-33000000D03*
%TO.P,R120,2*%
%TO.N,+3.3V*%
X25750000Y-33000000D03*
%TD*%
D11*
%TO.P,D103,1,K*%
%TO.N,+3.3V*%
X-32500000Y-43000000D03*
D12*
%TO.P,D103,2,A*%
%TO.N,CH03*%
X-24880000Y-43000000D03*
%TD*%
D10*
%TO.P,R110,1*%
%TO.N,Net-(J101-Pin_3)*%
X-32500000Y-2400000D03*
%TO.P,R110,2*%
%TO.N,+3.3V*%
X-24880000Y-2400000D03*
%TD*%
D11*
%TO.P,D204,1,K*%
%TO.N,+3.3V*%
X-19200000Y43400000D03*
D12*
%TO.P,D204,2,A*%
%TO.N,Net-(D204-A)*%
X-11580000Y43400000D03*
%TD*%
D11*
%TO.P,D112,1,K*%
%TO.N,CH04*%
X-19500000Y-28000000D03*
D12*
%TO.P,D112,2,A*%
%TO.N,GND*%
X-11880000Y-28000000D03*
%TD*%
D15*
%TO.P,H208,1*%
%TO.N,N/C*%
X39000000Y-53500000D03*
D16*
X39000000Y-53500000D03*
%TD*%
D18*
%TO.P,C209,1*%
%TO.N,Net-(J201-Pin_6)*%
X-26500000Y48317620D03*
D12*
%TO.P,C209,2*%
%TO.N,GND*%
X-26500000Y50817620D03*
%TD*%
D10*
%TO.P,R211,1*%
%TO.N,ADC2*%
X23190000Y42750000D03*
%TO.P,R211,2*%
%TO.N,Net-(U201B--)*%
X30810000Y42750000D03*
%TD*%
D18*
%TO.P,C210,1*%
%TO.N,Net-(J201-Pin_3)*%
X-26500000Y32150000D03*
D12*
%TO.P,C210,2*%
%TO.N,GND*%
X-26500000Y34650000D03*
%TD*%
D11*
%TO.P,D116,1,K*%
%TO.N,CH08*%
X25750000Y-12500000D03*
D12*
%TO.P,D116,2,A*%
%TO.N,GND*%
X33370000Y-12500000D03*
%TD*%
D10*
%TO.P,R112,1*%
%TO.N,Net-(J101-Pin_6)*%
X-32500000Y12500000D03*
%TO.P,R112,2*%
%TO.N,+3.3V*%
X-24880000Y12500000D03*
%TD*%
D14*
%TO.P,H210,1*%
%TO.N,N/C*%
X-15000000Y52500000D03*
D17*
X-15000000Y52500000D03*
%TD*%
D10*
%TO.P,R113,1*%
%TO.N,Net-(J102-Pin_2)*%
X-32560000Y-38000000D03*
%TO.P,R113,2*%
%TO.N,CH03*%
X-24940000Y-38000000D03*
%TD*%
D11*
%TO.P,D115,1,K*%
%TO.N,CH07*%
X25750000Y2500000D03*
D12*
%TO.P,D115,2,A*%
%TO.N,GND*%
X33370000Y2500000D03*
%TD*%
D19*
%TO.P,D201,1,K*%
%TO.N,+3.3V*%
X-5080000Y4000000D03*
D20*
%TO.P,D201,2,A*%
%TO.N,GND*%
X5080000Y4000000D03*
%TD*%
D11*
%TO.P,D108,1,K*%
%TO.N,+3.3V*%
X14250000Y-12500000D03*
D12*
%TO.P,D108,2,A*%
%TO.N,CH08*%
X21870000Y-12500000D03*
%TD*%
D10*
%TO.P,R118,1*%
%TO.N,Net-(J103-Pin_1)*%
X33370000Y-18000000D03*
%TO.P,R118,2*%
%TO.N,+3.3V*%
X25750000Y-18000000D03*
%TD*%
%TO.P,R116,1*%
%TO.N,Net-(J102-Pin_6)*%
X-32500000Y-18000000D03*
%TO.P,R116,2*%
%TO.N,+3.3V*%
X-24880000Y-18000000D03*
%TD*%
%TO.P,R208,1*%
%TO.N,Net-(C205-Pad1)*%
X1590000Y38400000D03*
%TO.P,R208,2*%
%TO.N,Net-(U201C--)*%
X9210000Y38400000D03*
%TD*%
D11*
%TO.P,D203,1,K*%
%TO.N,Net-(D202-A)*%
X-19310000Y23450000D03*
D12*
%TO.P,D203,2,A*%
%TO.N,GND*%
X-11690000Y23450000D03*
%TD*%
D10*
%TO.P,C212,1*%
%TO.N,Net-(U201A-+)*%
X38400000Y28900000D03*
%TO.P,C212,2*%
%TO.N,GND*%
X40900000Y28900000D03*
%TD*%
%TO.P,R204,1*%
%TO.N,Net-(U201A-+)*%
X30810000Y46250000D03*
%TO.P,R204,2*%
%TO.N,GND*%
X23190000Y46250000D03*
%TD*%
D21*
%TO.P,U201,1*%
%TO.N,Net-(U201A--)*%
X30800000Y23875000D03*
D12*
%TO.P,U201,2,-*%
X30800000Y26415000D03*
%TO.P,U201,3,+*%
%TO.N,Net-(U201A-+)*%
X30800000Y28955000D03*
%TO.P,U201,4,V+*%
%TO.N,+3.3V*%
X30800000Y31495000D03*
%TO.P,U201,5,+*%
%TO.N,Net-(U201A-+)*%
X30800000Y34035000D03*
%TO.P,U201,6,-*%
%TO.N,Net-(U201B--)*%
X30800000Y36575000D03*
%TO.P,U201,7*%
X30800000Y39115000D03*
%TO.P,U201,8*%
%TO.N,Net-(C205-Pad1)*%
X23180000Y39115000D03*
%TO.P,U201,9,-*%
%TO.N,Net-(U201C--)*%
X23180000Y36575000D03*
%TO.P,U201,10,+*%
%TO.N,Net-(U201A--)*%
X23180000Y34035000D03*
%TO.P,U201,11,V-*%
%TO.N,GND*%
X23180000Y31495000D03*
%TO.P,U201,12,+*%
%TO.N,Net-(U201A--)*%
X23180000Y28955000D03*
%TO.P,U201,13,-*%
%TO.N,Net-(U201D--)*%
X23180000Y26415000D03*
%TO.P,U201,14*%
%TO.N,Net-(C203-Pad1)*%
X23180000Y23875000D03*
%TD*%
D22*
%TO.P,A201,3V3,3.3V*%
%TO.N,+3.3V*%
X7620000Y-63400000D03*
%TO.P,A201,5V,5V*%
%TO.N,unconnected-(A201-Pad5V)*%
X7620000Y-38000000D03*
%TO.P,A201,A0,A0*%
%TO.N,ADC1*%
X7620000Y-58320000D03*
%TO.P,A201,A1,A1*%
%TO.N,ADC0*%
X7620000Y-55780000D03*
%TO.P,A201,A2,A2*%
%TO.N,ADC2*%
X7620000Y-53240000D03*
%TO.P,A201,A3,A3*%
%TO.N,unconnected-(A201-PadA3)*%
X7620000Y-50700000D03*
%TO.P,A201,A4,A4/SDA*%
%TO.N,Net-(A201-A4{slash}SDA)*%
X7620000Y-48160000D03*
%TO.P,A201,A5,A5/SCL*%
%TO.N,Net-(A201-A5{slash}SCL)*%
X7620000Y-45620000D03*
%TO.P,A201,A6,A6*%
%TO.N,unconnected-(A201-PadA6)*%
X7620000Y-43080000D03*
%TO.P,A201,A7,A7*%
%TO.N,unconnected-(A201-PadA7)*%
X7620000Y-40540000D03*
%TO.P,A201,B0,B0*%
%TO.N,unconnected-(A201-PadB0)*%
X7620000Y-60860000D03*
%TO.P,A201,B1,B1*%
%TO.N,Net-(JP201-A)*%
X7620000Y-35460000D03*
%TO.P,A201,D0,D0/RX*%
%TO.N,unconnected-(A201-D0{slash}RX-PadD0)*%
X-7620000Y-32920000D03*
%TO.P,A201,D1,D1/TX*%
%TO.N,unconnected-(A201-D1{slash}TX-PadD1)*%
X-7620000Y-30380000D03*
%TO.P,A201,D2,D2*%
%TO.N,CH02*%
X-7620000Y-40540000D03*
%TO.P,A201,D3,D3*%
%TO.N,CH01*%
X-7620000Y-43080000D03*
%TO.P,A201,D4,D4*%
%TO.N,CH04*%
X-7620000Y-45620000D03*
%TO.P,A201,D5,D5*%
%TO.N,CH03*%
X-7620000Y-48160000D03*
%TO.P,A201,D6,D6*%
%TO.N,CH07*%
X-7620000Y-50700000D03*
%TO.P,A201,D7,D7*%
%TO.N,CH08*%
X-7620000Y-53240000D03*
%TO.P,A201,D8,D8*%
%TO.N,CH05*%
X-7620000Y-55780000D03*
%TO.P,A201,D9,D9*%
%TO.N,CH06*%
X-7620000Y-58320000D03*
%TO.P,A201,D10,D10*%
%TO.N,unconnected-(A201-PadD10)*%
X-7620000Y-60860000D03*
%TO.P,A201,D11,D11_MOSI*%
%TO.N,unconnected-(A201-D11_MOSI-PadD11)*%
X-7620000Y-63400000D03*
%TO.P,A201,D12,D12_MISO*%
%TO.N,unconnected-(A201-D12_MISO-PadD12)*%
X-7620000Y-65940000D03*
%TO.P,A201,D13,D13_SCK*%
%TO.N,unconnected-(A201-D13_SCK-PadD13)*%
X7620000Y-65940000D03*
D23*
%TO.P,A201,GND1,GND*%
%TO.N,GND*%
X-7620000Y-38000000D03*
%TO.P,A201,GND2,GND*%
X7620000Y-32920000D03*
D22*
%TO.P,A201,RST,~{RESET}*%
%TO.N,unconnected-(A201-~{RESET}-PadRST)*%
X-7620000Y-35460000D03*
%TO.P,A201,VIN,VIN*%
%TO.N,unconnected-(A201-PadVIN)*%
X7620000Y-30380000D03*
%TD*%
D11*
%TO.P,D114,1,K*%
%TO.N,CH06*%
X25750000Y-43000000D03*
D12*
%TO.P,D114,2,A*%
%TO.N,GND*%
X33370000Y-43000000D03*
%TD*%
D10*
%TO.P,R111,1*%
%TO.N,Net-(J101-Pin_5)*%
X-32500000Y7600000D03*
%TO.P,R111,2*%
%TO.N,CH02*%
X-24880000Y7600000D03*
%TD*%
%TO.P,R102,1*%
%TO.N,+3.3V*%
X-11880000Y12500000D03*
%TO.P,R102,2*%
%TO.N,CH02*%
X-19500000Y12500000D03*
%TD*%
D18*
%TO.P,C202,1*%
%TO.N,+3.3V*%
X500000Y-7500000D03*
D12*
%TO.P,C202,2*%
%TO.N,GND*%
X500000Y-5000000D03*
%TD*%
D10*
%TO.P,R101,1*%
%TO.N,+3.3V*%
X-11880000Y-7500000D03*
%TO.P,R101,2*%
%TO.N,CH01*%
X-19500000Y-7500000D03*
%TD*%
D11*
%TO.P,D105,1,K*%
%TO.N,+3.3V*%
X14250000Y-28000000D03*
D12*
%TO.P,D105,2,A*%
%TO.N,CH05*%
X21870000Y-28000000D03*
%TD*%
D10*
%TO.P,R210,1*%
%TO.N,Net-(C205-Pad1)*%
X1590000Y43400000D03*
%TO.P,R210,2*%
%TO.N,ADC0*%
X9210000Y43400000D03*
%TD*%
%TO.P,R109,1*%
%TO.N,Net-(J101-Pin_2)*%
X-32500000Y-7500000D03*
%TO.P,R109,2*%
%TO.N,CH01*%
X-24880000Y-7500000D03*
%TD*%
%TO.P,R122,1*%
%TO.N,Net-(J104-Pin_1)*%
X33370000Y12500000D03*
%TO.P,R122,2*%
%TO.N,+3.3V*%
X25750000Y12500000D03*
%TD*%
%TO.P,C207,1*%
%TO.N,ADC1*%
X16300000Y33400000D03*
%TO.P,C207,2*%
%TO.N,GND*%
X18800000Y33400000D03*
%TD*%
%TO.P,C203,1*%
%TO.N,Net-(C203-Pad1)*%
X4000000Y28400000D03*
%TO.P,C203,2*%
%TO.N,Net-(U201D--)*%
X1500000Y28400000D03*
%TD*%
%TO.P,R201,1*%
%TO.N,+3.3V*%
X30810000Y49500000D03*
%TO.P,R201,2*%
%TO.N,Net-(U201A-+)*%
X23190000Y49500000D03*
%TD*%
D21*
%TO.P,C204,1*%
%TO.N,Net-(U201D--)*%
X-4500000Y28400000D03*
D12*
%TO.P,C204,2*%
%TO.N,Net-(D202-A)*%
X-7000000Y28400000D03*
%TD*%
D10*
%TO.P,R104,1*%
%TO.N,+3.3V*%
X-11880000Y-23000000D03*
%TO.P,R104,2*%
%TO.N,CH04*%
X-19500000Y-23000000D03*
%TD*%
%TO.P,R115,1*%
%TO.N,Net-(J102-Pin_5)*%
X-32500000Y-23000000D03*
%TO.P,R115,2*%
%TO.N,CH04*%
X-24880000Y-23000000D03*
%TD*%
D11*
%TO.P,D107,1,K*%
%TO.N,+3.3V*%
X14250000Y7500000D03*
D12*
%TO.P,D107,2,A*%
%TO.N,CH07*%
X21870000Y7500000D03*
%TD*%
D10*
%TO.P,R205,1*%
%TO.N,Net-(C203-Pad1)*%
X9070000Y23450000D03*
%TO.P,R205,2*%
%TO.N,Net-(U201D--)*%
X1450000Y23450000D03*
%TD*%
%TO.P,C201,1*%
%TO.N,+3.3V*%
X-1000000Y13000000D03*
%TO.P,C201,2*%
%TO.N,GND*%
X1500000Y13000000D03*
%TD*%
D24*
%TO.P,JP201,1,A*%
%TO.N,Net-(JP201-A)*%
X20750000Y-53250000D03*
D25*
%TO.P,JP201,2,B*%
%TO.N,GND*%
X23290000Y-53250000D03*
%TD*%
D11*
%TO.P,D101,1,K*%
%TO.N,+3.3V*%
X-32500000Y-12400000D03*
D12*
%TO.P,D101,2,A*%
%TO.N,CH01*%
X-24880000Y-12400000D03*
%TD*%
D10*
%TO.P,R207,1*%
%TO.N,Net-(C203-Pad1)*%
X1440000Y33400000D03*
%TO.P,R207,2*%
%TO.N,ADC1*%
X9060000Y33400000D03*
%TD*%
D13*
%TO.P,J201,1,Pin_1*%
%TO.N,GND*%
X-44300000Y18400000D03*
D14*
%TO.P,J201,2,Pin_2*%
%TO.N,Net-(J201-Pin_2)*%
X-44300000Y23400000D03*
%TO.P,J201,3,Pin_3*%
%TO.N,Net-(J201-Pin_3)*%
X-44300000Y28400000D03*
%TO.P,J201,4,Pin_4*%
%TO.N,GND*%
X-44300000Y33400000D03*
%TO.P,J201,5,Pin_5*%
%TO.N,Net-(J201-Pin_5)*%
X-44300000Y38400000D03*
%TO.P,J201,6,Pin_6*%
%TO.N,Net-(J201-Pin_6)*%
X-44300000Y43400000D03*
%TD*%
D21*
%TO.P,C206,1*%
%TO.N,Net-(U201C--)*%
X-4571144Y38400000D03*
D12*
%TO.P,C206,2*%
%TO.N,Net-(D204-A)*%
X-7071144Y38400000D03*
%TD*%
D24*
%TO.P,Brd201,1,GND*%
%TO.N,GND*%
X-3800000Y54000000D03*
D25*
%TO.P,Brd201,2,VCC*%
%TO.N,+3.3V*%
X-1260000Y54000000D03*
%TO.P,Brd201,3,SCL*%
%TO.N,Net-(A201-A5{slash}SCL)*%
X1280000Y54000000D03*
%TO.P,Brd201,4,SDA*%
%TO.N,Net-(A201-A4{slash}SDA)*%
X3820000Y54000000D03*
%TD*%
D10*
%TO.P,R121,1*%
%TO.N,Net-(J104-Pin_2)*%
X33370000Y7500000D03*
%TO.P,R121,2*%
%TO.N,CH07*%
X25750000Y7500000D03*
%TD*%
D11*
%TO.P,D113,1,K*%
%TO.N,CH05*%
X25750000Y-28000000D03*
D12*
%TO.P,D113,2,A*%
%TO.N,GND*%
X33370000Y-28000000D03*
%TD*%
D14*
%TO.P,H212,1*%
%TO.N,N/C*%
X-12750000Y28500000D03*
D17*
X-12750000Y28500000D03*
%TD*%
D10*
%TO.P,R202,1*%
%TO.N,+3.3V*%
X-24830000Y43400000D03*
%TO.P,R202,2*%
%TO.N,Net-(J201-Pin_6)*%
X-32450000Y43400000D03*
%TD*%
D14*
%TO.P,H213,1*%
%TO.N,N/C*%
X15000000Y25500000D03*
D17*
X15000000Y25500000D03*
%TD*%
D15*
%TO.P,H207,1*%
%TO.N,N/C*%
X-39000000Y-53500000D03*
D16*
X-39000000Y-53500000D03*
%TD*%
D10*
%TO.P,R206,1*%
%TO.N,Net-(D202-A)*%
X-24880000Y23450000D03*
%TO.P,R206,2*%
%TO.N,Net-(J201-Pin_2)*%
X-32500000Y23450000D03*
%TD*%
%TO.P,R106,1*%
%TO.N,+3.3V*%
X14250000Y-38000000D03*
%TO.P,R106,2*%
%TO.N,CH06*%
X21870000Y-38000000D03*
%TD*%
%TO.P,R123,1*%
%TO.N,Net-(J104-Pin_5)*%
X33370000Y-7500000D03*
%TO.P,R123,2*%
%TO.N,CH08*%
X25750000Y-7500000D03*
%TD*%
%TO.P,R108,1*%
%TO.N,+3.3V*%
X14250000Y-7500000D03*
%TO.P,R108,2*%
%TO.N,CH08*%
X21870000Y-7500000D03*
%TD*%
D11*
%TO.P,D111,1,K*%
%TO.N,CH03*%
X-19500000Y-43000000D03*
D12*
%TO.P,D111,2,A*%
%TO.N,GND*%
X-11880000Y-43000000D03*
%TD*%
D11*
%TO.P,D110,1,K*%
%TO.N,CH02*%
X-19500000Y7500000D03*
D12*
%TO.P,D110,2,A*%
%TO.N,GND*%
X-11880000Y7500000D03*
%TD*%
D10*
%TO.P,R117,1*%
%TO.N,Net-(J103-Pin_2)*%
X33370000Y-23000000D03*
%TO.P,R117,2*%
%TO.N,CH05*%
X25750000Y-23000000D03*
%TD*%
D26*
%TO.N,ADC1*%
X3250000Y-15000000D03*
X0Y-21000000D03*
%TO.N,ADC0*%
X1500000Y-21000000D03*
X5000000Y-15000000D03*
%TO.N,CH07*%
X-4750000Y-35000000D03*
%TO.N,CH05*%
X-1250000Y-35000000D03*
%TO.N,Net-(A201-A5{slash}SCL)*%
X18000000Y-15250000D03*
X10312500Y-21062500D03*
%TO.N,CH08*%
X-3000000Y-35000000D03*
%TO.N,Net-(A201-A4{slash}SDA)*%
X11750000Y-21000000D03*
X18000000Y-16500000D03*
%TO.N,ADC2*%
X6750000Y-15000000D03*
X3000000Y-21000000D03*
%TD*%
D27*
%TO.N,ADC1*%
X16300000Y33400000D02*
X9060000Y33400000D01*
X3250000Y-15000000D02*
X0Y-18250000D01*
X0Y-18250000D02*
X0Y-21000000D01*
%TO.N,ADC0*%
X1500000Y-18500000D02*
X1500000Y-21000000D01*
X5000000Y-15000000D02*
X1500000Y-18500000D01*
%TO.N,CH07*%
X17250000Y2500000D02*
X-4750000Y-19500000D01*
X-4750000Y-19500000D02*
X-4750000Y-35000000D01*
X25750000Y2500000D02*
X17250000Y2500000D01*
%TO.N,CH06*%
X21870000Y-44131370D02*
X9001370Y-57000000D01*
X-6300000Y-57000000D02*
X-7620000Y-58320000D01*
X9001370Y-57000000D02*
X-6300000Y-57000000D01*
X21870000Y-43000000D02*
X21870000Y-44131370D01*
D28*
%TO.N,+3.3V*%
X-24890000Y-33000000D02*
X-16880000Y-33000000D01*
X34595000Y31495000D02*
X30800000Y31495000D01*
X-24880000Y-2400000D02*
X-16980000Y-2400000D01*
X-24880000Y-18000000D02*
X-16880000Y-18000000D01*
X-22130000Y15250000D02*
X-14630000Y15250000D01*
X-16880000Y-18000000D02*
X-11880000Y-23000000D01*
X38400000Y35300000D02*
X34595000Y31495000D01*
X-16980000Y-2400000D02*
X-11880000Y-7500000D01*
X-14630000Y15250000D02*
X-11880000Y12500000D01*
X-16880000Y-33000000D02*
X-11880000Y-38000000D01*
X38400000Y38350000D02*
X38400000Y35300000D01*
X-24880000Y12500000D02*
X-22130000Y15250000D01*
%TO.N,GND*%
X-38500000Y48000000D02*
X-33000000Y48000000D01*
X11500000Y-31250000D02*
X10000000Y-32750000D01*
X-40600000Y-43000000D02*
X-40500000Y-42900000D01*
X-40600000Y33400000D02*
X-40500000Y33500000D01*
X-11880000Y7500000D02*
X-9750000Y9630000D01*
X-24932380Y50817620D02*
X-17000000Y58750000D01*
X-26500000Y34650000D02*
X-40350000Y34650000D01*
X-9750000Y9630000D02*
X-9750000Y18450000D01*
X10000000Y-32750000D02*
X4000000Y-32750000D01*
X-11880000Y-43000000D02*
X-14880000Y-46000000D01*
X-11880000Y-40880000D02*
X-11880000Y-43000000D01*
X1500000Y13000000D02*
X5500000Y13000000D01*
X18800000Y43400000D02*
X18800000Y46200000D01*
X-40575000Y-12225000D02*
X-40500000Y-12300000D01*
X33370000Y-43000000D02*
X44303000Y-43000000D01*
X-6000000Y58750000D02*
X-17000000Y58750000D01*
X40500000Y-12750000D02*
X40500000Y2500000D01*
X40900000Y28900000D02*
X40900000Y21750000D01*
X4000000Y-32750000D02*
X-1250000Y-38000000D01*
X-11880707Y-12499293D02*
X-9750000Y-14630000D01*
X500000Y-750000D02*
X500000Y-5000000D01*
X23190000Y46250000D02*
X18850000Y46250000D01*
X-11690000Y38400000D02*
X-9750000Y36460000D01*
X40250000Y-12500000D02*
X40500000Y-12750000D01*
X40500000Y2500000D02*
X40500000Y15750000D01*
X-44300000Y-42900000D02*
X-40700000Y-42900000D01*
X-40875000Y2775000D02*
X-40500000Y2400000D01*
X-40500000Y-12300000D02*
X-40500000Y2400000D01*
X-44300000Y-12225000D02*
X-40575000Y-12225000D01*
X40500000Y-43000000D02*
X40500000Y-27750000D01*
X-40500000Y46000000D02*
X-38500000Y48000000D01*
X40250000Y-28000000D02*
X40500000Y-27750000D01*
X-7620000Y-38000000D02*
X-9000000Y-38000000D01*
X-40600000Y-28000000D02*
X-40500000Y-28100000D01*
X-9750000Y36460000D02*
X-9750000Y23550000D01*
X-3800000Y56550000D02*
X-6000000Y58750000D01*
X-26500000Y50817620D02*
X-24932380Y50817620D01*
X-9750000Y5370000D02*
X-9750000Y-10368586D01*
X33370000Y-28000000D02*
X40250000Y-28000000D01*
X44303000Y-28000000D02*
X40250000Y-28000000D01*
X-40500000Y34500000D02*
X-40500000Y46000000D01*
X-44300000Y2775000D02*
X-40875000Y2775000D01*
X33370000Y-12500000D02*
X40250000Y-12500000D01*
X40293000Y-12543000D02*
X40250000Y-12500000D01*
X1600000Y18450000D02*
X37600000Y18450000D01*
X-40500000Y-42900000D02*
X-40500000Y-28100000D01*
X40543000Y2457000D02*
X40500000Y2500000D01*
X-11690000Y23450000D02*
X-9850000Y23450000D01*
X-40500000Y2400000D02*
X-40500000Y33500000D01*
X37600000Y18450000D02*
X37700000Y18550000D01*
X-9750000Y23550000D02*
X-9750000Y18450000D01*
X-9000000Y-38000000D02*
X-11880000Y-40880000D01*
X-11880000Y7500000D02*
X-9750000Y5370000D01*
X-44300000Y18450000D02*
X-9750000Y18450000D01*
X33370000Y-43000000D02*
X23290000Y-53080000D01*
X-40350000Y34650000D02*
X-40500000Y34500000D01*
X44300000Y-12543000D02*
X40293000Y-12543000D01*
X-37600000Y-46000000D02*
X-40600000Y-43000000D01*
X40900000Y28900000D02*
X40900000Y38350000D01*
X-40500000Y33500000D02*
X-40500000Y34500000D01*
X-9750000Y-25870000D02*
X-11880000Y-28000000D01*
X-14880000Y-46000000D02*
X-37600000Y-46000000D01*
X-9750000Y-10368586D02*
X-11880707Y-12499293D01*
X1500000Y7580000D02*
X5080000Y4000000D01*
X-33000000Y48000000D02*
X-30182380Y50817620D01*
X-9750000Y18450000D02*
X1600000Y18450000D01*
X40500000Y15750000D02*
X37700000Y18550000D01*
X33370000Y2500000D02*
X40500000Y2500000D01*
X21650000Y51950000D02*
X18800000Y49100000D01*
X-40700000Y-42900000D02*
X-40600000Y-43000000D01*
X-44300000Y33400000D02*
X-40600000Y33400000D01*
X28060000Y-31250000D02*
X11500000Y-31250000D01*
X40900000Y42550000D02*
X31500000Y51950000D01*
X40500000Y-27750000D02*
X40500000Y-12750000D01*
X1500000Y13000000D02*
X1500000Y7580000D01*
X-9850000Y23450000D02*
X-9750000Y23550000D01*
X-1250000Y-38000000D02*
X-7298000Y-38000000D01*
X31310000Y-28000000D02*
X28060000Y-31250000D01*
X-40500000Y-28100000D02*
X-40500000Y-12300000D01*
X33370000Y-43000000D02*
X40500000Y-43000000D01*
X40900000Y38350000D02*
X40900000Y42550000D01*
X18800000Y49100000D02*
X18800000Y43400000D01*
X33370000Y-28000000D02*
X31310000Y-28000000D01*
X-3800000Y54000000D02*
X-3800000Y56550000D01*
X-44372000Y-28000000D02*
X-40600000Y-28000000D01*
X31500000Y51950000D02*
X21650000Y51950000D01*
X-30182380Y50817620D02*
X-26500000Y50817620D01*
X5080000Y3830000D02*
X500000Y-750000D01*
X44300000Y2457000D02*
X40543000Y2457000D01*
X1500000Y13000000D02*
X1500000Y18350000D01*
X1500000Y18350000D02*
X1600000Y18450000D01*
X40900000Y21750000D02*
X37700000Y18550000D01*
X18800000Y46200000D02*
X18850000Y46250000D01*
X-9750000Y-14630000D02*
X-9750000Y-25870000D01*
D27*
%TO.N,Net-(JP201-A)*%
X7620000Y-35460000D02*
X21477107Y-35460000D01*
X24000000Y-37982893D02*
X24000000Y-50000000D01*
X24000000Y-50000000D02*
X20750000Y-53250000D01*
X21477107Y-35460000D02*
X24000000Y-37982893D01*
%TO.N,CH05*%
X-1250000Y-35000000D02*
X-1250000Y-29750000D01*
X19370000Y-25500000D02*
X21870000Y-23000000D01*
X-1250000Y-29750000D02*
X3000000Y-25500000D01*
X3000000Y-25500000D02*
X19370000Y-25500000D01*
%TO.N,Net-(A201-A5{slash}SCL)*%
X18000000Y-15250000D02*
X13250000Y-15250000D01*
X13250000Y-15250000D02*
X10312500Y-18187500D01*
X10312500Y-18187500D02*
X10312500Y-21062500D01*
%TO.N,CH08*%
X6500000Y-10250000D02*
X19620000Y-10250000D01*
X-3000000Y-35000000D02*
X-3000000Y-19750000D01*
X19620000Y-10250000D02*
X21870000Y-12500000D01*
X-3000000Y-19750000D02*
X6500000Y-10250000D01*
%TO.N,Net-(A201-A4{slash}SDA)*%
X18000000Y-16500000D02*
X14500000Y-16500000D01*
X11750000Y-19250000D02*
X11750000Y-21000000D01*
X14500000Y-16500000D02*
X11750000Y-19250000D01*
%TO.N,Net-(U201C--)*%
X23180000Y36575000D02*
X21405000Y38350000D01*
X21405000Y38350000D02*
X9210000Y38350000D01*
%TO.N,Net-(C203-Pad1)*%
X10550000Y22000000D02*
X21250000Y22000000D01*
X21555000Y22250000D02*
X23180000Y23875000D01*
X10550000Y22020000D02*
X10550000Y22000000D01*
X9070000Y23450000D02*
X4120000Y28400000D01*
X9070000Y23500000D02*
X10550000Y22020000D01*
X21500000Y22250000D02*
X21555000Y22250000D01*
X21250000Y22000000D02*
X21500000Y22250000D01*
%TO.N,Net-(D204-A)*%
X-19310000Y38400000D02*
X-24880000Y38400000D01*
%TO.N,Net-(U201D--)*%
X23180000Y26415000D02*
X20445000Y29150000D01*
X11050000Y29150000D02*
X9100000Y31100000D01*
X4200000Y31100000D02*
X1500000Y28400000D01*
X1450000Y23450000D02*
X1450000Y28350000D01*
X1500000Y28400000D02*
X-4500000Y28400000D01*
X9100000Y31100000D02*
X4200000Y31100000D01*
X20445000Y29150000D02*
X11050000Y29150000D01*
%TO.N,Net-(C205-Pad1)*%
X3940000Y40750000D02*
X1590000Y38400000D01*
X23180000Y39115000D02*
X21545000Y40750000D01*
X21545000Y40750000D02*
X3940000Y40750000D01*
X1590000Y38400000D02*
X1590000Y43450000D01*
%TO.N,Net-(U201A-+)*%
X28500000Y43940000D02*
X28500000Y34500000D01*
X28500000Y33500000D02*
X28500000Y31255000D01*
X28500000Y31255000D02*
X30800000Y28955000D01*
X27560000Y49500000D02*
X23190000Y49500000D01*
X38400000Y28900000D02*
X30855000Y28900000D01*
X28965000Y34035000D02*
X30800000Y34035000D01*
X29035000Y34035000D02*
X28500000Y33500000D01*
X30810000Y46250000D02*
X28500000Y43940000D01*
X30810000Y46250000D02*
X27560000Y49500000D01*
X28500000Y34500000D02*
X28965000Y34035000D01*
%TO.N,Net-(U201B--)*%
X30800000Y39115000D02*
X30800000Y42740000D01*
X30800000Y39115000D02*
X30800000Y36575000D01*
%TO.N,Net-(U201A--)*%
X25000000Y32215000D02*
X25000000Y30775000D01*
X30800000Y23875000D02*
X30800000Y26415000D01*
X25720000Y26415000D02*
X23180000Y28955000D01*
X30800000Y26415000D02*
X25720000Y26415000D01*
X25000000Y30775000D02*
X23180000Y28955000D01*
X23180000Y34035000D02*
X25000000Y32215000D01*
%TO.N,ADC2*%
X6750000Y-15000000D02*
X3000000Y-18750000D01*
X3000000Y-18750000D02*
X3000000Y-21000000D01*
%TD*%
%TA.AperFunction,Conductor*%
%TO.N,ADC1*%
G36*
X9458051Y33977607D02*
G01*
X9679794Y33870469D01*
X10439940Y33503194D01*
X10445898Y33496509D01*
X10446550Y33492659D01*
X10446550Y33307342D01*
X10443123Y33299069D01*
X10439940Y33296807D01*
X9458051Y32822394D01*
X9449111Y32821881D01*
X9443241Y32826417D01*
X9063361Y33393489D01*
X9061604Y33402269D01*
X9063362Y33406512D01*
X9443242Y33973585D01*
X9450692Y33978550D01*
X9458051Y33977607D01*
G37*
%TD.AperFunction*%
%TD*%
%TA.AperFunction,Conductor*%
%TO.N,CH06*%
G36*
X-6479050Y-57042628D02*
G01*
X-6476027Y-57044811D01*
X-6344812Y-57176026D01*
X-6341385Y-57184299D01*
X-6341979Y-57187980D01*
X-6769746Y-58478679D01*
X-6775602Y-58485454D01*
X-6783124Y-58486475D01*
X-7613023Y-58322227D01*
X-7620473Y-58317260D01*
X-7622228Y-58313022D01*
X-7786476Y-57483121D01*
X-7784721Y-57474341D01*
X-7778683Y-57469746D01*
X-6487980Y-57041978D01*
X-6479050Y-57042628D01*
G37*
%TD.AperFunction*%
%TD*%
%TA.AperFunction,Conductor*%
%TO.N,GND*%
G36*
X-11106265Y-26532733D02*
G01*
X-10412734Y-27226264D01*
X-10409307Y-27234537D01*
X-10411277Y-27241034D01*
X-11208334Y-28434734D01*
X-11215778Y-28439711D01*
X-11224552Y-28437973D01*
X-11878758Y-28002005D01*
X-11882006Y-27998757D01*
X-12317974Y-27344551D01*
X-12319710Y-27335766D01*
X-12314735Y-27328333D01*
X-12161873Y-27226264D01*
X-11121035Y-26531275D01*
X-11112252Y-26529532D01*
X-11106265Y-26532733D01*
G37*
%TD.AperFunction*%
%TD*%
%TA.AperFunction,Conductor*%
%TO.N,GND*%
G36*
X19298189Y44783123D02*
G01*
X19301488Y44776577D01*
X19484906Y43547575D01*
X19482738Y43538887D01*
X19475633Y43534376D01*
X18802299Y43399461D01*
X18797701Y43399461D01*
X18124366Y43534376D01*
X18116928Y43539361D01*
X18115093Y43547575D01*
X18298512Y44776577D01*
X18303123Y44784254D01*
X18310084Y44786550D01*
X19289916Y44786550D01*
X19298189Y44783123D01*
G37*
%TD.AperFunction*%
%TD*%
%TA.AperFunction,Conductor*%
%TO.N,ADC0*%
G36*
X1600070Y-20409191D02*
G01*
X1602796Y-20413476D01*
X1789608Y-20928709D01*
X1789207Y-20937655D01*
X1782597Y-20943696D01*
X1780929Y-20944165D01*
X1502320Y-21000530D01*
X1497680Y-21000530D01*
X1219070Y-20944165D01*
X1211641Y-20939165D01*
X1209922Y-20930377D01*
X1210387Y-20928720D01*
X1397204Y-20413476D01*
X1403245Y-20406866D01*
X1408203Y-20405764D01*
X1591797Y-20405764D01*
X1600070Y-20409191D01*
G37*
%TD.AperFunction*%
%TD*%
%TA.AperFunction,Conductor*%
%TO.N,CH07*%
G36*
X25030247Y3219763D02*
G01*
X25742709Y2508279D01*
X25746142Y2500008D01*
X25742721Y2491733D01*
X25742709Y2491721D01*
X25030247Y1780238D01*
X25021972Y1776817D01*
X25015158Y1779012D01*
X24154878Y2396499D01*
X24150155Y2404107D01*
X24150000Y2406004D01*
X24150000Y2593997D01*
X24153427Y2602270D01*
X24154872Y2603498D01*
X25015159Y3220990D01*
X25023877Y3223029D01*
X25030247Y3219763D01*
G37*
%TD.AperFunction*%
%TD*%
%TA.AperFunction,Conductor*%
%TO.N,Net-(U201A--)*%
G36*
X30361259Y27071642D02*
G01*
X30796640Y26421510D01*
X30798397Y26412729D01*
X30796640Y26408490D01*
X30361259Y25758359D01*
X30353809Y25753391D01*
X30346342Y25754386D01*
X29221876Y26311777D01*
X29215985Y26318522D01*
X29215372Y26322260D01*
X29215372Y26507741D01*
X29218799Y26516014D01*
X29221876Y26518224D01*
X30346342Y27075616D01*
X30355276Y27076219D01*
X30361259Y27071642D01*
G37*
%TD.AperFunction*%
%TD*%
%TA.AperFunction,Conductor*%
%TO.N,Net-(C205-Pad1)*%
G36*
X2501735Y39448221D02*
G01*
X2504918Y39445959D01*
X2635958Y39314919D01*
X2639385Y39306646D01*
X2638733Y39302796D01*
X2279895Y38273037D01*
X2273937Y38266352D01*
X2266578Y38265409D01*
X1596982Y38397774D01*
X1589531Y38402740D01*
X1587773Y38406983D01*
X1455408Y39076579D01*
X1457166Y39085360D01*
X1463033Y39089895D01*
X2492797Y39448734D01*
X2501735Y39448221D01*
G37*
%TD.AperFunction*%
%TD*%
%TA.AperFunction,Conductor*%
%TO.N,Net-(C205-Pad1)*%
G36*
X1690932Y39783123D02*
G01*
X1693194Y39779940D01*
X2167606Y38798052D01*
X2168119Y38789112D01*
X2163583Y38783242D01*
X1596512Y38403363D01*
X1587731Y38401605D01*
X1583488Y38403363D01*
X1016416Y38783242D01*
X1011450Y38790693D01*
X1012393Y38798052D01*
X1486806Y39779940D01*
X1493491Y39785898D01*
X1497341Y39786550D01*
X1682659Y39786550D01*
X1690932Y39783123D01*
G37*
%TD.AperFunction*%
%TD*%
%TA.AperFunction,Conductor*%
%TO.N,GND*%
G36*
X23051113Y46932739D02*
G01*
X23055624Y46925634D01*
X23190539Y46252299D01*
X23190539Y46247701D01*
X23055624Y45574367D01*
X23050639Y45566929D01*
X23042425Y45565094D01*
X21813423Y45748512D01*
X21805746Y45753123D01*
X21803450Y45760084D01*
X21803450Y46739917D01*
X21806877Y46748190D01*
X21813421Y46751489D01*
X23042426Y46934907D01*
X23051113Y46932739D01*
G37*
%TD.AperFunction*%
%TD*%
%TA.AperFunction,Conductor*%
%TO.N,ADC1*%
G36*
X15916758Y33973584D02*
G01*
X16296637Y33406512D01*
X16298395Y33397731D01*
X16296637Y33393488D01*
X15916758Y32826417D01*
X15909307Y32821451D01*
X15901948Y32822394D01*
X14920060Y33296807D01*
X14914102Y33303492D01*
X14913450Y33307342D01*
X14913450Y33492659D01*
X14916877Y33500932D01*
X14920058Y33503194D01*
X15901948Y33977608D01*
X15910888Y33978120D01*
X15916758Y33973584D01*
G37*
%TD.AperFunction*%
%TD*%
%TA.AperFunction,Conductor*%
%TO.N,Net-(U201D--)*%
G36*
X1506510Y28396639D02*
G01*
X1996181Y28068610D01*
X2073238Y28016990D01*
X2078204Y28009539D01*
X2077050Y28001765D01*
X1553304Y27019645D01*
X1546387Y27013957D01*
X1542980Y27013450D01*
X1357684Y27013450D01*
X1349411Y27016877D01*
X1346947Y27020501D01*
X921844Y28002157D01*
X921701Y28011110D01*
X926069Y28016526D01*
X926762Y28016990D01*
X1493488Y28396639D01*
X1502269Y28398396D01*
X1506510Y28396639D01*
G37*
%TD.AperFunction*%
%TD*%
%TA.AperFunction,Conductor*%
%TO.N,GND*%
G36*
X-11209041Y-12064558D02*
G01*
X-10411984Y-13258258D01*
X-10410240Y-13267041D01*
X-10413441Y-13273028D01*
X-11106972Y-13966559D01*
X-11115245Y-13969986D01*
X-11121742Y-13968016D01*
X-12315442Y-13170959D01*
X-12320419Y-13163515D01*
X-12318682Y-13154742D01*
X-11882713Y-12500534D01*
X-11879465Y-12497287D01*
X-11225258Y-12061318D01*
X-11216474Y-12059583D01*
X-11209041Y-12064558D01*
G37*
%TD.AperFunction*%
%TD*%
%TA.AperFunction,Conductor*%
%TO.N,Net-(U201A-+)*%
G36*
X29757087Y30143893D02*
G01*
X30946338Y29742910D01*
X30953083Y29737019D01*
X30954078Y29729552D01*
X30802227Y28961980D01*
X30797259Y28954530D01*
X30793020Y28952773D01*
X30025448Y28800922D01*
X30016667Y28802679D01*
X30012090Y28808662D01*
X29611107Y29997913D01*
X29611711Y30006847D01*
X29613918Y30009921D01*
X29745077Y30141080D01*
X29753349Y30144506D01*
X29757087Y30143893D01*
G37*
%TD.AperFunction*%
%TD*%
%TA.AperFunction,Conductor*%
%TO.N,GND*%
G36*
X-8477350Y-37262080D02*
G01*
X-7628865Y-37991069D01*
X-7624823Y-37999059D01*
X-7627616Y-38007568D01*
X-7628217Y-38008216D01*
X-8476909Y-38856908D01*
X-8485182Y-38860335D01*
X-8491542Y-38858455D01*
X-8890919Y-38599731D01*
X-8892831Y-38598184D01*
X-9588212Y-37902803D01*
X-9591639Y-37894530D01*
X-9588212Y-37886257D01*
X-9585729Y-37884363D01*
X-8490761Y-37260787D01*
X-8481878Y-37259672D01*
X-8477350Y-37262080D01*
G37*
%TD.AperFunction*%
%TD*%
%TA.AperFunction,Conductor*%
%TO.N,+3.3V*%
G36*
X-23513422Y-32498511D02*
G01*
X-23505746Y-32503122D01*
X-23503450Y-32510083D01*
X-23503450Y-33489916D01*
X-23506877Y-33498189D01*
X-23513423Y-33501488D01*
X-24742426Y-33684906D01*
X-24751114Y-33682738D01*
X-24755625Y-33675634D01*
X-24890540Y-33002295D01*
X-24890540Y-32997704D01*
X-24755624Y-32324364D01*
X-24750640Y-32316928D01*
X-24742427Y-32315093D01*
X-23513422Y-32498511D01*
G37*
%TD.AperFunction*%
%TD*%
%TA.AperFunction,Conductor*%
%TO.N,GND*%
G36*
X-26658753Y35430600D02*
G01*
X-26653778Y35423167D01*
X-26499460Y34652297D01*
X-26499460Y34647703D01*
X-26653778Y33876834D01*
X-26658762Y33869395D01*
X-26667536Y33867657D01*
X-28075214Y34148125D01*
X-28082658Y34153102D01*
X-28084628Y34159599D01*
X-28084628Y35140402D01*
X-28081201Y35148675D01*
X-28075216Y35151876D01*
X-26667536Y35432344D01*
X-26658753Y35430600D01*
G37*
%TD.AperFunction*%
%TD*%
%TA.AperFunction,Conductor*%
%TO.N,ADC1*%
G36*
X100070Y-20409191D02*
G01*
X102796Y-20413476D01*
X289608Y-20928709D01*
X289207Y-20937655D01*
X282597Y-20943696D01*
X280929Y-20944165D01*
X2320Y-21000530D01*
X-2320Y-21000530D01*
X-280930Y-20944165D01*
X-288359Y-20939165D01*
X-290078Y-20930377D01*
X-289613Y-20928720D01*
X-102796Y-20413476D01*
X-96755Y-20406866D01*
X-91797Y-20405764D01*
X91797Y-20405764D01*
X100070Y-20409191D01*
G37*
%TD.AperFunction*%
%TD*%
%TA.AperFunction,Conductor*%
%TO.N,Net-(A201-A4{slash}SDA)*%
G36*
X11850070Y-20409191D02*
G01*
X11852796Y-20413476D01*
X12039608Y-20928709D01*
X12039207Y-20937655D01*
X12032597Y-20943696D01*
X12030929Y-20944165D01*
X11752320Y-21000530D01*
X11747680Y-21000530D01*
X11469070Y-20944165D01*
X11461641Y-20939165D01*
X11459922Y-20930377D01*
X11460387Y-20928720D01*
X11647204Y-20413476D01*
X11653245Y-20406866D01*
X11658203Y-20405764D01*
X11841797Y-20405764D01*
X11850070Y-20409191D01*
G37*
%TD.AperFunction*%
%TD*%
%TA.AperFunction,Conductor*%
%TO.N,Net-(U201D--)*%
G36*
X22137087Y27603893D02*
G01*
X23326338Y27202910D01*
X23333083Y27197019D01*
X23334078Y27189552D01*
X23182227Y26421980D01*
X23177259Y26414530D01*
X23173020Y26412773D01*
X22405448Y26260922D01*
X22396667Y26262679D01*
X22392090Y26268662D01*
X21991107Y27457913D01*
X21991711Y27466847D01*
X21993918Y27469921D01*
X22125077Y27601080D01*
X22133349Y27604506D01*
X22137087Y27603893D01*
G37*
%TD.AperFunction*%
%TD*%
%TA.AperFunction,Conductor*%
%TO.N,Net-(U201B--)*%
G36*
X30901014Y40696201D02*
G01*
X30903224Y40693124D01*
X31460614Y39568658D01*
X31461218Y39559724D01*
X31456641Y39553741D01*
X30806510Y39118360D01*
X30797729Y39116603D01*
X30793490Y39118360D01*
X30143358Y39553741D01*
X30138390Y39561191D01*
X30139385Y39568658D01*
X30696776Y40693124D01*
X30703521Y40699015D01*
X30707259Y40699628D01*
X30892741Y40699628D01*
X30901014Y40696201D01*
G37*
%TD.AperFunction*%
%TD*%
%TA.AperFunction,Conductor*%
%TO.N,ADC2*%
G36*
X6510362Y-14839986D02*
G01*
X6511872Y-14840835D01*
X6748734Y-14997984D01*
X6752015Y-15001265D01*
X6909164Y-15238127D01*
X6910883Y-15246915D01*
X6905883Y-15254344D01*
X6904373Y-15255193D01*
X6407953Y-15487422D01*
X6399007Y-15487823D01*
X6394722Y-15485097D01*
X6264902Y-15355277D01*
X6261475Y-15347004D01*
X6262575Y-15342051D01*
X6494806Y-14845625D01*
X6501416Y-14839585D01*
X6510362Y-14839986D01*
G37*
%TD.AperFunction*%
%TD*%
%TA.AperFunction,Conductor*%
%TO.N,GND*%
G36*
X-11018334Y38834735D02*
G01*
X-10221277Y37641035D01*
X-10219533Y37632252D01*
X-10222734Y37626265D01*
X-10916265Y36932734D01*
X-10924538Y36929307D01*
X-10931035Y36931277D01*
X-12124735Y37728334D01*
X-12129712Y37735778D01*
X-12127975Y37744551D01*
X-11692006Y38398759D01*
X-11688758Y38402006D01*
X-11034551Y38837975D01*
X-11025767Y38839710D01*
X-11018334Y38834735D01*
G37*
%TD.AperFunction*%
%TD*%
%TA.AperFunction,Conductor*%
%TO.N,Net-(C203-Pad1)*%
G36*
X8167200Y24498735D02*
G01*
X9196964Y24139895D01*
X9203648Y24133938D01*
X9204591Y24126579D01*
X9072226Y23456983D01*
X9067260Y23449532D01*
X9063017Y23447774D01*
X8393421Y23315409D01*
X8384640Y23317167D01*
X8380105Y23323036D01*
X8021266Y24352798D01*
X8021779Y24361736D01*
X8024038Y24364916D01*
X8155082Y24495960D01*
X8163354Y24499386D01*
X8167200Y24498735D01*
G37*
%TD.AperFunction*%
%TD*%
%TA.AperFunction,Conductor*%
%TO.N,GND*%
G36*
X41575634Y38215625D02*
G01*
X41583071Y38210640D01*
X41584906Y38202426D01*
X41401488Y36973423D01*
X41396877Y36965746D01*
X41389916Y36963450D01*
X40410084Y36963450D01*
X40401811Y36966877D01*
X40398512Y36973423D01*
X40215093Y38202426D01*
X40217261Y38211114D01*
X40224364Y38215624D01*
X40897704Y38350540D01*
X40902296Y38350540D01*
X41575634Y38215625D01*
G37*
%TD.AperFunction*%
%TD*%
%TA.AperFunction,Conductor*%
%TO.N,GND*%
G36*
X33583595Y3273167D02*
G01*
X34945214Y3001876D01*
X34952658Y2996899D01*
X34954628Y2990402D01*
X34954628Y2009599D01*
X34951201Y2001326D01*
X34945214Y1998125D01*
X33537535Y1717657D01*
X33528752Y1719401D01*
X33523777Y1726834D01*
X33369459Y2497708D01*
X33369459Y2502293D01*
X33523777Y3273169D01*
X33528761Y3280606D01*
X33537535Y3282344D01*
X33583595Y3273167D01*
G37*
%TD.AperFunction*%
%TD*%
%TA.AperFunction,Conductor*%
%TO.N,+3.3V*%
G36*
X-23503422Y-1898511D02*
G01*
X-23495746Y-1903122D01*
X-23493450Y-1910083D01*
X-23493450Y-2889916D01*
X-23496877Y-2898189D01*
X-23503423Y-2901488D01*
X-24732426Y-3084906D01*
X-24741114Y-3082738D01*
X-24745625Y-3075634D01*
X-24880540Y-2402295D01*
X-24880540Y-2397704D01*
X-24745624Y-1724364D01*
X-24740640Y-1716928D01*
X-24732427Y-1715093D01*
X-23503422Y-1898511D01*
G37*
%TD.AperFunction*%
%TD*%
%TA.AperFunction,Conductor*%
%TO.N,GND*%
G36*
X41398189Y30283123D02*
G01*
X41401488Y30276577D01*
X41584906Y29047575D01*
X41582738Y29038887D01*
X41575633Y29034376D01*
X40902299Y28899461D01*
X40897701Y28899461D01*
X40224366Y29034376D01*
X40216928Y29039361D01*
X40215093Y29047575D01*
X40398512Y30276577D01*
X40403123Y30284254D01*
X40410084Y30286550D01*
X41389916Y30286550D01*
X41398189Y30283123D01*
G37*
%TD.AperFunction*%
%TD*%
%TA.AperFunction,Conductor*%
%TO.N,GND*%
G36*
X-42993406Y-11260148D02*
G01*
X-42006740Y-11721846D01*
X-42000700Y-11728455D01*
X-42000000Y-11732442D01*
X-42000000Y-12717979D01*
X-42003427Y-12726252D01*
X-42006196Y-12728303D01*
X-42993494Y-13254656D01*
X-43002406Y-13255525D01*
X-43005936Y-13253753D01*
X-44288742Y-12309027D01*
X-44293372Y-12301362D01*
X-44291225Y-12292668D01*
X-44289127Y-12290481D01*
X-43005681Y-11261616D01*
X-42997084Y-11259116D01*
X-42993406Y-11260148D01*
G37*
%TD.AperFunction*%
%TD*%
%TA.AperFunction,Conductor*%
%TO.N,GND*%
G36*
X-43469593Y34397389D02*
G01*
X-42019044Y33902702D01*
X-42012321Y33896789D01*
X-42011122Y33891629D01*
X-42011122Y32908372D01*
X-42014549Y32900099D01*
X-42019045Y32897298D01*
X-43469590Y32402613D01*
X-43478527Y32403186D01*
X-43482398Y32406248D01*
X-43886900Y32897298D01*
X-44294874Y33392563D01*
X-44297488Y33401125D01*
X-44294874Y33407437D01*
X-43482397Y34393754D01*
X-43474492Y34397960D01*
X-43469593Y34397389D01*
G37*
%TD.AperFunction*%
%TD*%
%TA.AperFunction,Conductor*%
%TO.N,GND*%
G36*
X-42993420Y19425359D02*
G01*
X-42006649Y18953182D01*
X-42000666Y18946521D01*
X-42000000Y18942629D01*
X-42000000Y17957091D01*
X-42003427Y17948818D01*
X-42006286Y17946719D01*
X-42993478Y17431440D01*
X-43002398Y17430650D01*
X-43005895Y17432439D01*
X-43698664Y17950000D01*
X-44288806Y18390890D01*
X-44293382Y18398587D01*
X-44291176Y18407266D01*
X-44289064Y18409437D01*
X-43005724Y19423983D01*
X-42997110Y19426425D01*
X-42993420Y19425359D01*
G37*
%TD.AperFunction*%
%TD*%
%TA.AperFunction,Conductor*%
%TO.N,Net-(A201-A5{slash}SCL)*%
G36*
X10412570Y-20471691D02*
G01*
X10415296Y-20475976D01*
X10602108Y-20991209D01*
X10601707Y-21000155D01*
X10595097Y-21006196D01*
X10593429Y-21006665D01*
X10314820Y-21063030D01*
X10310180Y-21063030D01*
X10031570Y-21006665D01*
X10024141Y-21001665D01*
X10022422Y-20992877D01*
X10022887Y-20991220D01*
X10209704Y-20475976D01*
X10215745Y-20469366D01*
X10220703Y-20468264D01*
X10404297Y-20468264D01*
X10412570Y-20471691D01*
G37*
%TD.AperFunction*%
%TD*%
%TA.AperFunction,Conductor*%
%TO.N,Net-(C203-Pad1)*%
G36*
X9755648Y23582891D02*
G01*
X9760068Y23577341D01*
X10143447Y22572355D01*
X10143194Y22563404D01*
X10140788Y22559912D01*
X10009757Y22428881D01*
X10001484Y22425454D01*
X9997948Y22426001D01*
X8943407Y22760290D01*
X8936557Y22766057D01*
X8935465Y22773711D01*
X9067773Y23443019D01*
X9072739Y23450469D01*
X9076982Y23452227D01*
X9746867Y23584649D01*
X9755648Y23582891D01*
G37*
%TD.AperFunction*%
%TD*%
%TA.AperFunction,Conductor*%
%TO.N,GND*%
G36*
X32714551Y-42562026D02*
G01*
X33368757Y-42997994D01*
X33372005Y-43001242D01*
X33807973Y-43655448D01*
X33809709Y-43664233D01*
X33804734Y-43671666D01*
X32611034Y-44468723D01*
X32602251Y-44470467D01*
X32596264Y-44467266D01*
X31902733Y-43773735D01*
X31899306Y-43765462D01*
X31901276Y-43758965D01*
X31959568Y-43671666D01*
X32698333Y-42565264D01*
X32705777Y-42560288D01*
X32714551Y-42562026D01*
G37*
%TD.AperFunction*%
%TD*%
%TA.AperFunction,Conductor*%
%TO.N,GND*%
G36*
X-26330928Y51597157D02*
G01*
X-25276182Y51184091D01*
X-25272177Y51181470D01*
X-24581424Y50490717D01*
X-24577997Y50482444D01*
X-24581424Y50474171D01*
X-24586866Y50471092D01*
X-26332029Y50035959D01*
X-26340886Y50037282D01*
X-26346212Y50044480D01*
X-26346333Y50045017D01*
X-26432161Y50474171D01*
X-26500250Y50814623D01*
X-26500250Y50819203D01*
X-26346662Y51588554D01*
X-26341682Y51595994D01*
X-26332898Y51597735D01*
X-26330928Y51597157D01*
G37*
%TD.AperFunction*%
%TD*%
%TA.AperFunction,Conductor*%
%TO.N,GND*%
G36*
X998675Y-3418799D02*
G01*
X1001876Y-3424786D01*
X1282343Y-4832464D01*
X1280599Y-4841247D01*
X1273166Y-4846222D01*
X502297Y-5000540D01*
X497703Y-5000540D01*
X-273167Y-4846222D01*
X-280606Y-4841238D01*
X-282344Y-4832464D01*
X-1876Y-3424786D01*
X3101Y-3417342D01*
X9598Y-3415372D01*
X990402Y-3415372D01*
X998675Y-3418799D01*
G37*
%TD.AperFunction*%
%TD*%
%TA.AperFunction,Conductor*%
%TO.N,Net-(C203-Pad1)*%
G36*
X4586537Y28777845D02*
G01*
X4587559Y28775954D01*
X5108041Y27557548D01*
X5108140Y27548594D01*
X5105555Y27544679D01*
X4974542Y27413666D01*
X4966269Y27410239D01*
X4963163Y27410659D01*
X3873916Y27710565D01*
X3866850Y27716065D01*
X3865544Y27724112D01*
X3998350Y28395938D01*
X4003314Y28403386D01*
X4570314Y28781096D01*
X4579099Y28782830D01*
X4586537Y28777845D01*
G37*
%TD.AperFunction*%
%TD*%
%TA.AperFunction,Conductor*%
%TO.N,GND*%
G36*
X3892751Y5898064D02*
G01*
X5321317Y5168981D01*
X5327128Y5162169D01*
X5327441Y5156120D01*
X5082289Y4006713D01*
X5077211Y3999337D01*
X5073287Y3997711D01*
X3923880Y3752559D01*
X3915074Y3754185D01*
X3911019Y3758682D01*
X3181936Y5187248D01*
X3181228Y5196172D01*
X3184083Y5200835D01*
X3879164Y5895916D01*
X3887436Y5899342D01*
X3892751Y5898064D01*
G37*
%TD.AperFunction*%
%TD*%
%TA.AperFunction,Conductor*%
%TO.N,Net-(U201C--)*%
G36*
X9608233Y38977052D02*
G01*
X10590355Y38453304D01*
X10596043Y38446387D01*
X10596550Y38442980D01*
X10596550Y38257684D01*
X10593123Y38249411D01*
X10589499Y38246947D01*
X9607843Y37821845D01*
X9598890Y37821703D01*
X9593474Y37826070D01*
X9375515Y38151431D01*
X9213361Y38393489D01*
X9211604Y38402269D01*
X9213362Y38406512D01*
X9240074Y38446387D01*
X9593011Y38973240D01*
X9600461Y38978205D01*
X9608233Y38977052D01*
G37*
%TD.AperFunction*%
%TD*%
%TA.AperFunction,Conductor*%
%TO.N,Net-(C205-Pad1)*%
G36*
X22137087Y40303893D02*
G01*
X23326338Y39902910D01*
X23333083Y39897019D01*
X23334078Y39889552D01*
X23182227Y39121980D01*
X23177259Y39114530D01*
X23173020Y39112773D01*
X22405448Y38960922D01*
X22396667Y38962679D01*
X22392090Y38968662D01*
X21991107Y40157913D01*
X21991711Y40166847D01*
X21993918Y40169921D01*
X22125077Y40301080D01*
X22133349Y40304506D01*
X22137087Y40303893D01*
G37*
%TD.AperFunction*%
%TD*%
%TA.AperFunction,Conductor*%
%TO.N,GND*%
G36*
X43478526Y-27003185D02*
G01*
X43482397Y-27006247D01*
X44294872Y-27992561D01*
X44297487Y-28001125D01*
X44294872Y-28007439D01*
X43482397Y-28993752D01*
X43474491Y-28997959D01*
X43469589Y-28997387D01*
X42019045Y-28502702D01*
X42012321Y-28496788D01*
X42011122Y-28491628D01*
X42011122Y-27508371D01*
X42014549Y-27500098D01*
X42019041Y-27497299D01*
X43469591Y-27002612D01*
X43478526Y-27003185D01*
G37*
%TD.AperFunction*%
%TD*%
%TA.AperFunction,Conductor*%
%TO.N,GND*%
G36*
X33583595Y-42226833D02*
G01*
X34945214Y-42498124D01*
X34952658Y-42503101D01*
X34954628Y-42509598D01*
X34954628Y-43490401D01*
X34951201Y-43498674D01*
X34945214Y-43501875D01*
X33537535Y-43782343D01*
X33528752Y-43780599D01*
X33523777Y-43773166D01*
X33369459Y-43002292D01*
X33369459Y-42997707D01*
X33523777Y-42226831D01*
X33528761Y-42219394D01*
X33537535Y-42217656D01*
X33583595Y-42226833D01*
G37*
%TD.AperFunction*%
%TD*%
%TA.AperFunction,Conductor*%
%TO.N,GND*%
G36*
X43390769Y3601847D02*
G01*
X44049037Y2949642D01*
X44294221Y2706717D01*
X44297686Y2698460D01*
X44295783Y2692010D01*
X43599465Y1625469D01*
X43592073Y1620415D01*
X43587195Y1620429D01*
X42039994Y1955005D01*
X42032632Y1960103D01*
X42030767Y1966441D01*
X42030767Y2949642D01*
X42034194Y2957915D01*
X42037396Y2960186D01*
X43377467Y3604083D01*
X43386408Y3604576D01*
X43390769Y3601847D01*
G37*
%TD.AperFunction*%
%TD*%
%TA.AperFunction,Conductor*%
%TO.N,GND*%
G36*
X5073153Y4001828D02*
G01*
X5080834Y3997224D01*
X5082721Y3993342D01*
X5392376Y2861258D01*
X5391254Y2852374D01*
X5387031Y2848091D01*
X3977983Y2017672D01*
X3969116Y2016424D01*
X3963770Y2019479D01*
X3268701Y2714548D01*
X3265274Y2722821D01*
X3266240Y2727477D01*
X3892035Y4168345D01*
X3898473Y4174566D01*
X3904483Y4175255D01*
X5073153Y4001828D01*
G37*
%TD.AperFunction*%
%TD*%
%TA.AperFunction,Conductor*%
%TO.N,Net-(U201A-+)*%
G36*
X38016758Y29473584D02*
G01*
X38396637Y28906512D01*
X38398395Y28897731D01*
X38396637Y28893488D01*
X38016758Y28326417D01*
X38009307Y28321451D01*
X38001948Y28322394D01*
X37020060Y28796807D01*
X37014102Y28803492D01*
X37013450Y28807342D01*
X37013450Y28992659D01*
X37016877Y29000932D01*
X37020058Y29003194D01*
X38001948Y29477608D01*
X38010888Y29478120D01*
X38016758Y29473584D01*
G37*
%TD.AperFunction*%
%TD*%
%TA.AperFunction,Conductor*%
%TO.N,Net-(U201D--)*%
G36*
X1116758Y28973584D02*
G01*
X1496637Y28406512D01*
X1498395Y28397731D01*
X1496637Y28393488D01*
X1116758Y27826417D01*
X1109307Y27821451D01*
X1101948Y27822394D01*
X120060Y28296807D01*
X114102Y28303492D01*
X113450Y28307342D01*
X113450Y28492659D01*
X116877Y28500932D01*
X120058Y28503194D01*
X1101948Y28977608D01*
X1110888Y28978120D01*
X1116758Y28973584D01*
G37*
%TD.AperFunction*%
%TD*%
%TA.AperFunction,Conductor*%
%TO.N,+3.3V*%
G36*
X-23503422Y-17498511D02*
G01*
X-23495746Y-17503122D01*
X-23493450Y-17510083D01*
X-23493450Y-18489916D01*
X-23496877Y-18498189D01*
X-23503423Y-18501488D01*
X-24732426Y-18684906D01*
X-24741114Y-18682738D01*
X-24745625Y-18675634D01*
X-24880540Y-18002295D01*
X-24880540Y-17997704D01*
X-24745624Y-17324364D01*
X-24740640Y-17316928D01*
X-24732427Y-17315093D01*
X-23503422Y-17498511D01*
G37*
%TD.AperFunction*%
%TD*%
%TA.AperFunction,Conductor*%
%TO.N,CH05*%
G36*
X-1149930Y-34409191D02*
G01*
X-1147204Y-34413476D01*
X-960392Y-34928709D01*
X-960793Y-34937655D01*
X-967403Y-34943696D01*
X-969071Y-34944165D01*
X-1247680Y-35000530D01*
X-1252320Y-35000530D01*
X-1530930Y-34944165D01*
X-1538359Y-34939165D01*
X-1540078Y-34930377D01*
X-1539613Y-34928720D01*
X-1352796Y-34413476D01*
X-1346755Y-34406866D01*
X-1341797Y-34405764D01*
X-1158203Y-34405764D01*
X-1149930Y-34409191D01*
G37*
%TD.AperFunction*%
%TD*%
%TA.AperFunction,Conductor*%
%TO.N,Net-(U201D--)*%
G36*
X-3765160Y29120990D02*
G01*
X-2904878Y28503501D01*
X-2900155Y28495894D01*
X-2900000Y28493997D01*
X-2900000Y28306004D01*
X-2903427Y28297731D01*
X-2904878Y28296499D01*
X-3765159Y27679012D01*
X-3773878Y27676972D01*
X-3780248Y27680238D01*
X-4397357Y28296499D01*
X-4492711Y28391722D01*
X-4496143Y28399992D01*
X-4492722Y28408267D01*
X-4492710Y28408279D01*
X-4406874Y28493997D01*
X-3780246Y29119764D01*
X-3771973Y29123184D01*
X-3765160Y29120990D01*
G37*
%TD.AperFunction*%
%TD*%
%TA.AperFunction,Conductor*%
%TO.N,GND*%
G36*
X43390769Y-11398153D02*
G01*
X44049037Y-12050358D01*
X44294221Y-12293283D01*
X44297686Y-12301540D01*
X44295783Y-12307990D01*
X43599465Y-13374531D01*
X43592073Y-13379585D01*
X43587195Y-13379571D01*
X42039994Y-13044995D01*
X42032632Y-13039897D01*
X42030767Y-13033559D01*
X42030767Y-12050358D01*
X42034194Y-12042085D01*
X42037396Y-12039814D01*
X43377467Y-11395917D01*
X43386408Y-11395424D01*
X43390769Y-11398153D01*
G37*
%TD.AperFunction*%
%TD*%
%TA.AperFunction,Conductor*%
%TO.N,GND*%
G36*
X5361113Y13682739D02*
G01*
X5365624Y13675634D01*
X5500539Y13002299D01*
X5500539Y12997701D01*
X5365624Y12324367D01*
X5360639Y12316929D01*
X5352425Y12315094D01*
X4123423Y12498512D01*
X4115746Y12503123D01*
X4113450Y12510084D01*
X4113450Y13489917D01*
X4116877Y13498190D01*
X4123421Y13501489D01*
X5352426Y13684907D01*
X5361113Y13682739D01*
G37*
%TD.AperFunction*%
%TD*%
%TA.AperFunction,Conductor*%
%TO.N,Net-(C205-Pad1)*%
G36*
X1596510Y43396639D02*
G01*
X2163583Y43016759D01*
X2168549Y43009308D01*
X2167606Y43001949D01*
X1693194Y42020060D01*
X1686509Y42014102D01*
X1682659Y42013450D01*
X1497341Y42013450D01*
X1489068Y42016877D01*
X1486806Y42020060D01*
X1012393Y43001949D01*
X1011880Y43010889D01*
X1016414Y43016758D01*
X1583488Y43396639D01*
X1592269Y43398396D01*
X1596510Y43396639D01*
G37*
%TD.AperFunction*%
%TD*%
%TA.AperFunction,Conductor*%
%TO.N,Net-(U201A-+)*%
G36*
X30803017Y46252227D02*
G01*
X30810468Y46247261D01*
X30812226Y46243018D01*
X30944591Y45573422D01*
X30942833Y45564641D01*
X30936963Y45560105D01*
X29907204Y45201267D01*
X29898264Y45201780D01*
X29895081Y45204042D01*
X29764041Y45335082D01*
X29760614Y45343355D01*
X29761265Y45347200D01*
X30120105Y46376966D01*
X30126062Y46383649D01*
X30133421Y46384592D01*
X30803017Y46252227D01*
G37*
%TD.AperFunction*%
%TD*%
%TA.AperFunction,Conductor*%
%TO.N,GND*%
G36*
X-43469593Y-27002611D02*
G01*
X-42019044Y-27497298D01*
X-42012321Y-27503211D01*
X-42011122Y-27508371D01*
X-42011122Y-28491628D01*
X-42014549Y-28499901D01*
X-42019045Y-28502702D01*
X-43469590Y-28997387D01*
X-43478527Y-28996814D01*
X-43482398Y-28993752D01*
X-43886900Y-28502702D01*
X-44294874Y-28007437D01*
X-44297488Y-27998875D01*
X-44294874Y-27992563D01*
X-43482397Y-27006246D01*
X-43474492Y-27002040D01*
X-43469593Y-27002611D01*
G37*
%TD.AperFunction*%
%TD*%
%TA.AperFunction,Conductor*%
%TO.N,+3.3V*%
G36*
X-24245985Y13826862D02*
G01*
X-23553139Y13134016D01*
X-23549712Y13125743D01*
X-23552008Y13118782D01*
X-24291347Y12120050D01*
X-24299024Y12115439D01*
X-24307238Y12117274D01*
X-24878757Y12497994D01*
X-24882007Y12501244D01*
X-25262728Y13072765D01*
X-25264462Y13081549D01*
X-25259953Y13088653D01*
X-24261219Y13827994D01*
X-24252531Y13830161D01*
X-24245985Y13826862D01*
G37*
%TD.AperFunction*%
%TD*%
%TA.AperFunction,Conductor*%
%TO.N,GND*%
G36*
X-11381325Y-41418799D02*
G01*
X-11378124Y-41424786D01*
X-11097657Y-42832464D01*
X-11099401Y-42841247D01*
X-11106834Y-42846222D01*
X-11877703Y-43000540D01*
X-11882297Y-43000540D01*
X-12653167Y-42846222D01*
X-12660606Y-42841238D01*
X-12662344Y-42832464D01*
X-12381876Y-41424786D01*
X-12376899Y-41417342D01*
X-12370402Y-41415372D01*
X-11389598Y-41415372D01*
X-11381325Y-41418799D01*
G37*
%TD.AperFunction*%
%TD*%
%TA.AperFunction,Conductor*%
%TO.N,Net-(U201D--)*%
G36*
X2411735Y29448221D02*
G01*
X2414918Y29445959D01*
X2545958Y29314919D01*
X2549385Y29306646D01*
X2548733Y29302796D01*
X2189895Y28273037D01*
X2183937Y28266352D01*
X2176578Y28265409D01*
X1506982Y28397774D01*
X1499531Y28402740D01*
X1497773Y28406983D01*
X1365408Y29076579D01*
X1367166Y29085360D01*
X1373033Y29089895D01*
X2402797Y29448734D01*
X2411735Y29448221D01*
G37*
%TD.AperFunction*%
%TD*%
%TA.AperFunction,Conductor*%
%TO.N,+3.3V*%
G36*
X-12498782Y-36672007D02*
G01*
X-11821158Y-37173637D01*
X-11540749Y-37381218D01*
X-11500050Y-37411346D01*
X-11495439Y-37419023D01*
X-11497274Y-37427237D01*
X-11877994Y-37998756D01*
X-11881244Y-38002006D01*
X-12452763Y-38382726D01*
X-12461549Y-38384461D01*
X-12468654Y-38379950D01*
X-13207993Y-37381218D01*
X-13210161Y-37372530D01*
X-13206864Y-37365986D01*
X-12514015Y-36673137D01*
X-12505743Y-36669711D01*
X-12498782Y-36672007D01*
G37*
%TD.AperFunction*%
%TD*%
%TA.AperFunction,Conductor*%
%TO.N,GND*%
G36*
X-42993392Y-41945538D02*
G01*
X-42006833Y-42396874D01*
X-42000735Y-42403432D01*
X-42000000Y-42407513D01*
X-42000000Y-43393048D01*
X-42003427Y-43401321D01*
X-42006106Y-43403324D01*
X-42993512Y-43940870D01*
X-43002416Y-43941816D01*
X-43005979Y-43940062D01*
X-44288679Y-43008944D01*
X-44293361Y-43001311D01*
X-44291274Y-42992603D01*
X-44289186Y-42990397D01*
X-43558988Y-42396874D01*
X-43005638Y-41947097D01*
X-42997057Y-41944539D01*
X-42993392Y-41945538D01*
G37*
%TD.AperFunction*%
%TD*%
%TA.AperFunction,Conductor*%
%TO.N,Net-(D204-A)*%
G36*
X-24481949Y38977607D02*
G01*
X-24260206Y38870469D01*
X-23500060Y38503194D01*
X-23494102Y38496509D01*
X-23493450Y38492659D01*
X-23493450Y38307342D01*
X-23496877Y38299069D01*
X-23500060Y38296807D01*
X-24481949Y37822394D01*
X-24490889Y37821881D01*
X-24496759Y37826417D01*
X-24876639Y38393489D01*
X-24878396Y38402269D01*
X-24876638Y38406512D01*
X-24496758Y38973585D01*
X-24489308Y38978550D01*
X-24481949Y38977607D01*
G37*
%TD.AperFunction*%
%TD*%
%TA.AperFunction,Conductor*%
%TO.N,GND*%
G36*
X33211247Y-27219400D02*
G01*
X33216222Y-27226833D01*
X33370540Y-27997703D01*
X33370540Y-28002297D01*
X33216222Y-28773166D01*
X33211238Y-28780605D01*
X33202464Y-28782343D01*
X31794786Y-28501875D01*
X31787342Y-28496898D01*
X31785372Y-28490401D01*
X31785372Y-27509598D01*
X31788799Y-27501325D01*
X31794784Y-27498124D01*
X33202464Y-27217656D01*
X33211247Y-27219400D01*
G37*
%TD.AperFunction*%
%TD*%
%TA.AperFunction,Conductor*%
%TO.N,GND*%
G36*
X33583595Y-27226833D02*
G01*
X34945214Y-27498124D01*
X34952658Y-27503101D01*
X34954628Y-27509598D01*
X34954628Y-28490401D01*
X34951201Y-28498674D01*
X34945214Y-28501875D01*
X33537535Y-28782343D01*
X33528752Y-28780599D01*
X33523777Y-28773166D01*
X33369459Y-28002292D01*
X33369459Y-27997707D01*
X33523777Y-27226831D01*
X33528761Y-27219394D01*
X33537535Y-27217656D01*
X33583595Y-27226833D01*
G37*
%TD.AperFunction*%
%TD*%
%TA.AperFunction,Conductor*%
%TO.N,GND*%
G36*
X41575634Y28765625D02*
G01*
X41583071Y28760640D01*
X41584906Y28752426D01*
X41401488Y27523423D01*
X41396877Y27515746D01*
X41389916Y27513450D01*
X40410084Y27513450D01*
X40401811Y27516877D01*
X40398512Y27523423D01*
X40215093Y28752426D01*
X40217261Y28761114D01*
X40224364Y28765624D01*
X40897704Y28900540D01*
X40902296Y28900540D01*
X41575634Y28765625D01*
G37*
%TD.AperFunction*%
%TD*%
%TA.AperFunction,Conductor*%
%TO.N,GND*%
G36*
X41398189Y39733123D02*
G01*
X41401488Y39726577D01*
X41584906Y38497575D01*
X41582738Y38488887D01*
X41575633Y38484376D01*
X40902299Y38349461D01*
X40897701Y38349461D01*
X40224366Y38484376D01*
X40216928Y38489361D01*
X40215093Y38497575D01*
X40398512Y39726577D01*
X40403123Y39734254D01*
X40410084Y39736550D01*
X41389916Y39736550D01*
X41398189Y39733123D01*
G37*
%TD.AperFunction*%
%TD*%
%TA.AperFunction,Conductor*%
%TO.N,GND*%
G36*
X33583595Y-11726833D02*
G01*
X34945214Y-11998124D01*
X34952658Y-12003101D01*
X34954628Y-12009598D01*
X34954628Y-12990401D01*
X34951201Y-12998674D01*
X34945214Y-13001875D01*
X33537535Y-13282343D01*
X33528752Y-13280599D01*
X33523777Y-13273166D01*
X33369459Y-12502292D01*
X33369459Y-12497707D01*
X33523777Y-11726831D01*
X33528761Y-11719394D01*
X33537535Y-11717656D01*
X33583595Y-11726833D01*
G37*
%TD.AperFunction*%
%TD*%
%TA.AperFunction,Conductor*%
%TO.N,Net-(U201C--)*%
G36*
X22137087Y37763893D02*
G01*
X23326338Y37362910D01*
X23333083Y37357019D01*
X23334078Y37349552D01*
X23182227Y36581980D01*
X23177259Y36574530D01*
X23173020Y36572773D01*
X22405448Y36420922D01*
X22396667Y36422679D01*
X22392090Y36428662D01*
X21991107Y37617913D01*
X21991711Y37626847D01*
X21993918Y37629921D01*
X22125077Y37761080D01*
X22133349Y37764506D01*
X22137087Y37763893D01*
G37*
%TD.AperFunction*%
%TD*%
%TA.AperFunction,Conductor*%
%TO.N,Net-(U201B--)*%
G36*
X30816510Y42746639D02*
G01*
X31205945Y42485758D01*
X31383514Y42366805D01*
X31388480Y42359354D01*
X31387495Y42351910D01*
X30903218Y41369975D01*
X30896485Y41364071D01*
X30892725Y41363450D01*
X30707408Y41363450D01*
X30699135Y41366877D01*
X30696832Y41370146D01*
X30618321Y41536081D01*
X30232281Y42351990D01*
X30231841Y42360932D01*
X30236344Y42366711D01*
X30803488Y42746639D01*
X30812269Y42748396D01*
X30816510Y42746639D01*
G37*
%TD.AperFunction*%
%TD*%
%TA.AperFunction,Conductor*%
%TO.N,Net-(U201A--)*%
G36*
X30902269Y25471573D02*
G01*
X30903501Y25470122D01*
X31520988Y24609842D01*
X31523028Y24601123D01*
X31519762Y24594753D01*
X30808279Y23882291D01*
X30800008Y23878858D01*
X30791733Y23882279D01*
X30791721Y23882291D01*
X30080237Y24594753D01*
X30076816Y24603028D01*
X30079010Y24609840D01*
X30696499Y25470122D01*
X30704107Y25474845D01*
X30706004Y25475000D01*
X30893996Y25475000D01*
X30902269Y25471573D01*
G37*
%TD.AperFunction*%
%TD*%
%TA.AperFunction,Conductor*%
%TO.N,GND*%
G36*
X19298189Y44783123D02*
G01*
X19301488Y44776577D01*
X19484906Y43547575D01*
X19482738Y43538887D01*
X19475633Y43534376D01*
X18802299Y43399461D01*
X18797701Y43399461D01*
X18124366Y43534376D01*
X18116928Y43539361D01*
X18115093Y43547575D01*
X18298512Y44776577D01*
X18303123Y44784254D01*
X18310084Y44786550D01*
X19289916Y44786550D01*
X19298189Y44783123D01*
G37*
%TD.AperFunction*%
%TD*%
%TA.AperFunction,Conductor*%
%TO.N,Net-(U201A-+)*%
G36*
X23588051Y50077607D02*
G01*
X23809794Y49970469D01*
X24569940Y49603194D01*
X24575898Y49596509D01*
X24576550Y49592659D01*
X24576550Y49407342D01*
X24573123Y49399069D01*
X24569940Y49396807D01*
X23588051Y48922394D01*
X23579111Y48921881D01*
X23573241Y48926417D01*
X23193361Y49493489D01*
X23191604Y49502269D01*
X23193362Y49506512D01*
X23573242Y50073585D01*
X23580692Y50078550D01*
X23588051Y50077607D01*
G37*
%TD.AperFunction*%
%TD*%
%TA.AperFunction,Conductor*%
%TO.N,GND*%
G36*
X43478526Y-42003185D02*
G01*
X43482397Y-42006247D01*
X44294872Y-42992561D01*
X44297487Y-43001125D01*
X44294872Y-43007439D01*
X43482397Y-43993752D01*
X43474491Y-43997959D01*
X43469589Y-43997387D01*
X42019045Y-43502702D01*
X42012321Y-43496788D01*
X42011122Y-43491628D01*
X42011122Y-42508371D01*
X42014549Y-42500098D01*
X42019041Y-42497299D01*
X43469591Y-42002612D01*
X43478526Y-42003185D01*
G37*
%TD.AperFunction*%
%TD*%
%TA.AperFunction,Conductor*%
%TO.N,GND*%
G36*
X-3299563Y55696573D02*
G01*
X-3297017Y55692755D01*
X-2952968Y54857208D01*
X-2952987Y54848253D01*
X-2955509Y54844485D01*
X-3791722Y54007288D01*
X-3799993Y54003856D01*
X-3808268Y54007278D01*
X-3808278Y54007288D01*
X-4087856Y54287195D01*
X-4644493Y54844486D01*
X-4647914Y54852760D01*
X-4647034Y54857204D01*
X-4302983Y55692755D01*
X-4296664Y55699100D01*
X-4292164Y55700000D01*
X-3307836Y55700000D01*
X-3299563Y55696573D01*
G37*
%TD.AperFunction*%
%TD*%
%TA.AperFunction,Conductor*%
%TO.N,Net-(A201-A5{slash}SCL)*%
G36*
X17937655Y-14960792D02*
G01*
X17943696Y-14967402D01*
X17944165Y-14969070D01*
X18000530Y-15247680D01*
X18000530Y-15252320D01*
X17944165Y-15530929D01*
X17939165Y-15538358D01*
X17930377Y-15540077D01*
X17928709Y-15539608D01*
X17413476Y-15352796D01*
X17406866Y-15346755D01*
X17405764Y-15341797D01*
X17405764Y-15158202D01*
X17409191Y-15149929D01*
X17413473Y-15147204D01*
X17928711Y-14960391D01*
X17937655Y-14960792D01*
G37*
%TD.AperFunction*%
%TD*%
%TA.AperFunction,Conductor*%
%TO.N,Net-(U201A-+)*%
G36*
X30361259Y34691642D02*
G01*
X30796640Y34041510D01*
X30798397Y34032729D01*
X30796640Y34028490D01*
X30361259Y33378359D01*
X30353809Y33373391D01*
X30346342Y33374386D01*
X29221876Y33931777D01*
X29215985Y33938522D01*
X29215372Y33942260D01*
X29215372Y34127741D01*
X29218799Y34136014D01*
X29221876Y34138224D01*
X30346342Y34695616D01*
X30355276Y34696219D01*
X30361259Y34691642D01*
G37*
%TD.AperFunction*%
%TD*%
%TA.AperFunction,Conductor*%
%TO.N,GND*%
G36*
X-11208334Y7934735D02*
G01*
X-10411277Y6741035D01*
X-10409533Y6732252D01*
X-10412734Y6726265D01*
X-11106265Y6032734D01*
X-11114538Y6029307D01*
X-11121035Y6031277D01*
X-12314735Y6828334D01*
X-12319712Y6835778D01*
X-12317975Y6844551D01*
X-11882006Y7498759D01*
X-11878758Y7502006D01*
X-11224551Y7937975D01*
X-11215767Y7939710D01*
X-11208334Y7934735D01*
G37*
%TD.AperFunction*%
%TD*%
%TA.AperFunction,Conductor*%
%TO.N,+3.3V*%
G36*
X31013595Y32268167D02*
G01*
X32375214Y31996876D01*
X32382658Y31991899D01*
X32384628Y31985402D01*
X32384628Y31004599D01*
X32381201Y30996326D01*
X32375214Y30993125D01*
X30967535Y30712657D01*
X30958752Y30714401D01*
X30953777Y30721834D01*
X30799459Y31492708D01*
X30799459Y31497293D01*
X30953777Y32268169D01*
X30958761Y32275606D01*
X30967535Y32277344D01*
X31013595Y32268167D01*
G37*
%TD.AperFunction*%
%TD*%
%TA.AperFunction,Conductor*%
%TO.N,Net-(U201A--)*%
G36*
X30806507Y26411643D02*
G01*
X31456641Y25976260D01*
X31461609Y25968810D01*
X31460614Y25961343D01*
X30903224Y24836876D01*
X30896479Y24830985D01*
X30892741Y24830372D01*
X30707259Y24830372D01*
X30698986Y24833799D01*
X30696776Y24836876D01*
X30139385Y25961343D01*
X30138781Y25970277D01*
X30143356Y25976259D01*
X30793491Y26411642D01*
X30802271Y26413398D01*
X30806507Y26411643D01*
G37*
%TD.AperFunction*%
%TD*%
%TA.AperFunction,Conductor*%
%TO.N,Net-(D204-A)*%
G36*
X-20029753Y39119763D02*
G01*
X-19317291Y38408279D01*
X-19313858Y38400008D01*
X-19317279Y38391733D01*
X-19317291Y38391721D01*
X-20029753Y37680238D01*
X-20038028Y37676817D01*
X-20044842Y37679012D01*
X-20905122Y38296499D01*
X-20909845Y38304107D01*
X-20910000Y38306004D01*
X-20910000Y38493997D01*
X-20906573Y38502270D01*
X-20905128Y38503498D01*
X-20044841Y39120990D01*
X-20036123Y39123029D01*
X-20029753Y39119763D01*
G37*
%TD.AperFunction*%
%TD*%
%TA.AperFunction,Conductor*%
%TO.N,+3.3V*%
G36*
X-12498782Y13827993D02*
G01*
X-11821158Y13326363D01*
X-11540749Y13118782D01*
X-11500050Y13088654D01*
X-11495439Y13080977D01*
X-11497274Y13072763D01*
X-11877994Y12501244D01*
X-11881244Y12497994D01*
X-12452763Y12117274D01*
X-12461549Y12115539D01*
X-12468654Y12120050D01*
X-13207993Y13118782D01*
X-13210161Y13127470D01*
X-13206864Y13134014D01*
X-12514015Y13826863D01*
X-12505743Y13830289D01*
X-12498782Y13827993D01*
G37*
%TD.AperFunction*%
%TD*%
%TA.AperFunction,Conductor*%
%TO.N,CH05*%
G36*
X21863017Y-22997773D02*
G01*
X21870468Y-23002739D01*
X21872226Y-23006982D01*
X22004591Y-23676578D01*
X22002833Y-23685359D01*
X21996963Y-23689895D01*
X20967204Y-24048733D01*
X20958264Y-24048220D01*
X20955081Y-24045958D01*
X20824041Y-23914918D01*
X20820614Y-23906645D01*
X20821265Y-23902800D01*
X21180105Y-22873034D01*
X21186062Y-22866351D01*
X21193421Y-22865408D01*
X21863017Y-22997773D01*
G37*
%TD.AperFunction*%
%TD*%
%TA.AperFunction,Conductor*%
%TO.N,Net-(U201D--)*%
G36*
X1550932Y24833123D02*
G01*
X1553194Y24829940D01*
X2027606Y23848052D01*
X2028119Y23839112D01*
X2023583Y23833242D01*
X1456512Y23453363D01*
X1447731Y23451605D01*
X1443488Y23453363D01*
X876416Y23833242D01*
X871450Y23840693D01*
X872393Y23848052D01*
X1346806Y24829940D01*
X1353491Y24835898D01*
X1357341Y24836550D01*
X1542659Y24836550D01*
X1550932Y24833123D01*
G37*
%TD.AperFunction*%
%TD*%
%TA.AperFunction,Conductor*%
%TO.N,CH06*%
G36*
X21874725Y-43001985D02*
G01*
X21874744Y-43001998D01*
X22524284Y-43437159D01*
X22529250Y-43444611D01*
X22527492Y-43453391D01*
X22526693Y-43454450D01*
X21628424Y-44512901D01*
X21620458Y-44516991D01*
X21611932Y-44514251D01*
X21611230Y-44513603D01*
X21480789Y-44383162D01*
X21477923Y-44378467D01*
X21089381Y-43168555D01*
X21090115Y-43159632D01*
X21096944Y-43153839D01*
X21098228Y-43153505D01*
X21865942Y-43000244D01*
X21874725Y-43001985D01*
G37*
%TD.AperFunction*%
%TD*%
%TA.AperFunction,Conductor*%
%TO.N,Net-(U201A--)*%
G36*
X23963332Y34187322D02*
G01*
X23967909Y34181339D01*
X24368892Y32992088D01*
X24368288Y32983154D01*
X24366078Y32980077D01*
X24234923Y32848922D01*
X24226650Y32845495D01*
X24222912Y32846108D01*
X23033661Y33247091D01*
X23026916Y33252982D01*
X23025921Y33260448D01*
X23177772Y34028022D01*
X23182740Y34035471D01*
X23186976Y34037228D01*
X23954552Y34189079D01*
X23963332Y34187322D01*
G37*
%TD.AperFunction*%
%TD*%
%TA.AperFunction,Conductor*%
%TO.N,ADC0*%
G36*
X4760362Y-14839986D02*
G01*
X4761872Y-14840835D01*
X4998734Y-14997984D01*
X5002015Y-15001265D01*
X5159164Y-15238127D01*
X5160883Y-15246915D01*
X5155883Y-15254344D01*
X5154373Y-15255193D01*
X4657953Y-15487422D01*
X4649007Y-15487823D01*
X4644722Y-15485097D01*
X4514902Y-15355277D01*
X4511475Y-15347004D01*
X4512575Y-15342051D01*
X4744806Y-14845625D01*
X4751416Y-14839585D01*
X4760362Y-14839986D01*
G37*
%TD.AperFunction*%
%TD*%
%TA.AperFunction,Conductor*%
%TO.N,+3.3V*%
G36*
X39075634Y38215625D02*
G01*
X39083071Y38210640D01*
X39084906Y38202426D01*
X38901488Y36973423D01*
X38896877Y36965746D01*
X38889916Y36963450D01*
X37910084Y36963450D01*
X37901811Y36966877D01*
X37898512Y36973423D01*
X37715093Y38202426D01*
X37717261Y38211114D01*
X37724364Y38215624D01*
X38397704Y38350540D01*
X38402296Y38350540D01*
X39075634Y38215625D01*
G37*
%TD.AperFunction*%
%TD*%
%TA.AperFunction,Conductor*%
%TO.N,Net-(U201A-+)*%
G36*
X31253827Y29615079D02*
G01*
X32378519Y29003323D01*
X32384149Y28996360D01*
X32384628Y28993045D01*
X32384628Y28807584D01*
X32381201Y28799311D01*
X32377707Y28796904D01*
X31253464Y28293855D01*
X31244512Y28293604D01*
X31238964Y28298025D01*
X31202477Y28352509D01*
X30803358Y28948492D01*
X30801602Y28957271D01*
X30803357Y28961508D01*
X31238519Y29611311D01*
X31245968Y29616278D01*
X31253827Y29615079D01*
G37*
%TD.AperFunction*%
%TD*%
%TA.AperFunction,Conductor*%
%TO.N,CH08*%
G36*
X20827087Y-11311107D02*
G01*
X22016338Y-11712090D01*
X22023083Y-11717981D01*
X22024078Y-11725448D01*
X21872227Y-12493020D01*
X21867259Y-12500470D01*
X21863020Y-12502227D01*
X21095448Y-12654078D01*
X21086667Y-12652321D01*
X21082090Y-12646338D01*
X20681107Y-11457087D01*
X20681711Y-11448153D01*
X20683918Y-11445079D01*
X20815077Y-11313920D01*
X20823349Y-11310494D01*
X20827087Y-11311107D01*
G37*
%TD.AperFunction*%
%TD*%
%TA.AperFunction,Conductor*%
%TO.N,GND*%
G36*
X-11106972Y-11032026D02*
G01*
X-10413441Y-11725557D01*
X-10410014Y-11733830D01*
X-10411984Y-11740327D01*
X-11209041Y-12934027D01*
X-11216485Y-12939004D01*
X-11225259Y-12937266D01*
X-11879465Y-12501298D01*
X-11882713Y-12498050D01*
X-12318681Y-11843844D01*
X-12320417Y-11835059D01*
X-12315442Y-11827626D01*
X-12162580Y-11725557D01*
X-11121742Y-11030568D01*
X-11112959Y-11028825D01*
X-11106972Y-11032026D01*
G37*
%TD.AperFunction*%
%TD*%
%TA.AperFunction,Conductor*%
%TO.N,Net-(U201A-+)*%
G36*
X29907200Y47298735D02*
G01*
X30936964Y46939895D01*
X30943648Y46933938D01*
X30944591Y46926579D01*
X30812226Y46256983D01*
X30807260Y46249532D01*
X30803017Y46247774D01*
X30133421Y46115409D01*
X30124640Y46117167D01*
X30120105Y46123036D01*
X29761266Y47152798D01*
X29761779Y47161736D01*
X29764038Y47164916D01*
X29895082Y47295960D01*
X29903354Y47299386D01*
X29907200Y47298735D01*
G37*
%TD.AperFunction*%
%TD*%
%TA.AperFunction,Conductor*%
%TO.N,GND*%
G36*
X-12535449Y-42562026D02*
G01*
X-11881243Y-42997994D01*
X-11877995Y-43001242D01*
X-11442027Y-43655448D01*
X-11440291Y-43664233D01*
X-11445266Y-43671666D01*
X-12638966Y-44468723D01*
X-12647749Y-44470467D01*
X-12653736Y-44467266D01*
X-13347267Y-43773735D01*
X-13350694Y-43765462D01*
X-13348724Y-43758965D01*
X-13290432Y-43671666D01*
X-12551667Y-42565264D01*
X-12544223Y-42560288D01*
X-12535449Y-42562026D01*
G37*
%TD.AperFunction*%
%TD*%
%TA.AperFunction,Conductor*%
%TO.N,+3.3V*%
G36*
X-12498782Y-6172007D02*
G01*
X-11821158Y-6673637D01*
X-11540749Y-6881218D01*
X-11500050Y-6911346D01*
X-11495439Y-6919023D01*
X-11497274Y-6927237D01*
X-11877994Y-7498756D01*
X-11881244Y-7502006D01*
X-12452763Y-7882726D01*
X-12461549Y-7884461D01*
X-12468654Y-7879950D01*
X-13207993Y-6881218D01*
X-13210161Y-6872530D01*
X-13206864Y-6865986D01*
X-12514015Y-6173137D01*
X-12505743Y-6169711D01*
X-12498782Y-6172007D01*
G37*
%TD.AperFunction*%
%TD*%
%TA.AperFunction,Conductor*%
%TO.N,GND*%
G36*
X-11106265Y8967267D02*
G01*
X-10412734Y8273736D01*
X-10409307Y8265463D01*
X-10411277Y8258966D01*
X-11208334Y7065266D01*
X-11215778Y7060289D01*
X-11224552Y7062027D01*
X-11878758Y7497995D01*
X-11882006Y7501243D01*
X-12317974Y8155449D01*
X-12319710Y8164234D01*
X-12314735Y8171667D01*
X-12161873Y8273736D01*
X-11121035Y8968725D01*
X-11112252Y8970468D01*
X-11106265Y8967267D01*
G37*
%TD.AperFunction*%
%TD*%
%TA.AperFunction,Conductor*%
%TO.N,GND*%
G36*
X2876578Y13501489D02*
G01*
X2884254Y13496878D01*
X2886550Y13489917D01*
X2886550Y12510084D01*
X2883123Y12501811D01*
X2876577Y12498512D01*
X1647574Y12315094D01*
X1638886Y12317262D01*
X1634375Y12324366D01*
X1499460Y12997705D01*
X1499460Y13002296D01*
X1634376Y13675636D01*
X1639360Y13683072D01*
X1647573Y13684907D01*
X2876578Y13501489D01*
G37*
%TD.AperFunction*%
%TD*%
%TA.AperFunction,Conductor*%
%TO.N,Net-(U201A--)*%
G36*
X24231846Y30143289D02*
G01*
X24234923Y30141079D01*
X24366078Y30009924D01*
X24369505Y30001651D01*
X24368892Y29997913D01*
X23967909Y28808662D01*
X23962018Y28801917D01*
X23954551Y28800922D01*
X23186979Y28952773D01*
X23179529Y28957741D01*
X23177772Y28961980D01*
X23025921Y29729552D01*
X23027678Y29738333D01*
X23033660Y29742910D01*
X24222912Y30143893D01*
X24231846Y30143289D01*
G37*
%TD.AperFunction*%
%TD*%
%TA.AperFunction,Conductor*%
%TO.N,ADC2*%
G36*
X3100070Y-20409191D02*
G01*
X3102796Y-20413476D01*
X3289608Y-20928709D01*
X3289207Y-20937655D01*
X3282597Y-20943696D01*
X3280929Y-20944165D01*
X3002320Y-21000530D01*
X2997680Y-21000530D01*
X2719070Y-20944165D01*
X2711641Y-20939165D01*
X2709922Y-20930377D01*
X2710387Y-20928720D01*
X2897204Y-20413476D01*
X2903245Y-20406866D01*
X2908203Y-20405764D01*
X3091797Y-20405764D01*
X3100070Y-20409191D01*
G37*
%TD.AperFunction*%
%TD*%
%TA.AperFunction,Conductor*%
%TO.N,Net-(A201-A4{slash}SDA)*%
G36*
X17937655Y-16210792D02*
G01*
X17943696Y-16217402D01*
X17944165Y-16219070D01*
X18000530Y-16497680D01*
X18000530Y-16502320D01*
X17944165Y-16780929D01*
X17939165Y-16788358D01*
X17930377Y-16790077D01*
X17928709Y-16789608D01*
X17413476Y-16602796D01*
X17406866Y-16596755D01*
X17405764Y-16591797D01*
X17405764Y-16408202D01*
X17409191Y-16399929D01*
X17413473Y-16397204D01*
X17928711Y-16210391D01*
X17937655Y-16210792D01*
G37*
%TD.AperFunction*%
%TD*%
%TA.AperFunction,Conductor*%
%TO.N,Net-(U201B--)*%
G36*
X30806507Y39111643D02*
G01*
X31456641Y38676260D01*
X31461609Y38668810D01*
X31460614Y38661343D01*
X30903224Y37536876D01*
X30896479Y37530985D01*
X30892741Y37530372D01*
X30707259Y37530372D01*
X30698986Y37533799D01*
X30696776Y37536876D01*
X30139385Y38661343D01*
X30138781Y38670277D01*
X30143356Y38676259D01*
X30793491Y39111642D01*
X30802271Y39113398D01*
X30806507Y39111643D01*
G37*
%TD.AperFunction*%
%TD*%
%TA.AperFunction,Conductor*%
%TO.N,GND*%
G36*
X1998189Y14383123D02*
G01*
X2001488Y14376577D01*
X2184906Y13147575D01*
X2182738Y13138887D01*
X2175633Y13134376D01*
X1502299Y12999461D01*
X1497701Y12999461D01*
X824366Y13134376D01*
X816928Y13139361D01*
X815093Y13147575D01*
X998512Y14376577D01*
X1003123Y14384254D01*
X1010084Y14386550D01*
X1989916Y14386550D01*
X1998189Y14383123D01*
G37*
%TD.AperFunction*%
%TD*%
%TA.AperFunction,Conductor*%
%TO.N,GND*%
G36*
X-11476405Y24223167D02*
G01*
X-10114786Y23951876D01*
X-10107342Y23946899D01*
X-10105372Y23940402D01*
X-10105372Y22959599D01*
X-10108799Y22951326D01*
X-10114786Y22948125D01*
X-11522465Y22667657D01*
X-11531248Y22669401D01*
X-11536223Y22676834D01*
X-11690541Y23447708D01*
X-11690541Y23452293D01*
X-11536223Y24223169D01*
X-11531239Y24230606D01*
X-11522465Y24232344D01*
X-11476405Y24223167D01*
G37*
%TD.AperFunction*%
%TD*%
%TA.AperFunction,Conductor*%
%TO.N,Net-(C203-Pad1)*%
G36*
X23173020Y23877228D02*
G01*
X23180470Y23872260D01*
X23182227Y23868021D01*
X23334078Y23100449D01*
X23332321Y23091668D01*
X23326338Y23087091D01*
X22137087Y22686108D01*
X22128153Y22686712D01*
X22125076Y22688922D01*
X21993921Y22820077D01*
X21990494Y22828350D01*
X21991107Y22832088D01*
X22081591Y23100449D01*
X22392090Y24021340D01*
X22397981Y24028084D01*
X22405446Y24029079D01*
X23173020Y23877228D01*
G37*
%TD.AperFunction*%
%TD*%
%TA.AperFunction,Conductor*%
%TO.N,CH08*%
G36*
X-2899930Y-34409191D02*
G01*
X-2897204Y-34413476D01*
X-2710392Y-34928709D01*
X-2710793Y-34937655D01*
X-2717403Y-34943696D01*
X-2719071Y-34944165D01*
X-2997680Y-35000530D01*
X-3002320Y-35000530D01*
X-3280930Y-34944165D01*
X-3288359Y-34939165D01*
X-3290078Y-34930377D01*
X-3289613Y-34928720D01*
X-3102796Y-34413476D01*
X-3096755Y-34406866D01*
X-3091797Y-34405764D01*
X-2908203Y-34405764D01*
X-2899930Y-34409191D01*
G37*
%TD.AperFunction*%
%TD*%
%TA.AperFunction,Conductor*%
%TO.N,Net-(JP201-A)*%
G36*
X8109016Y-34746575D02*
G01*
X9324156Y-35356761D01*
X9330012Y-35363536D01*
X9330606Y-35367217D01*
X9330606Y-35552782D01*
X9327179Y-35561055D01*
X9324156Y-35563238D01*
X8109017Y-36173423D01*
X8100086Y-36174073D01*
X8094045Y-36169477D01*
X7623357Y-35466508D01*
X7621603Y-35457728D01*
X7623356Y-35453493D01*
X8094046Y-34750521D01*
X8101495Y-34745555D01*
X8109016Y-34746575D01*
G37*
%TD.AperFunction*%
%TD*%
%TA.AperFunction,Conductor*%
%TO.N,GND*%
G36*
X33583595Y-42226833D02*
G01*
X34945214Y-42498124D01*
X34952658Y-42503101D01*
X34954628Y-42509598D01*
X34954628Y-43490401D01*
X34951201Y-43498674D01*
X34945214Y-43501875D01*
X33537535Y-43782343D01*
X33528752Y-43780599D01*
X33523777Y-43773166D01*
X33369459Y-43002292D01*
X33369459Y-42997707D01*
X33523777Y-42226831D01*
X33528761Y-42219394D01*
X33537535Y-42217656D01*
X33583595Y-42226833D01*
G37*
%TD.AperFunction*%
%TD*%
%TA.AperFunction,Conductor*%
%TO.N,Net-(U201A--)*%
G36*
X23963332Y29107322D02*
G01*
X23967909Y29101339D01*
X24368892Y27912088D01*
X24368288Y27903154D01*
X24366078Y27900077D01*
X24234923Y27768922D01*
X24226650Y27765495D01*
X24222912Y27766108D01*
X23033661Y28167091D01*
X23026916Y28172982D01*
X23025921Y28180448D01*
X23177772Y28948022D01*
X23182740Y28955471D01*
X23186976Y28957228D01*
X23954552Y29109079D01*
X23963332Y29107322D01*
G37*
%TD.AperFunction*%
%TD*%
%TA.AperFunction,Conductor*%
%TO.N,GND*%
G36*
X2175634Y12865625D02*
G01*
X2183071Y12860640D01*
X2184906Y12852426D01*
X2001488Y11623423D01*
X1996877Y11615746D01*
X1989916Y11613450D01*
X1010084Y11613450D01*
X1001811Y11616877D01*
X998512Y11623423D01*
X815093Y12852426D01*
X817261Y12861114D01*
X824364Y12865624D01*
X1497704Y13000540D01*
X1502296Y13000540D01*
X2175634Y12865625D01*
G37*
%TD.AperFunction*%
%TD*%
%TA.AperFunction,Conductor*%
%TO.N,Net-(JP201-A)*%
G36*
X22132172Y-51731209D02*
G01*
X22135722Y-51733641D01*
X22266358Y-51864277D01*
X22269785Y-51872550D01*
X22268994Y-51876780D01*
X21604323Y-53590932D01*
X21598137Y-53597407D01*
X21589184Y-53597611D01*
X21588947Y-53597516D01*
X20753784Y-53252562D01*
X20747446Y-53246236D01*
X20402483Y-52411052D01*
X20402492Y-52402097D01*
X20408830Y-52395771D01*
X20408996Y-52395704D01*
X22123222Y-51731005D01*
X22132172Y-51731209D01*
G37*
%TD.AperFunction*%
%TD*%
%TA.AperFunction,Conductor*%
%TO.N,GND*%
G36*
X-26658753Y51598220D02*
G01*
X-26653778Y51590787D01*
X-26499460Y50819917D01*
X-26499460Y50815323D01*
X-26653778Y50044454D01*
X-26658762Y50037015D01*
X-26667536Y50035277D01*
X-28075214Y50315745D01*
X-28082658Y50320722D01*
X-28084628Y50327219D01*
X-28084628Y51308022D01*
X-28081201Y51316295D01*
X-28075216Y51319496D01*
X-26667536Y51599964D01*
X-26658753Y51598220D01*
G37*
%TD.AperFunction*%
%TD*%
%TA.AperFunction,Conductor*%
%TO.N,GND*%
G36*
X-6749157Y-37139449D02*
G01*
X-5899960Y-37496985D01*
X-5893665Y-37503353D01*
X-5892800Y-37507768D01*
X-5892800Y-38492231D01*
X-5896227Y-38500504D01*
X-5899960Y-38503014D01*
X-6749155Y-38860549D01*
X-6758110Y-38860601D01*
X-6761962Y-38858045D01*
X-7612714Y-38008277D01*
X-7616145Y-38000007D01*
X-7612724Y-37991732D01*
X-6761961Y-37141953D01*
X-6753688Y-37138533D01*
X-6749157Y-37139449D01*
G37*
%TD.AperFunction*%
%TD*%
%TA.AperFunction,Conductor*%
%TO.N,Net-(U201B--)*%
G36*
X30901014Y38156201D02*
G01*
X30903224Y38153124D01*
X31460614Y37028658D01*
X31461218Y37019724D01*
X31456641Y37013741D01*
X30806510Y36578360D01*
X30797729Y36576603D01*
X30793490Y36578360D01*
X30143358Y37013741D01*
X30138390Y37021191D01*
X30139385Y37028658D01*
X30696776Y38153124D01*
X30703521Y38159015D01*
X30707259Y38159628D01*
X30892741Y38159628D01*
X30901014Y38156201D01*
G37*
%TD.AperFunction*%
%TD*%
%TA.AperFunction,Conductor*%
%TO.N,GND*%
G36*
X24049170Y-51628105D02*
G01*
X24742924Y-52321859D01*
X24746351Y-52330132D01*
X24744948Y-52335688D01*
X24002848Y-53710932D01*
X23995903Y-53716586D01*
X23986995Y-53715673D01*
X23986062Y-53715112D01*
X23291241Y-53252005D01*
X23287994Y-53248758D01*
X22823889Y-52552439D01*
X22822152Y-52543654D01*
X22826583Y-52536606D01*
X24033857Y-51627032D01*
X24042526Y-51624792D01*
X24049170Y-51628105D01*
G37*
%TD.AperFunction*%
%TD*%
%TA.AperFunction,Conductor*%
%TO.N,+3.3V*%
G36*
X-12498782Y-21672007D02*
G01*
X-11821158Y-22173637D01*
X-11540749Y-22381218D01*
X-11500050Y-22411346D01*
X-11495439Y-22419023D01*
X-11497274Y-22427237D01*
X-11877994Y-22998756D01*
X-11881244Y-23002006D01*
X-12452763Y-23382726D01*
X-12461549Y-23384461D01*
X-12468654Y-23379950D01*
X-13207993Y-22381218D01*
X-13210161Y-22372530D01*
X-13206864Y-22365986D01*
X-12514015Y-21673137D01*
X-12505743Y-21669711D01*
X-12498782Y-21672007D01*
G37*
%TD.AperFunction*%
%TD*%
%TA.AperFunction,Conductor*%
%TO.N,ADC1*%
G36*
X3010362Y-14839986D02*
G01*
X3011872Y-14840835D01*
X3248734Y-14997984D01*
X3252015Y-15001265D01*
X3409164Y-15238127D01*
X3410883Y-15246915D01*
X3405883Y-15254344D01*
X3404373Y-15255193D01*
X2907953Y-15487422D01*
X2899007Y-15487823D01*
X2894722Y-15485097D01*
X2764902Y-15355277D01*
X2761475Y-15347004D01*
X2762575Y-15342051D01*
X2994806Y-14845625D01*
X3001416Y-14839585D01*
X3010362Y-14839986D01*
G37*
%TD.AperFunction*%
%TD*%
%TA.AperFunction,Conductor*%
%TO.N,GND*%
G36*
X-43496202Y3724317D02*
G01*
X-42019434Y3277515D01*
X-42012508Y3271839D01*
X-42011122Y3266316D01*
X-42011122Y2283066D01*
X-42014549Y2274793D01*
X-42018660Y2272131D01*
X-43442305Y1730236D01*
X-43451256Y1730496D01*
X-43455272Y1733466D01*
X-43928939Y2274793D01*
X-44294649Y2692742D01*
X-44297517Y2701223D01*
X-44295087Y2707617D01*
X-43508826Y3720294D01*
X-43501047Y3724725D01*
X-43496202Y3724317D01*
G37*
%TD.AperFunction*%
%TD*%
%TA.AperFunction,Conductor*%
%TO.N,CH07*%
G36*
X-4649930Y-34409191D02*
G01*
X-4647204Y-34413476D01*
X-4460392Y-34928709D01*
X-4460793Y-34937655D01*
X-4467403Y-34943696D01*
X-4469071Y-34944165D01*
X-4747680Y-35000530D01*
X-4752320Y-35000530D01*
X-5030930Y-34944165D01*
X-5038359Y-34939165D01*
X-5040078Y-34930377D01*
X-5039613Y-34928720D01*
X-4852796Y-34413476D01*
X-4846755Y-34406866D01*
X-4841797Y-34405764D01*
X-4658203Y-34405764D01*
X-4649930Y-34409191D01*
G37*
%TD.AperFunction*%
%TD*%
M02*
