%TF.GenerationSoftware,KiCad,Pcbnew,9.0.6-9.0.6~ubuntu24.04.1*%
%TF.CreationDate,2025-12-13T20:31:21+01:00*%
%TF.ProjectId,temperator,74656d70-6572-4617-946f-722e6b696361,1.1*%
%TF.SameCoordinates,PX623a7c0PY623a7c0*%
%TF.FileFunction,Soldermask,Top*%
%TF.FilePolarity,Negative*%
%FSLAX46Y46*%
G04 Gerber Fmt 4.6, Leading zero omitted, Abs format (unit mm)*
G04 Created by KiCad (PCBNEW 9.0.6-9.0.6~ubuntu24.04.1) date 2025-12-13 20:31:21*
%MOMM*%
%LPD*%
G01*
G04 APERTURE LIST*
G04 Aperture macros list*
%AMRoundRect*
0 Rectangle with rounded corners*
0 $1 Rounding radius*
0 $2 $3 $4 $5 $6 $7 $8 $9 X,Y pos of 4 corners*
0 Add a 4 corners polygon primitive as box body*
4,1,4,$2,$3,$4,$5,$6,$7,$8,$9,$2,$3,0*
0 Add four circle primitives for the rounded corners*
1,1,$1+$1,$2,$3*
1,1,$1+$1,$4,$5*
1,1,$1+$1,$6,$7*
1,1,$1+$1,$8,$9*
0 Add four rect primitives between the rounded corners*
20,1,$1+$1,$2,$3,$4,$5,0*
20,1,$1+$1,$4,$5,$6,$7,0*
20,1,$1+$1,$6,$7,$8,$9,0*
20,1,$1+$1,$8,$9,$2,$3,0*%
G04 Aperture macros list end*
%ADD10C,1.400000*%
%ADD11RoundRect,0.250000X-0.550000X-0.550000X0.550000X-0.550000X0.550000X0.550000X-0.550000X0.550000X0*%
%ADD12C,1.600000*%
%ADD13R,2.600000X2.600000*%
%ADD14C,2.600000*%
%ADD15C,3.600000*%
%ADD16C,5.600000*%
%ADD17C,3.800000*%
%ADD18RoundRect,0.250000X0.550000X-0.550000X0.550000X0.550000X-0.550000X0.550000X-0.550000X-0.550000X0*%
%ADD19RoundRect,0.250001X-0.949999X-0.949999X0.949999X-0.949999X0.949999X0.949999X-0.949999X0.949999X0*%
%ADD20C,2.400000*%
%ADD21RoundRect,0.250000X0.550000X0.550000X-0.550000X0.550000X-0.550000X-0.550000X0.550000X-0.550000X0*%
%ADD22C,1.800000*%
%ADD23C,1.727200*%
%ADD24R,1.727200X1.727200*%
%ADD25R,1.700000X1.700000*%
%ADD26C,1.700000*%
G04 APERTURE END LIST*
D10*
%TO.C,R124*%
X33310000Y-2500000D03*
X25690000Y-2500000D03*
%TD*%
%TO.C,C205*%
X-4500000Y33400000D03*
X-7000000Y33400000D03*
%TD*%
%TO.C,C208*%
X16300000Y43400000D03*
X18800000Y43400000D03*
%TD*%
D11*
%TO.C,D104*%
X-32500000Y-28000000D03*
D12*
X-24880000Y-28000000D03*
%TD*%
D13*
%TO.C,J104*%
X44300000Y12700000D03*
D14*
X44300000Y7700000D03*
X44300000Y2700000D03*
X44300000Y-2300000D03*
X44300000Y-7300000D03*
X44300000Y-12300000D03*
%TD*%
D11*
%TO.C,D202*%
X-19310000Y33400000D03*
D12*
X-11690000Y33400000D03*
%TD*%
D11*
%TO.C,D109*%
X-19500707Y-12499293D03*
D12*
X-11880707Y-12499293D03*
%TD*%
D10*
%TO.C,R203*%
X-24880000Y28400000D03*
X-32500000Y28400000D03*
%TD*%
D11*
%TO.C,D106*%
X14250000Y-43000000D03*
D12*
X21870000Y-43000000D03*
%TD*%
D10*
%TO.C,C211*%
X38400000Y38350000D03*
X40900000Y38350000D03*
%TD*%
%TO.C,C213*%
X8000000Y13000000D03*
X5500000Y13000000D03*
%TD*%
%TO.C,R103*%
X-11880000Y-38000000D03*
X-19500000Y-38000000D03*
%TD*%
%TO.C,R119*%
X33370000Y-38000000D03*
X25750000Y-38000000D03*
%TD*%
%TO.C,R209*%
X-24880000Y38400000D03*
X-32500000Y38400000D03*
%TD*%
D13*
%TO.C,J102*%
X-44300000Y-43000000D03*
D14*
X-44300000Y-38000000D03*
X-44300000Y-33000000D03*
X-44300000Y-28000000D03*
X-44300000Y-23000000D03*
X-44300000Y-18000000D03*
%TD*%
D13*
%TO.C,J101*%
X-44300000Y-12300000D03*
D14*
X-44300000Y-7300000D03*
X-44300000Y-2300000D03*
X-44300000Y2700000D03*
X-44300000Y7700000D03*
X-44300000Y12700000D03*
%TD*%
D15*
%TO.C,H206*%
X-39000000Y53500000D03*
D16*
X-39000000Y53500000D03*
%TD*%
D14*
%TO.C,H211*%
X12750000Y54000000D03*
D17*
X12750000Y54000000D03*
%TD*%
D13*
%TO.C,J103*%
X44300000Y-18000000D03*
D14*
X44300000Y-23000000D03*
X44300000Y-28000000D03*
X44300000Y-33000000D03*
X44300000Y-38000000D03*
X44300000Y-43000000D03*
%TD*%
D11*
%TO.C,D102*%
X-32500000Y2500000D03*
D12*
X-24880000Y2500000D03*
%TD*%
D10*
%TO.C,R107*%
X14250000Y12500000D03*
X21870000Y12500000D03*
%TD*%
D15*
%TO.C,H205*%
X39000000Y53500000D03*
D16*
X39000000Y53500000D03*
%TD*%
D10*
%TO.C,R105*%
X14250000Y-23000000D03*
X21870000Y-23000000D03*
%TD*%
D11*
%TO.C,D205*%
X-19310000Y38400000D03*
D12*
X-11690000Y38400000D03*
%TD*%
D10*
%TO.C,R114*%
X-32510000Y-33000000D03*
X-24890000Y-33000000D03*
%TD*%
%TO.C,R120*%
X33370000Y-33000000D03*
X25750000Y-33000000D03*
%TD*%
D11*
%TO.C,D103*%
X-32500000Y-43000000D03*
D12*
X-24880000Y-43000000D03*
%TD*%
D10*
%TO.C,R110*%
X-32500000Y-2400000D03*
X-24880000Y-2400000D03*
%TD*%
D11*
%TO.C,D204*%
X-19200000Y43400000D03*
D12*
X-11580000Y43400000D03*
%TD*%
D11*
%TO.C,D112*%
X-19500000Y-28000000D03*
D12*
X-11880000Y-28000000D03*
%TD*%
D15*
%TO.C,H208*%
X39000000Y-53500000D03*
D16*
X39000000Y-53500000D03*
%TD*%
D18*
%TO.C,C209*%
X-26500000Y48317620D03*
D12*
X-26500000Y50817620D03*
%TD*%
D10*
%TO.C,R211*%
X23190000Y42750000D03*
X30810000Y42750000D03*
%TD*%
D18*
%TO.C,C210*%
X-26500000Y32150000D03*
D12*
X-26500000Y34650000D03*
%TD*%
D11*
%TO.C,D116*%
X25750000Y-12500000D03*
D12*
X33370000Y-12500000D03*
%TD*%
D10*
%TO.C,R112*%
X-32500000Y12500000D03*
X-24880000Y12500000D03*
%TD*%
D14*
%TO.C,H210*%
X-15000000Y52500000D03*
D17*
X-15000000Y52500000D03*
%TD*%
D10*
%TO.C,R113*%
X-32560000Y-38000000D03*
X-24940000Y-38000000D03*
%TD*%
D11*
%TO.C,D115*%
X25750000Y2500000D03*
D12*
X33370000Y2500000D03*
%TD*%
D19*
%TO.C,D201*%
X-5080000Y4000000D03*
D20*
X5080000Y4000000D03*
%TD*%
D11*
%TO.C,D108*%
X14250000Y-12500000D03*
D12*
X21870000Y-12500000D03*
%TD*%
D10*
%TO.C,R118*%
X33370000Y-18000000D03*
X25750000Y-18000000D03*
%TD*%
%TO.C,R116*%
X-32500000Y-18000000D03*
X-24880000Y-18000000D03*
%TD*%
%TO.C,R208*%
X1590000Y38400000D03*
X9210000Y38400000D03*
%TD*%
D11*
%TO.C,D203*%
X-19310000Y23450000D03*
D12*
X-11690000Y23450000D03*
%TD*%
D10*
%TO.C,C212*%
X38400000Y28900000D03*
X40900000Y28900000D03*
%TD*%
%TO.C,R204*%
X30810000Y46250000D03*
X23190000Y46250000D03*
%TD*%
D21*
%TO.C,U201*%
X30800000Y23875000D03*
D12*
X30800000Y26415000D03*
X30800000Y28955000D03*
X30800000Y31495000D03*
X30800000Y34035000D03*
X30800000Y36575000D03*
X30800000Y39115000D03*
X23180000Y39115000D03*
X23180000Y36575000D03*
X23180000Y34035000D03*
X23180000Y31495000D03*
X23180000Y28955000D03*
X23180000Y26415000D03*
X23180000Y23875000D03*
%TD*%
D22*
%TO.C,A201*%
X-7620000Y-27840000D03*
X-7620000Y-68480000D03*
X7620000Y-27840000D03*
X7620000Y-68480000D03*
D23*
X7620000Y-63400000D03*
X7620000Y-38000000D03*
X7620000Y-58320000D03*
X7620000Y-55780000D03*
X7620000Y-53240000D03*
X7620000Y-50700000D03*
X7620000Y-48160000D03*
X7620000Y-45620000D03*
X7620000Y-43080000D03*
X7620000Y-40540000D03*
X7620000Y-60860000D03*
X7620000Y-35460000D03*
X-7620000Y-32920000D03*
X-7620000Y-30380000D03*
X-7620000Y-40540000D03*
X-7620000Y-43080000D03*
X-7620000Y-45620000D03*
X-7620000Y-48160000D03*
X-7620000Y-50700000D03*
X-7620000Y-53240000D03*
X-7620000Y-55780000D03*
X-7620000Y-58320000D03*
X-7620000Y-60860000D03*
X-7620000Y-63400000D03*
X-7620000Y-65940000D03*
X7620000Y-65940000D03*
D24*
X-7620000Y-38000000D03*
X7620000Y-32920000D03*
D23*
X-7620000Y-35460000D03*
X7620000Y-30380000D03*
%TD*%
D11*
%TO.C,D114*%
X25750000Y-43000000D03*
D12*
X33370000Y-43000000D03*
%TD*%
D10*
%TO.C,R111*%
X-32500000Y7600000D03*
X-24880000Y7600000D03*
%TD*%
%TO.C,R102*%
X-11880000Y12500000D03*
X-19500000Y12500000D03*
%TD*%
D18*
%TO.C,C202*%
X500000Y-7500000D03*
D12*
X500000Y-5000000D03*
%TD*%
D10*
%TO.C,R101*%
X-11880000Y-7500000D03*
X-19500000Y-7500000D03*
%TD*%
D11*
%TO.C,D105*%
X14250000Y-28000000D03*
D12*
X21870000Y-28000000D03*
%TD*%
D10*
%TO.C,R210*%
X1590000Y43400000D03*
X9210000Y43400000D03*
%TD*%
%TO.C,R109*%
X-32500000Y-7500000D03*
X-24880000Y-7500000D03*
%TD*%
%TO.C,R122*%
X33370000Y12500000D03*
X25750000Y12500000D03*
%TD*%
%TO.C,C207*%
X16300000Y33400000D03*
X18800000Y33400000D03*
%TD*%
%TO.C,C203*%
X4000000Y28400000D03*
X1500000Y28400000D03*
%TD*%
%TO.C,R201*%
X30810000Y49500000D03*
X23190000Y49500000D03*
%TD*%
D21*
%TO.C,C204*%
X-4500000Y28400000D03*
D12*
X-7000000Y28400000D03*
%TD*%
D10*
%TO.C,R104*%
X-11880000Y-23000000D03*
X-19500000Y-23000000D03*
%TD*%
%TO.C,R115*%
X-32500000Y-23000000D03*
X-24880000Y-23000000D03*
%TD*%
D11*
%TO.C,D107*%
X14250000Y7500000D03*
D12*
X21870000Y7500000D03*
%TD*%
D10*
%TO.C,R205*%
X9070000Y23450000D03*
X1450000Y23450000D03*
%TD*%
%TO.C,C201*%
X-1000000Y13000000D03*
X1500000Y13000000D03*
%TD*%
D25*
%TO.C,JP201*%
X20750000Y-53250000D03*
D26*
X23290000Y-53250000D03*
%TD*%
D11*
%TO.C,D101*%
X-32500000Y-12400000D03*
D12*
X-24880000Y-12400000D03*
%TD*%
D10*
%TO.C,R207*%
X1440000Y33400000D03*
X9060000Y33400000D03*
%TD*%
D13*
%TO.C,J201*%
X-44300000Y18400000D03*
D14*
X-44300000Y23400000D03*
X-44300000Y28400000D03*
X-44300000Y33400000D03*
X-44300000Y38400000D03*
X-44300000Y43400000D03*
%TD*%
D21*
%TO.C,C206*%
X-4571144Y38400000D03*
D12*
X-7071144Y38400000D03*
%TD*%
D25*
%TO.C,Brd201*%
X-3800000Y54000000D03*
D26*
X-1260000Y54000000D03*
X1280000Y54000000D03*
X3820000Y54000000D03*
%TD*%
D10*
%TO.C,R121*%
X33370000Y7500000D03*
X25750000Y7500000D03*
%TD*%
D11*
%TO.C,D113*%
X25750000Y-28000000D03*
D12*
X33370000Y-28000000D03*
%TD*%
D14*
%TO.C,H212*%
X-12750000Y28500000D03*
D17*
X-12750000Y28500000D03*
%TD*%
D10*
%TO.C,R202*%
X-24830000Y43400000D03*
X-32450000Y43400000D03*
%TD*%
D14*
%TO.C,H213*%
X15000000Y25500000D03*
D17*
X15000000Y25500000D03*
%TD*%
D15*
%TO.C,H207*%
X-39000000Y-53500000D03*
D16*
X-39000000Y-53500000D03*
%TD*%
D10*
%TO.C,R206*%
X-24880000Y23450000D03*
X-32500000Y23450000D03*
%TD*%
%TO.C,R106*%
X14250000Y-38000000D03*
X21870000Y-38000000D03*
%TD*%
%TO.C,R123*%
X33370000Y-7500000D03*
X25750000Y-7500000D03*
%TD*%
%TO.C,R108*%
X14250000Y-7500000D03*
X21870000Y-7500000D03*
%TD*%
D11*
%TO.C,D111*%
X-19500000Y-43000000D03*
D12*
X-11880000Y-43000000D03*
%TD*%
D11*
%TO.C,D110*%
X-19500000Y7500000D03*
D12*
X-11880000Y7500000D03*
%TD*%
D10*
%TO.C,R117*%
X33370000Y-23000000D03*
X25750000Y-23000000D03*
%TD*%
M02*
