%TF.GenerationSoftware,KiCad,Pcbnew,9.0.6-9.0.6~ubuntu24.04.1*%
%TF.CreationDate,2025-12-13T20:31:22+01:00*%
%TF.ProjectId,temperator,74656d70-6572-4617-946f-722e6b696361,1.1*%
%TF.SameCoordinates,PX623a7c0PY623a7c0*%
%TF.FileFunction,Profile,NP*%
%FSLAX46Y46*%
G04 Gerber Fmt 4.6, Leading zero omitted, Abs format (unit mm)*
G04 Created by KiCad (PCBNEW 9.0.6-9.0.6~ubuntu24.04.1) date 2025-12-13 20:31:22*
%MOMM*%
%LPD*%
G01*
G04 APERTURE LIST*
%TA.AperFunction,Profile*%
%ADD10C,0.050000*%
%TD*%
G04 APERTURE END LIST*
D10*
X45000000Y15300000D02*
G75*
G02*
X44500000Y15800000I0J500000D01*
G01*
X24500000Y67500000D02*
X24500000Y61500000D01*
X44500000Y-46100000D02*
G75*
G02*
X45000000Y-45600000I500000J0D01*
G01*
X-24500000Y62767767D02*
G75*
G02*
X-27267767Y60000000I-2767800J33D01*
G01*
X-27267767Y60000000D02*
X-42000000Y60000000D01*
X-28000000Y-60000000D02*
G75*
G02*
X-25500000Y-62500000I0J-2500000D01*
G01*
X-25500000Y-62500000D02*
X-25500000Y-67500000D01*
X42000000Y59000000D02*
G75*
G02*
X44500000Y56500000I0J-2500000D01*
G01*
X-44500000Y57500000D02*
X-44500000Y46400000D01*
X-44500000Y46400000D02*
G75*
G02*
X-45000000Y45900000I-500000J0D01*
G01*
X50000000Y-45100000D02*
G75*
G02*
X49500000Y-45600000I-500000J0D01*
G01*
X49500000Y15300000D02*
G75*
G02*
X50000000Y14800000I0J-500000D01*
G01*
X-45000000Y-45600000D02*
G75*
G02*
X-44500000Y-46100000I0J-500000D01*
G01*
X44500000Y-57500000D02*
X44500000Y-46100000D01*
X23000000Y-70000000D02*
X-23000000Y-70000000D01*
X-49500000Y-45600000D02*
X-45000000Y-45600000D01*
X-50000000Y45400000D02*
X-50000000Y-45100000D01*
X-24500000Y67500000D02*
G75*
G02*
X-22000000Y70000000I2500000J0D01*
G01*
X25500000Y-62500000D02*
G75*
G02*
X28000000Y-60000000I2500000J0D01*
G01*
X-50000000Y45400000D02*
G75*
G02*
X-49500000Y45900000I500000J0D01*
G01*
X25500000Y-67500000D02*
G75*
G02*
X23000000Y-70000000I-2500000J0D01*
G01*
X-45000000Y45900000D02*
X-49500000Y45900000D01*
X22000000Y70000000D02*
G75*
G02*
X24500000Y67500000I0J-2500000D01*
G01*
X44500000Y-57500000D02*
G75*
G02*
X42000000Y-60000000I-2500000J0D01*
G01*
X27000000Y59000000D02*
X42000000Y59000000D01*
X25500000Y-62500000D02*
X25500000Y-67500000D01*
X-23000000Y-70000000D02*
G75*
G02*
X-25500000Y-67500000I0J2500000D01*
G01*
X27000000Y59000000D02*
G75*
G02*
X24500000Y61500000I0J2500000D01*
G01*
X42000000Y-60000000D02*
X28000000Y-60000000D01*
X-42000000Y-60000000D02*
X-28000000Y-60000000D01*
X49500000Y-45600000D02*
X45000000Y-45600000D01*
X-49500000Y-45600000D02*
G75*
G02*
X-50000000Y-45100000I0J500000D01*
G01*
X-44500000Y57500000D02*
G75*
G02*
X-42000000Y60000000I2500000J0D01*
G01*
X-42000000Y-60000000D02*
G75*
G02*
X-44500000Y-57500000I0J2500000D01*
G01*
X-24500000Y67500000D02*
X-24500000Y62767767D01*
X-44500000Y-46100000D02*
X-44500000Y-57500000D01*
X50000000Y14800000D02*
X50000000Y-45100000D01*
X-22000000Y70000000D02*
X22000000Y70000000D01*
X44500000Y15800000D02*
X44500000Y56500000D01*
X45000000Y15300000D02*
X49500000Y15300000D01*
M02*
