%TF.GenerationSoftware,KiCad,Pcbnew,9.0.6-9.0.6~ubuntu24.04.1*%
%TF.CreationDate,2025-12-13T20:31:21+01:00*%
%TF.ProjectId,temperator,74656d70-6572-4617-946f-722e6b696361,1.1*%
%TF.SameCoordinates,PX623a7c0PY623a7c0*%
%TF.FileFunction,Legend,Bot*%
%TF.FilePolarity,Positive*%
%FSLAX46Y46*%
G04 Gerber Fmt 4.6, Leading zero omitted, Abs format (unit mm)*
G04 Created by KiCad (PCBNEW 9.0.6-9.0.6~ubuntu24.04.1) date 2025-12-13 20:31:21*
%MOMM*%
%LPD*%
G01*
G04 APERTURE LIST*
%ADD10C,0.100000*%
%ADD11C,0.150000*%
G04 APERTURE END LIST*
D10*
X13625000Y-64500000D02*
X22375000Y-64500000D01*
X22375000Y-67250000D01*
X13625000Y-67250000D01*
X13625000Y-64500000D01*
X20868734Y-66074800D02*
X20773496Y-66122419D01*
X20773496Y-66122419D02*
X20583020Y-66122419D01*
X20583020Y-66122419D02*
X20487782Y-66074800D01*
X20487782Y-66074800D02*
X20440163Y-65979561D01*
X20440163Y-65979561D02*
X20440163Y-65931942D01*
X20440163Y-65931942D02*
X20487782Y-65836704D01*
X20487782Y-65836704D02*
X20583020Y-65789085D01*
X20583020Y-65789085D02*
X20725877Y-65789085D01*
X20725877Y-65789085D02*
X20821115Y-65741466D01*
X20821115Y-65741466D02*
X20868734Y-65646228D01*
X20868734Y-65646228D02*
X20868734Y-65598609D01*
X20868734Y-65598609D02*
X20821115Y-65503371D01*
X20821115Y-65503371D02*
X20725877Y-65455752D01*
X20725877Y-65455752D02*
X20583020Y-65455752D01*
X20583020Y-65455752D02*
X20487782Y-65503371D01*
X19868734Y-66122419D02*
X19963972Y-66074800D01*
X19963972Y-66074800D02*
X20011591Y-66027180D01*
X20011591Y-66027180D02*
X20059210Y-65931942D01*
X20059210Y-65931942D02*
X20059210Y-65646228D01*
X20059210Y-65646228D02*
X20011591Y-65550990D01*
X20011591Y-65550990D02*
X19963972Y-65503371D01*
X19963972Y-65503371D02*
X19868734Y-65455752D01*
X19868734Y-65455752D02*
X19725877Y-65455752D01*
X19725877Y-65455752D02*
X19630639Y-65503371D01*
X19630639Y-65503371D02*
X19583020Y-65550990D01*
X19583020Y-65550990D02*
X19535401Y-65646228D01*
X19535401Y-65646228D02*
X19535401Y-65931942D01*
X19535401Y-65931942D02*
X19583020Y-66027180D01*
X19583020Y-66027180D02*
X19630639Y-66074800D01*
X19630639Y-66074800D02*
X19725877Y-66122419D01*
X19725877Y-66122419D02*
X19868734Y-66122419D01*
X18963972Y-66122419D02*
X19059210Y-66074800D01*
X19059210Y-66074800D02*
X19106829Y-65979561D01*
X19106829Y-65979561D02*
X19106829Y-65122419D01*
X18154448Y-66122419D02*
X18154448Y-65122419D01*
X18154448Y-66074800D02*
X18249686Y-66122419D01*
X18249686Y-66122419D02*
X18440162Y-66122419D01*
X18440162Y-66122419D02*
X18535400Y-66074800D01*
X18535400Y-66074800D02*
X18583019Y-66027180D01*
X18583019Y-66027180D02*
X18630638Y-65931942D01*
X18630638Y-65931942D02*
X18630638Y-65646228D01*
X18630638Y-65646228D02*
X18583019Y-65550990D01*
X18583019Y-65550990D02*
X18535400Y-65503371D01*
X18535400Y-65503371D02*
X18440162Y-65455752D01*
X18440162Y-65455752D02*
X18249686Y-65455752D01*
X18249686Y-65455752D02*
X18154448Y-65503371D01*
X17297305Y-66074800D02*
X17392543Y-66122419D01*
X17392543Y-66122419D02*
X17583019Y-66122419D01*
X17583019Y-66122419D02*
X17678257Y-66074800D01*
X17678257Y-66074800D02*
X17725876Y-65979561D01*
X17725876Y-65979561D02*
X17725876Y-65598609D01*
X17725876Y-65598609D02*
X17678257Y-65503371D01*
X17678257Y-65503371D02*
X17583019Y-65455752D01*
X17583019Y-65455752D02*
X17392543Y-65455752D01*
X17392543Y-65455752D02*
X17297305Y-65503371D01*
X17297305Y-65503371D02*
X17249686Y-65598609D01*
X17249686Y-65598609D02*
X17249686Y-65693847D01*
X17249686Y-65693847D02*
X17725876Y-65789085D01*
X16821114Y-66122419D02*
X16821114Y-65455752D01*
X16821114Y-65646228D02*
X16773495Y-65550990D01*
X16773495Y-65550990D02*
X16725876Y-65503371D01*
X16725876Y-65503371D02*
X16630638Y-65455752D01*
X16630638Y-65455752D02*
X16535400Y-65455752D01*
X16202066Y-66122419D02*
X16202066Y-65455752D01*
X16202066Y-65122419D02*
X16249685Y-65170038D01*
X16249685Y-65170038D02*
X16202066Y-65217657D01*
X16202066Y-65217657D02*
X16154447Y-65170038D01*
X16154447Y-65170038D02*
X16202066Y-65122419D01*
X16202066Y-65122419D02*
X16202066Y-65217657D01*
X15725876Y-65455752D02*
X15725876Y-66122419D01*
X15725876Y-65550990D02*
X15678257Y-65503371D01*
X15678257Y-65503371D02*
X15583019Y-65455752D01*
X15583019Y-65455752D02*
X15440162Y-65455752D01*
X15440162Y-65455752D02*
X15344924Y-65503371D01*
X15344924Y-65503371D02*
X15297305Y-65598609D01*
X15297305Y-65598609D02*
X15297305Y-66122419D01*
X14392543Y-65455752D02*
X14392543Y-66265276D01*
X14392543Y-66265276D02*
X14440162Y-66360514D01*
X14440162Y-66360514D02*
X14487781Y-66408133D01*
X14487781Y-66408133D02*
X14583019Y-66455752D01*
X14583019Y-66455752D02*
X14725876Y-66455752D01*
X14725876Y-66455752D02*
X14821114Y-66408133D01*
X14392543Y-66074800D02*
X14487781Y-66122419D01*
X14487781Y-66122419D02*
X14678257Y-66122419D01*
X14678257Y-66122419D02*
X14773495Y-66074800D01*
X14773495Y-66074800D02*
X14821114Y-66027180D01*
X14821114Y-66027180D02*
X14868733Y-65931942D01*
X14868733Y-65931942D02*
X14868733Y-65646228D01*
X14868733Y-65646228D02*
X14821114Y-65550990D01*
X14821114Y-65550990D02*
X14773495Y-65503371D01*
X14773495Y-65503371D02*
X14678257Y-65455752D01*
X14678257Y-65455752D02*
X14487781Y-65455752D01*
X14487781Y-65455752D02*
X14392543Y-65503371D01*
D11*
X-6169820Y-33658094D02*
X-5169820Y-33658094D01*
X-5169820Y-33658094D02*
X-5169820Y-33419999D01*
X-5169820Y-33419999D02*
X-5217439Y-33277142D01*
X-5217439Y-33277142D02*
X-5312677Y-33181904D01*
X-5312677Y-33181904D02*
X-5407915Y-33134285D01*
X-5407915Y-33134285D02*
X-5598391Y-33086666D01*
X-5598391Y-33086666D02*
X-5741248Y-33086666D01*
X-5741248Y-33086666D02*
X-5931724Y-33134285D01*
X-5931724Y-33134285D02*
X-6026962Y-33181904D01*
X-6026962Y-33181904D02*
X-6122200Y-33277142D01*
X-6122200Y-33277142D02*
X-6169820Y-33419999D01*
X-6169820Y-33419999D02*
X-6169820Y-33658094D01*
X-5169820Y-32467618D02*
X-5169820Y-32372380D01*
X-5169820Y-32372380D02*
X-5217439Y-32277142D01*
X-5217439Y-32277142D02*
X-5265058Y-32229523D01*
X-5265058Y-32229523D02*
X-5360296Y-32181904D01*
X-5360296Y-32181904D02*
X-5550772Y-32134285D01*
X-5550772Y-32134285D02*
X-5788867Y-32134285D01*
X-5788867Y-32134285D02*
X-5979343Y-32181904D01*
X-5979343Y-32181904D02*
X-6074581Y-32229523D01*
X-6074581Y-32229523D02*
X-6122200Y-32277142D01*
X-6122200Y-32277142D02*
X-6169820Y-32372380D01*
X-6169820Y-32372380D02*
X-6169820Y-32467618D01*
X-6169820Y-32467618D02*
X-6122200Y-32562856D01*
X-6122200Y-32562856D02*
X-6074581Y-32610475D01*
X-6074581Y-32610475D02*
X-5979343Y-32658094D01*
X-5979343Y-32658094D02*
X-5788867Y-32705713D01*
X-5788867Y-32705713D02*
X-5550772Y-32705713D01*
X-5550772Y-32705713D02*
X-5360296Y-32658094D01*
X-5360296Y-32658094D02*
X-5265058Y-32610475D01*
X-5265058Y-32610475D02*
X-5217439Y-32562856D01*
X-5217439Y-32562856D02*
X-5169820Y-32467618D01*
M02*
