M48
; DRILL file {KiCad 9.0.6-9.0.6~ubuntu24.04.1} date 2025-12-13T20:31:45+0100
; FORMAT={-:-/ absolute / metric / decimal}
; #@! TF.CreationDate,2025-12-13T20:31:45+01:00
; #@! TF.GenerationSoftware,Kicad,Pcbnew,9.0.6-9.0.6~ubuntu24.04.1
; #@! TF.FileFunction,Plated,1,2,PTH
FMAT,2
METRIC
; #@! TA.AperFunction,Plated,PTH,ViaDrill
T1C0.300
; #@! TA.AperFunction,Plated,PTH,ComponentDrill
T2C0.700
; #@! TA.AperFunction,Plated,PTH,ComponentDrill
T3C0.800
; #@! TA.AperFunction,Plated,PTH,ComponentDrill
T4C1.000
; #@! TA.AperFunction,Plated,PTH,ComponentDrill
T5C1.016
; #@! TA.AperFunction,Plated,PTH,ComponentDrill
T6C1.200
; #@! TA.AperFunction,Plated,PTH,ComponentDrill
T7C1.400
; #@! TA.AperFunction,Plated,PTH,ComponentDrill
T8C2.200
; #@! TA.AperFunction,Plated,PTH,ComponentDrill
T9C3.200
%
G90
G05
T1
X-4.75Y-35.0
X-3.0Y-35.0
X-1.25Y-35.0
X0.0Y-21.0
X1.5Y-21.0
X3.0Y-21.0
X3.25Y-15.0
X5.0Y-15.0
X6.75Y-15.0
X10.312Y-21.062
X11.75Y-21.0
X18.0Y-15.25
X18.0Y-16.5
T2
X-32.56Y-38.0
X-32.51Y-33.0
X-32.5Y38.4
X-32.5Y28.4
X-32.5Y23.45
X-32.5Y12.5
X-32.5Y7.6
X-32.5Y-2.4
X-32.5Y-7.5
X-32.5Y-18.0
X-32.5Y-23.0
X-32.45Y43.4
X-24.94Y-38.0
X-24.89Y-33.0
X-24.88Y38.4
X-24.88Y28.4
X-24.88Y23.45
X-24.88Y12.5
X-24.88Y7.6
X-24.88Y-2.4
X-24.88Y-7.5
X-24.88Y-18.0
X-24.88Y-23.0
X-24.83Y43.4
X-19.5Y12.5
X-19.5Y-7.5
X-19.5Y-23.0
X-19.5Y-38.0
X-11.88Y12.5
X-11.88Y-7.5
X-11.88Y-23.0
X-11.88Y-38.0
X-7.0Y33.4
X-4.5Y33.4
X-1.0Y13.0
X1.44Y33.4
X1.45Y23.45
X1.5Y28.4
X1.5Y13.0
X1.59Y43.4
X1.59Y38.4
X4.0Y28.4
X5.5Y13.0
X8.0Y13.0
X9.06Y33.4
X9.07Y23.45
X9.21Y43.4
X9.21Y38.4
X14.25Y12.5
X14.25Y-7.5
X14.25Y-23.0
X14.25Y-38.0
X16.3Y43.4
X16.3Y33.4
X18.8Y43.4
X18.8Y33.4
X21.87Y12.5
X21.87Y-7.5
X21.87Y-23.0
X21.87Y-38.0
X23.19Y49.5
X23.19Y46.25
X23.19Y42.75
X25.69Y-2.5
X25.75Y12.5
X25.75Y7.5
X25.75Y-7.5
X25.75Y-18.0
X25.75Y-23.0
X25.75Y-33.0
X25.75Y-38.0
X30.81Y49.5
X30.81Y46.25
X30.81Y42.75
X33.31Y-2.5
X33.37Y12.5
X33.37Y7.5
X33.37Y-7.5
X33.37Y-18.0
X33.37Y-23.0
X33.37Y-33.0
X33.37Y-38.0
X38.4Y38.35
X38.4Y28.9
X40.9Y38.35
X40.9Y28.9
T3
X-32.5Y2.5
X-32.5Y-12.4
X-32.5Y-28.0
X-32.5Y-43.0
X-26.5Y50.818
X-26.5Y48.318
X-26.5Y34.65
X-26.5Y32.15
X-24.88Y2.5
X-24.88Y-12.4
X-24.88Y-28.0
X-24.88Y-43.0
X-19.501Y-12.499
X-19.5Y7.5
X-19.5Y-28.0
X-19.5Y-43.0
X-19.31Y38.4
X-19.31Y33.4
X-19.31Y23.45
X-19.2Y43.4
X-11.881Y-12.499
X-11.88Y7.5
X-11.88Y-28.0
X-11.88Y-43.0
X-11.69Y38.4
X-11.69Y33.4
X-11.69Y23.45
X-11.58Y43.4
X-7.071Y38.4
X-7.0Y28.4
X-4.571Y38.4
X-4.5Y28.4
X0.5Y-5.0
X0.5Y-7.5
X14.25Y7.5
X14.25Y-12.5
X14.25Y-28.0
X14.25Y-43.0
X21.87Y7.5
X21.87Y-12.5
X21.87Y-28.0
X21.87Y-43.0
X23.18Y39.115
X23.18Y36.575
X23.18Y34.035
X23.18Y31.495
X23.18Y28.955
X23.18Y26.415
X23.18Y23.875
X25.75Y2.5
X25.75Y-12.5
X25.75Y-28.0
X25.75Y-43.0
X30.8Y39.115
X30.8Y36.575
X30.8Y34.035
X30.8Y31.495
X30.8Y28.955
X30.8Y26.415
X30.8Y23.875
X33.37Y2.5
X33.37Y-12.5
X33.37Y-28.0
X33.37Y-43.0
T4
X-3.8Y54.0
X-1.26Y54.0
X1.28Y54.0
X3.82Y54.0
X20.75Y-53.25
X23.29Y-53.25
T5
X-7.62Y-30.38
X-7.62Y-32.92
X-7.62Y-35.46
X-7.62Y-38.0
X-7.62Y-40.54
X-7.62Y-43.08
X-7.62Y-45.62
X-7.62Y-48.16
X-7.62Y-50.7
X-7.62Y-53.24
X-7.62Y-55.78
X-7.62Y-58.32
X-7.62Y-60.86
X-7.62Y-63.4
X-7.62Y-65.94
X7.62Y-30.38
X7.62Y-32.92
X7.62Y-35.46
X7.62Y-38.0
X7.62Y-40.54
X7.62Y-43.08
X7.62Y-45.62
X7.62Y-48.16
X7.62Y-50.7
X7.62Y-53.24
X7.62Y-55.78
X7.62Y-58.32
X7.62Y-60.86
X7.62Y-63.4
X7.62Y-65.94
T6
X-5.08Y4.0
X5.08Y4.0
T7
X-44.3Y43.4
X-44.3Y38.4
X-44.3Y33.4
X-44.3Y28.4
X-44.3Y23.4
X-44.3Y18.4
X-44.3Y12.7
X-44.3Y7.7
X-44.3Y2.7
X-44.3Y-2.3
X-44.3Y-7.3
X-44.3Y-12.3
X-44.3Y-18.0
X-44.3Y-23.0
X-44.3Y-28.0
X-44.3Y-33.0
X-44.3Y-38.0
X-44.3Y-43.0
X44.3Y12.7
X44.3Y7.7
X44.3Y2.7
X44.3Y-2.3
X44.3Y-7.3
X44.3Y-12.3
X44.3Y-18.0
X44.3Y-23.0
X44.3Y-28.0
X44.3Y-33.0
X44.3Y-38.0
X44.3Y-43.0
T8
X-15.0Y52.5
X-12.75Y28.5
X12.75Y54.0
X15.0Y25.5
T9
X-39.0Y53.5
X-39.0Y-53.5
X39.0Y53.5
X39.0Y-53.5
M30
